M48
;DRILL file {KiCad 4.0.5} date 11/19/17 14:30:09
;FORMAT={-:-/ absolute / inch / decimal}
FMAT,2
INCH,TZ
T1C0.031
T2C0.035
T3C0.040
T4C0.047
T5C0.130
%
G90
G05
M72
T1
X5.1Y-3.9
X5.1Y-4.
X5.1Y-4.1
X5.1Y-4.2
X5.1Y-4.3
X5.1Y-4.4
X5.1Y-4.5
X5.4Y-3.9
X5.4Y-4.
X5.4Y-4.1
X5.4Y-4.2
X5.4Y-4.3
X5.4Y-4.4
X5.4Y-4.5
X6.6Y-3.2
X6.6Y-3.3
X6.6Y-3.4
X6.6Y-3.5
X6.6Y-3.6
X6.6Y-3.7
X6.6Y-3.8
X6.6Y-3.9
X6.6Y-4.
X6.6Y-4.1
X6.6Y-4.2
X6.6Y-4.3
X6.6Y-4.4
X6.6Y-4.5
X7.2Y-3.2
X7.2Y-3.3
X7.2Y-3.4
X7.2Y-3.5
X7.2Y-3.6
X7.2Y-3.7
X7.2Y-3.8
X7.2Y-3.9
X7.2Y-4.
X7.2Y-4.1
X7.2Y-4.2
X7.2Y-4.3
X7.2Y-4.4
X7.2Y-4.5
T2
X5.7Y-3.2
X5.7Y-3.6
X5.8Y-3.2
X5.8Y-3.6
X5.9Y-3.2
X5.9Y-3.6
X6.Y-3.2
X6.Y-3.6
X6.1Y-3.2
X6.1Y-3.6
T3
X5.3819Y-2.9559
X5.4367Y-2.8441
X5.491Y-2.9559
X5.5457Y-2.8441
X5.6Y-2.9559
X5.6543Y-2.8441
X5.709Y-2.9559
X5.7633Y-2.8441
X5.8181Y-2.9559
T4
X4.9Y-5.
X4.9Y-5.2
X5.Y-5.
X5.Y-5.2
X5.1Y-5.
X5.1Y-5.2
X5.2Y-5.
X5.2Y-5.2
X5.4Y-5.
X5.4Y-5.2
X5.5Y-5.
X5.5Y-5.2
X5.6Y-5.
X5.6Y-5.2
X5.7Y-5.
X5.7Y-5.2
X5.8Y-5.
X5.8Y-5.2
X5.9Y-5.
X5.9Y-5.2
X6.Y-5.
X6.Y-5.2
X6.1Y-5.
X6.1Y-5.2
X6.2Y-5.
X6.2Y-5.2
X6.3Y-5.
X6.3Y-5.2
X6.4Y-5.
X6.4Y-5.2
X6.5Y-5.
X6.5Y-5.2
X6.6Y-5.
X6.6Y-5.2
X6.7Y-5.
X6.7Y-5.2
X6.8Y-5.
X6.8Y-5.2
X6.9Y-5.
X6.9Y-5.2
X7.Y-5.
X7.Y-5.2
X7.1Y-5.
X7.1Y-5.2
X7.2Y-5.
X7.2Y-5.2
X7.3Y-5.
X7.3Y-5.2
X7.4Y-5.
X7.4Y-5.2
X7.5Y-5.
X7.5Y-5.2
X7.6Y-5.
X7.6Y-5.2
T5
X5.1079Y-2.9
X6.0921Y-2.9
T0
M30
