G04 #@! TF.FileFunction,Soldermask,Bot*
%FSLAX46Y46*%
G04 Gerber Fmt 4.6, Leading zero omitted, Abs format (unit mm)*
G04 Created by KiCad (PCBNEW 4.0.5) date 11/19/17 14:30:07*
%MOMM*%
%LPD*%
G01*
G04 APERTURE LIST*
%ADD10C,0.100000*%
%ADD11C,2.200000*%
%ADD12R,2.200000X2.200000*%
%ADD13R,2.279600X2.279600*%
%ADD14C,2.279600*%
%ADD15C,5.480000*%
%ADD16O,2.127200X3.200000*%
%ADD17R,2.000000X2.000000*%
%ADD18O,2.000000X2.000000*%
G04 APERTURE END LIST*
D10*
D11*
X154940000Y-81280000D03*
D12*
X154940000Y-91440000D03*
D11*
X152400000Y-81280000D03*
D12*
X152400000Y-91440000D03*
D11*
X149860000Y-81280000D03*
D12*
X149860000Y-91440000D03*
D11*
X147320000Y-81280000D03*
D12*
X147320000Y-91440000D03*
D11*
X144780000Y-81280000D03*
D12*
X144780000Y-91440000D03*
D13*
X136700260Y-75079860D03*
D14*
X139471400Y-75079860D03*
X142240000Y-75079860D03*
X145008600Y-75079860D03*
X147779740Y-75079860D03*
X138092180Y-72240140D03*
X140860780Y-72240140D03*
X143619220Y-72240140D03*
X146387820Y-72240140D03*
D15*
X129740660Y-73660000D03*
X154739340Y-73660000D03*
D16*
X193040000Y-132080000D03*
X190500000Y-132080000D03*
X187960000Y-132080000D03*
X185420000Y-132080000D03*
X182880000Y-132080000D03*
X180340000Y-132080000D03*
X177800000Y-132080000D03*
X175260000Y-132080000D03*
X193040000Y-127000000D03*
X190500000Y-127000000D03*
X187960000Y-127000000D03*
X185420000Y-127000000D03*
X182880000Y-127000000D03*
X180340000Y-127000000D03*
X177800000Y-127000000D03*
X175260000Y-127000000D03*
X124460000Y-127000000D03*
X124460000Y-132080000D03*
X127000000Y-127000000D03*
X127000000Y-132080000D03*
X129540000Y-127000000D03*
X129540000Y-132080000D03*
X132080000Y-127000000D03*
X132080000Y-132080000D03*
X137160000Y-127000000D03*
X137160000Y-132080000D03*
X139700000Y-127000000D03*
X139700000Y-132080000D03*
X142240000Y-127000000D03*
X142240000Y-132080000D03*
X144780000Y-127000000D03*
X144780000Y-132080000D03*
X147320000Y-127000000D03*
X147320000Y-132080000D03*
X149860000Y-127000000D03*
X149860000Y-132080000D03*
X152400000Y-127000000D03*
X152400000Y-132080000D03*
X154940000Y-127000000D03*
X154940000Y-132080000D03*
X157480000Y-127000000D03*
X157480000Y-132080000D03*
X160020000Y-127000000D03*
X160020000Y-132080000D03*
X162560000Y-127000000D03*
X162560000Y-132080000D03*
X165100000Y-127000000D03*
X165100000Y-132080000D03*
X167640000Y-127000000D03*
X167640000Y-132080000D03*
X170180000Y-127000000D03*
X170180000Y-132080000D03*
X172720000Y-127000000D03*
X172720000Y-132080000D03*
D17*
X137160000Y-114300000D03*
D18*
X129540000Y-99060000D03*
X137160000Y-111760000D03*
X129540000Y-101600000D03*
X137160000Y-109220000D03*
X129540000Y-104140000D03*
X137160000Y-106680000D03*
X129540000Y-106680000D03*
X137160000Y-104140000D03*
X129540000Y-109220000D03*
X137160000Y-101600000D03*
X129540000Y-111760000D03*
X137160000Y-99060000D03*
X129540000Y-114300000D03*
D17*
X182880000Y-114300000D03*
D18*
X167640000Y-81280000D03*
X182880000Y-111760000D03*
X167640000Y-83820000D03*
X182880000Y-109220000D03*
X167640000Y-86360000D03*
X182880000Y-106680000D03*
X167640000Y-88900000D03*
X182880000Y-104140000D03*
X167640000Y-91440000D03*
X182880000Y-101600000D03*
X167640000Y-93980000D03*
X182880000Y-99060000D03*
X167640000Y-96520000D03*
X182880000Y-96520000D03*
X167640000Y-99060000D03*
X182880000Y-93980000D03*
X167640000Y-101600000D03*
X182880000Y-91440000D03*
X167640000Y-104140000D03*
X182880000Y-88900000D03*
X167640000Y-106680000D03*
X182880000Y-86360000D03*
X167640000Y-109220000D03*
X182880000Y-83820000D03*
X167640000Y-111760000D03*
X182880000Y-81280000D03*
X167640000Y-114300000D03*
M02*
