G04 #@! TF.FileFunction,Soldermask,Top*
%FSLAX46Y46*%
G04 Gerber Fmt 4.6, Leading zero omitted, Abs format (unit mm)*
G04 Created by KiCad (PCBNEW 4.0.5) date 11/19/17 14:30:07*
%MOMM*%
%LPD*%
G01*
G04 APERTURE LIST*
%ADD10C,0.100000*%
%ADD11C,0.010000*%
%ADD12C,2.200000*%
%ADD13R,2.200000X2.200000*%
%ADD14R,2.279600X2.279600*%
%ADD15C,2.279600*%
%ADD16C,5.480000*%
%ADD17O,2.127200X3.200000*%
%ADD18R,2.000000X2.000000*%
%ADD19O,2.000000X2.000000*%
%ADD20C,0.880000*%
G04 APERTURE END LIST*
D10*
D11*
G36*
X149961600Y-103614205D02*
X149961548Y-103781950D01*
X149961366Y-103926170D01*
X149961007Y-104048741D01*
X149960428Y-104151538D01*
X149959586Y-104236438D01*
X149958434Y-104305316D01*
X149956930Y-104360047D01*
X149955029Y-104402506D01*
X149952688Y-104434570D01*
X149949860Y-104458113D01*
X149946504Y-104475011D01*
X149942574Y-104487140D01*
X149940939Y-104490851D01*
X149914338Y-104533992D01*
X149878560Y-104566380D01*
X149829709Y-104589815D01*
X149763893Y-104606101D01*
X149677217Y-104617040D01*
X149666325Y-104617988D01*
X149567900Y-104626251D01*
X149567900Y-104395687D01*
X149602825Y-104391668D01*
X149637750Y-104387650D01*
X149641019Y-103584375D01*
X149644289Y-102781100D01*
X149961600Y-102781100D01*
X149961600Y-103614205D01*
X149961600Y-103614205D01*
G37*
X149961600Y-103614205D02*
X149961548Y-103781950D01*
X149961366Y-103926170D01*
X149961007Y-104048741D01*
X149960428Y-104151538D01*
X149959586Y-104236438D01*
X149958434Y-104305316D01*
X149956930Y-104360047D01*
X149955029Y-104402506D01*
X149952688Y-104434570D01*
X149949860Y-104458113D01*
X149946504Y-104475011D01*
X149942574Y-104487140D01*
X149940939Y-104490851D01*
X149914338Y-104533992D01*
X149878560Y-104566380D01*
X149829709Y-104589815D01*
X149763893Y-104606101D01*
X149677217Y-104617040D01*
X149666325Y-104617988D01*
X149567900Y-104626251D01*
X149567900Y-104395687D01*
X149602825Y-104391668D01*
X149637750Y-104387650D01*
X149641019Y-103584375D01*
X149644289Y-102781100D01*
X149961600Y-102781100D01*
X149961600Y-103614205D01*
G36*
X149078950Y-102775083D02*
X149146522Y-102775777D01*
X149195075Y-102778127D01*
X149230976Y-102783057D01*
X149260595Y-102791488D01*
X149290302Y-102804345D01*
X149294314Y-102806298D01*
X149376716Y-102859338D01*
X149440976Y-102929158D01*
X149487788Y-103016728D01*
X149516928Y-103118248D01*
X149521676Y-103156244D01*
X149525144Y-103215757D01*
X149527349Y-103297619D01*
X149528309Y-103402664D01*
X149528040Y-103531724D01*
X149527248Y-103625650D01*
X149525964Y-103742355D01*
X149524672Y-103836619D01*
X149523175Y-103911401D01*
X149521279Y-103969657D01*
X149518789Y-104014345D01*
X149515511Y-104048425D01*
X149511249Y-104074854D01*
X149505810Y-104096590D01*
X149498998Y-104116591D01*
X149494100Y-104129168D01*
X149445730Y-104219813D01*
X149380840Y-104291212D01*
X149299662Y-104343207D01*
X149202431Y-104375643D01*
X149107773Y-104387696D01*
X149050631Y-104388798D01*
X148996084Y-104386938D01*
X148954674Y-104382523D01*
X148950109Y-104381636D01*
X148853646Y-104348579D01*
X148770135Y-104294529D01*
X148702179Y-104221691D01*
X148652382Y-104132266D01*
X148650777Y-104128307D01*
X148643118Y-104108084D01*
X148636932Y-104087773D01*
X148632027Y-104064422D01*
X148628210Y-104035076D01*
X148625288Y-103996781D01*
X148623069Y-103946583D01*
X148621358Y-103881529D01*
X148619964Y-103798664D01*
X148618693Y-103695036D01*
X148617951Y-103625650D01*
X148617662Y-103585201D01*
X148932919Y-103585201D01*
X148933041Y-103701561D01*
X148933482Y-103795322D01*
X148934376Y-103869282D01*
X148935858Y-103926243D01*
X148938060Y-103969003D01*
X148941117Y-104000362D01*
X148945161Y-104023120D01*
X148950327Y-104040076D01*
X148955144Y-104050923D01*
X148990590Y-104096857D01*
X149038776Y-104122450D01*
X149072600Y-104126925D01*
X149108910Y-104121068D01*
X149136100Y-104111061D01*
X149162994Y-104089099D01*
X149187334Y-104056042D01*
X149190055Y-104050923D01*
X149196173Y-104036523D01*
X149201068Y-104018473D01*
X149204872Y-103993974D01*
X149207719Y-103960227D01*
X149209743Y-103914431D01*
X149211077Y-103853787D01*
X149211855Y-103775496D01*
X149212210Y-103676756D01*
X149212280Y-103585201D01*
X149211857Y-103456633D01*
X149210600Y-103347172D01*
X149208549Y-103258120D01*
X149205741Y-103190776D01*
X149202215Y-103146440D01*
X149198754Y-103128001D01*
X149170576Y-103076029D01*
X149132052Y-103045951D01*
X149079708Y-103035211D01*
X149072600Y-103035100D01*
X149018432Y-103043767D01*
X148978487Y-103071476D01*
X148949289Y-103120783D01*
X148946445Y-103128001D01*
X148942350Y-103152161D01*
X148938941Y-103200412D01*
X148936256Y-103271455D01*
X148934334Y-103363990D01*
X148933213Y-103476717D01*
X148932919Y-103585201D01*
X148617662Y-103585201D01*
X148616917Y-103481047D01*
X148617101Y-103360983D01*
X148618521Y-103264625D01*
X148621192Y-103191141D01*
X148625133Y-103139699D01*
X148628271Y-103118248D01*
X148657671Y-103015366D01*
X148702529Y-102931636D01*
X148764378Y-102864967D01*
X148844748Y-102813267D01*
X148855601Y-102808021D01*
X148888621Y-102793608D01*
X148918814Y-102784080D01*
X148952784Y-102778463D01*
X148997138Y-102775784D01*
X149058481Y-102775067D01*
X149078950Y-102775083D01*
X149078950Y-102775083D01*
G37*
X149078950Y-102775083D02*
X149146522Y-102775777D01*
X149195075Y-102778127D01*
X149230976Y-102783057D01*
X149260595Y-102791488D01*
X149290302Y-102804345D01*
X149294314Y-102806298D01*
X149376716Y-102859338D01*
X149440976Y-102929158D01*
X149487788Y-103016728D01*
X149516928Y-103118248D01*
X149521676Y-103156244D01*
X149525144Y-103215757D01*
X149527349Y-103297619D01*
X149528309Y-103402664D01*
X149528040Y-103531724D01*
X149527248Y-103625650D01*
X149525964Y-103742355D01*
X149524672Y-103836619D01*
X149523175Y-103911401D01*
X149521279Y-103969657D01*
X149518789Y-104014345D01*
X149515511Y-104048425D01*
X149511249Y-104074854D01*
X149505810Y-104096590D01*
X149498998Y-104116591D01*
X149494100Y-104129168D01*
X149445730Y-104219813D01*
X149380840Y-104291212D01*
X149299662Y-104343207D01*
X149202431Y-104375643D01*
X149107773Y-104387696D01*
X149050631Y-104388798D01*
X148996084Y-104386938D01*
X148954674Y-104382523D01*
X148950109Y-104381636D01*
X148853646Y-104348579D01*
X148770135Y-104294529D01*
X148702179Y-104221691D01*
X148652382Y-104132266D01*
X148650777Y-104128307D01*
X148643118Y-104108084D01*
X148636932Y-104087773D01*
X148632027Y-104064422D01*
X148628210Y-104035076D01*
X148625288Y-103996781D01*
X148623069Y-103946583D01*
X148621358Y-103881529D01*
X148619964Y-103798664D01*
X148618693Y-103695036D01*
X148617951Y-103625650D01*
X148617662Y-103585201D01*
X148932919Y-103585201D01*
X148933041Y-103701561D01*
X148933482Y-103795322D01*
X148934376Y-103869282D01*
X148935858Y-103926243D01*
X148938060Y-103969003D01*
X148941117Y-104000362D01*
X148945161Y-104023120D01*
X148950327Y-104040076D01*
X148955144Y-104050923D01*
X148990590Y-104096857D01*
X149038776Y-104122450D01*
X149072600Y-104126925D01*
X149108910Y-104121068D01*
X149136100Y-104111061D01*
X149162994Y-104089099D01*
X149187334Y-104056042D01*
X149190055Y-104050923D01*
X149196173Y-104036523D01*
X149201068Y-104018473D01*
X149204872Y-103993974D01*
X149207719Y-103960227D01*
X149209743Y-103914431D01*
X149211077Y-103853787D01*
X149211855Y-103775496D01*
X149212210Y-103676756D01*
X149212280Y-103585201D01*
X149211857Y-103456633D01*
X149210600Y-103347172D01*
X149208549Y-103258120D01*
X149205741Y-103190776D01*
X149202215Y-103146440D01*
X149198754Y-103128001D01*
X149170576Y-103076029D01*
X149132052Y-103045951D01*
X149079708Y-103035211D01*
X149072600Y-103035100D01*
X149018432Y-103043767D01*
X148978487Y-103071476D01*
X148949289Y-103120783D01*
X148946445Y-103128001D01*
X148942350Y-103152161D01*
X148938941Y-103200412D01*
X148936256Y-103271455D01*
X148934334Y-103363990D01*
X148933213Y-103476717D01*
X148932919Y-103585201D01*
X148617662Y-103585201D01*
X148616917Y-103481047D01*
X148617101Y-103360983D01*
X148618521Y-103264625D01*
X148621192Y-103191141D01*
X148625133Y-103139699D01*
X148628271Y-103118248D01*
X148657671Y-103015366D01*
X148702529Y-102931636D01*
X148764378Y-102864967D01*
X148844748Y-102813267D01*
X148855601Y-102808021D01*
X148888621Y-102793608D01*
X148918814Y-102784080D01*
X148952784Y-102778463D01*
X148997138Y-102775784D01*
X149058481Y-102775067D01*
X149078950Y-102775083D01*
G36*
X150634680Y-102777032D02*
X150703921Y-102784535D01*
X150758993Y-102799202D01*
X150805371Y-102822708D01*
X150848525Y-102856729D01*
X150865346Y-102872893D01*
X150903082Y-102916499D01*
X150932902Y-102965610D01*
X150955576Y-103023515D01*
X150971875Y-103093502D01*
X150982566Y-103178861D01*
X150988419Y-103282880D01*
X150990204Y-103406575D01*
X150990300Y-103619300D01*
X150406100Y-103619300D01*
X150406100Y-103816780D01*
X150406736Y-103899636D01*
X150408857Y-103961005D01*
X150412781Y-104004773D01*
X150418829Y-104034825D01*
X150425364Y-104051515D01*
X150458698Y-104092095D01*
X150504720Y-104117718D01*
X150555925Y-104126264D01*
X150604807Y-104115617D01*
X150620515Y-104106590D01*
X150648083Y-104079927D01*
X150667259Y-104042317D01*
X150679111Y-103989836D01*
X150684704Y-103918558D01*
X150685500Y-103867357D01*
X150685500Y-103733600D01*
X150994104Y-103733600D01*
X150986961Y-103901875D01*
X150982375Y-103983750D01*
X150975949Y-104046533D01*
X150966776Y-104096514D01*
X150953947Y-104139983D01*
X150951644Y-104146350D01*
X150912429Y-104221785D01*
X150856431Y-104287971D01*
X150789550Y-104338871D01*
X150741455Y-104361463D01*
X150675285Y-104377853D01*
X150595625Y-104387198D01*
X150512667Y-104389111D01*
X150436606Y-104383204D01*
X150394433Y-104374639D01*
X150302737Y-104338707D01*
X150228246Y-104286065D01*
X150168017Y-104214166D01*
X150130562Y-104146350D01*
X150094950Y-104070150D01*
X150094950Y-103581200D01*
X150094979Y-103456879D01*
X150095167Y-103355227D01*
X150095658Y-103273516D01*
X150095807Y-103263292D01*
X150406100Y-103263292D01*
X150406100Y-103378000D01*
X150685500Y-103378000D01*
X150684946Y-103292275D01*
X150680325Y-103199960D01*
X150667133Y-103130049D01*
X150644360Y-103080698D01*
X150610998Y-103050061D01*
X150566038Y-103036295D01*
X150544256Y-103035100D01*
X150493302Y-103040638D01*
X150455679Y-103059000D01*
X150429802Y-103092802D01*
X150414087Y-103144662D01*
X150406948Y-103217199D01*
X150406100Y-103263292D01*
X150095807Y-103263292D01*
X150096600Y-103209013D01*
X150098138Y-103158989D01*
X150100419Y-103120714D01*
X150103590Y-103091457D01*
X150107796Y-103068488D01*
X150113185Y-103049076D01*
X150119901Y-103030492D01*
X150125182Y-103017233D01*
X150168914Y-102938475D01*
X150230446Y-102868819D01*
X150303182Y-102815267D01*
X150326929Y-102803051D01*
X150356538Y-102790974D01*
X150387311Y-102782911D01*
X150425333Y-102778083D01*
X150476691Y-102775710D01*
X150545800Y-102775015D01*
X150634680Y-102777032D01*
X150634680Y-102777032D01*
G37*
X150634680Y-102777032D02*
X150703921Y-102784535D01*
X150758993Y-102799202D01*
X150805371Y-102822708D01*
X150848525Y-102856729D01*
X150865346Y-102872893D01*
X150903082Y-102916499D01*
X150932902Y-102965610D01*
X150955576Y-103023515D01*
X150971875Y-103093502D01*
X150982566Y-103178861D01*
X150988419Y-103282880D01*
X150990204Y-103406575D01*
X150990300Y-103619300D01*
X150406100Y-103619300D01*
X150406100Y-103816780D01*
X150406736Y-103899636D01*
X150408857Y-103961005D01*
X150412781Y-104004773D01*
X150418829Y-104034825D01*
X150425364Y-104051515D01*
X150458698Y-104092095D01*
X150504720Y-104117718D01*
X150555925Y-104126264D01*
X150604807Y-104115617D01*
X150620515Y-104106590D01*
X150648083Y-104079927D01*
X150667259Y-104042317D01*
X150679111Y-103989836D01*
X150684704Y-103918558D01*
X150685500Y-103867357D01*
X150685500Y-103733600D01*
X150994104Y-103733600D01*
X150986961Y-103901875D01*
X150982375Y-103983750D01*
X150975949Y-104046533D01*
X150966776Y-104096514D01*
X150953947Y-104139983D01*
X150951644Y-104146350D01*
X150912429Y-104221785D01*
X150856431Y-104287971D01*
X150789550Y-104338871D01*
X150741455Y-104361463D01*
X150675285Y-104377853D01*
X150595625Y-104387198D01*
X150512667Y-104389111D01*
X150436606Y-104383204D01*
X150394433Y-104374639D01*
X150302737Y-104338707D01*
X150228246Y-104286065D01*
X150168017Y-104214166D01*
X150130562Y-104146350D01*
X150094950Y-104070150D01*
X150094950Y-103581200D01*
X150094979Y-103456879D01*
X150095167Y-103355227D01*
X150095658Y-103273516D01*
X150095807Y-103263292D01*
X150406100Y-103263292D01*
X150406100Y-103378000D01*
X150685500Y-103378000D01*
X150684946Y-103292275D01*
X150680325Y-103199960D01*
X150667133Y-103130049D01*
X150644360Y-103080698D01*
X150610998Y-103050061D01*
X150566038Y-103036295D01*
X150544256Y-103035100D01*
X150493302Y-103040638D01*
X150455679Y-103059000D01*
X150429802Y-103092802D01*
X150414087Y-103144662D01*
X150406948Y-103217199D01*
X150406100Y-103263292D01*
X150095807Y-103263292D01*
X150096600Y-103209013D01*
X150098138Y-103158989D01*
X150100419Y-103120714D01*
X150103590Y-103091457D01*
X150107796Y-103068488D01*
X150113185Y-103049076D01*
X150119901Y-103030492D01*
X150125182Y-103017233D01*
X150168914Y-102938475D01*
X150230446Y-102868819D01*
X150303182Y-102815267D01*
X150326929Y-102803051D01*
X150356538Y-102790974D01*
X150387311Y-102782911D01*
X150425333Y-102778083D01*
X150476691Y-102775710D01*
X150545800Y-102775015D01*
X150634680Y-102777032D01*
G36*
X151561800Y-102775468D02*
X151644135Y-102777224D01*
X151707052Y-102782850D01*
X151756450Y-102794157D01*
X151798228Y-102812955D01*
X151838284Y-102841056D01*
X151872368Y-102870820D01*
X151917889Y-102920206D01*
X151950732Y-102975038D01*
X151972765Y-103040452D01*
X151985856Y-103121584D01*
X151990979Y-103197025D01*
X151996796Y-103339900D01*
X151688800Y-103339900D01*
X151688800Y-103237669D01*
X151684282Y-103158582D01*
X151670229Y-103101057D01*
X151645887Y-103062820D01*
X151626003Y-103048176D01*
X151587653Y-103037346D01*
X151540314Y-103036264D01*
X151496645Y-103044465D01*
X151477476Y-103053644D01*
X151463216Y-103064820D01*
X151451599Y-103078086D01*
X151442379Y-103095958D01*
X151435314Y-103120950D01*
X151430160Y-103155579D01*
X151426673Y-103202360D01*
X151424609Y-103263807D01*
X151423724Y-103342438D01*
X151423776Y-103440766D01*
X151424520Y-103561307D01*
X151424803Y-103597393D01*
X151428450Y-104050550D01*
X151463663Y-104085750D01*
X151492047Y-104108651D01*
X151523784Y-104118929D01*
X151560755Y-104120950D01*
X151609272Y-104115982D01*
X151645896Y-104099334D01*
X151672023Y-104068383D01*
X151689053Y-104020511D01*
X151698384Y-103953096D01*
X151701417Y-103863519D01*
X151701429Y-103857425D01*
X151701500Y-103733600D01*
X151996424Y-103733600D01*
X151991315Y-103914575D01*
X151988871Y-103988041D01*
X151985723Y-104042014D01*
X151980930Y-104082397D01*
X151973551Y-104115096D01*
X151962645Y-104146015D01*
X151949707Y-104175728D01*
X151900136Y-104257806D01*
X151835589Y-104319925D01*
X151757007Y-104361188D01*
X151753994Y-104362250D01*
X151689284Y-104377972D01*
X151611072Y-104386990D01*
X151529461Y-104388938D01*
X151454555Y-104383450D01*
X151410433Y-104374686D01*
X151314687Y-104335704D01*
X151235511Y-104277862D01*
X151174135Y-104202355D01*
X151131792Y-104110378D01*
X151129136Y-104101924D01*
X151122436Y-104078544D01*
X151117047Y-104055163D01*
X151112854Y-104028897D01*
X151109743Y-103996863D01*
X151107600Y-103956178D01*
X151106310Y-103903958D01*
X151105759Y-103837320D01*
X151105832Y-103753381D01*
X151106416Y-103649257D01*
X151107182Y-103548395D01*
X151110950Y-103079550D01*
X151143984Y-103009120D01*
X151193402Y-102924199D01*
X151253754Y-102859581D01*
X151328880Y-102811178D01*
X151330893Y-102810184D01*
X151362937Y-102795273D01*
X151391226Y-102785284D01*
X151422054Y-102779271D01*
X151461711Y-102776288D01*
X151516491Y-102775389D01*
X151561800Y-102775468D01*
X151561800Y-102775468D01*
G37*
X151561800Y-102775468D02*
X151644135Y-102777224D01*
X151707052Y-102782850D01*
X151756450Y-102794157D01*
X151798228Y-102812955D01*
X151838284Y-102841056D01*
X151872368Y-102870820D01*
X151917889Y-102920206D01*
X151950732Y-102975038D01*
X151972765Y-103040452D01*
X151985856Y-103121584D01*
X151990979Y-103197025D01*
X151996796Y-103339900D01*
X151688800Y-103339900D01*
X151688800Y-103237669D01*
X151684282Y-103158582D01*
X151670229Y-103101057D01*
X151645887Y-103062820D01*
X151626003Y-103048176D01*
X151587653Y-103037346D01*
X151540314Y-103036264D01*
X151496645Y-103044465D01*
X151477476Y-103053644D01*
X151463216Y-103064820D01*
X151451599Y-103078086D01*
X151442379Y-103095958D01*
X151435314Y-103120950D01*
X151430160Y-103155579D01*
X151426673Y-103202360D01*
X151424609Y-103263807D01*
X151423724Y-103342438D01*
X151423776Y-103440766D01*
X151424520Y-103561307D01*
X151424803Y-103597393D01*
X151428450Y-104050550D01*
X151463663Y-104085750D01*
X151492047Y-104108651D01*
X151523784Y-104118929D01*
X151560755Y-104120950D01*
X151609272Y-104115982D01*
X151645896Y-104099334D01*
X151672023Y-104068383D01*
X151689053Y-104020511D01*
X151698384Y-103953096D01*
X151701417Y-103863519D01*
X151701429Y-103857425D01*
X151701500Y-103733600D01*
X151996424Y-103733600D01*
X151991315Y-103914575D01*
X151988871Y-103988041D01*
X151985723Y-104042014D01*
X151980930Y-104082397D01*
X151973551Y-104115096D01*
X151962645Y-104146015D01*
X151949707Y-104175728D01*
X151900136Y-104257806D01*
X151835589Y-104319925D01*
X151757007Y-104361188D01*
X151753994Y-104362250D01*
X151689284Y-104377972D01*
X151611072Y-104386990D01*
X151529461Y-104388938D01*
X151454555Y-104383450D01*
X151410433Y-104374686D01*
X151314687Y-104335704D01*
X151235511Y-104277862D01*
X151174135Y-104202355D01*
X151131792Y-104110378D01*
X151129136Y-104101924D01*
X151122436Y-104078544D01*
X151117047Y-104055163D01*
X151112854Y-104028897D01*
X151109743Y-103996863D01*
X151107600Y-103956178D01*
X151106310Y-103903958D01*
X151105759Y-103837320D01*
X151105832Y-103753381D01*
X151106416Y-103649257D01*
X151107182Y-103548395D01*
X151110950Y-103079550D01*
X151143984Y-103009120D01*
X151193402Y-102924199D01*
X151253754Y-102859581D01*
X151328880Y-102811178D01*
X151330893Y-102810184D01*
X151362937Y-102795273D01*
X151391226Y-102785284D01*
X151422054Y-102779271D01*
X151461711Y-102776288D01*
X151516491Y-102775389D01*
X151561800Y-102775468D01*
G36*
X153325257Y-102472219D02*
X153388068Y-102487375D01*
X153441521Y-102512313D01*
X153490726Y-102548309D01*
X153494961Y-102551994D01*
X153538491Y-102594949D01*
X153570255Y-102639202D01*
X153592167Y-102690003D01*
X153606138Y-102752600D01*
X153614080Y-102832243D01*
X153616595Y-102885875D01*
X153622203Y-103047800D01*
X153327100Y-103047800D01*
X153327029Y-102962075D01*
X153321898Y-102875242D01*
X153305985Y-102810257D01*
X153278264Y-102765514D01*
X153237709Y-102739409D01*
X153183296Y-102730338D01*
X153178890Y-102730300D01*
X153118295Y-102739479D01*
X153074471Y-102767306D01*
X153047049Y-102814218D01*
X153035662Y-102880648D01*
X153035278Y-102900470D01*
X153037783Y-102936869D01*
X153046205Y-102971738D01*
X153062514Y-103007894D01*
X153088683Y-103048157D01*
X153126685Y-103095344D01*
X153178490Y-103152273D01*
X153246072Y-103221763D01*
X153292665Y-103268329D01*
X153382463Y-103358733D01*
X153455096Y-103435446D01*
X153512455Y-103501578D01*
X153556427Y-103560236D01*
X153588901Y-103614527D01*
X153611767Y-103667559D01*
X153626914Y-103722439D01*
X153636230Y-103782275D01*
X153641110Y-103841578D01*
X153641245Y-103973852D01*
X153624495Y-104087245D01*
X153590609Y-104182078D01*
X153539332Y-104258668D01*
X153470411Y-104317334D01*
X153383592Y-104358396D01*
X153278622Y-104382171D01*
X153206450Y-104388287D01*
X153147161Y-104389083D01*
X153090352Y-104387122D01*
X153045975Y-104382823D01*
X153036673Y-104381160D01*
X152945813Y-104350759D01*
X152866643Y-104302128D01*
X152802926Y-104238476D01*
X152758425Y-104163017D01*
X152748257Y-104134970D01*
X152738953Y-104091528D01*
X152730822Y-104027742D01*
X152724408Y-103948658D01*
X152721071Y-103882825D01*
X152713810Y-103695500D01*
X153035000Y-103695500D01*
X153035000Y-103866749D01*
X153035172Y-103935777D01*
X153036233Y-103984324D01*
X153039002Y-104017308D01*
X153044296Y-104039647D01*
X153052934Y-104056261D01*
X153065734Y-104072067D01*
X153069925Y-104076740D01*
X153115814Y-104111436D01*
X153167609Y-104125015D01*
X153219277Y-104117914D01*
X153264786Y-104090567D01*
X153288946Y-104060941D01*
X153304527Y-104019077D01*
X153313157Y-103961791D01*
X153314609Y-103898156D01*
X153308652Y-103837244D01*
X153295788Y-103789840D01*
X153281597Y-103767884D01*
X153252094Y-103731054D01*
X153209962Y-103682406D01*
X153157883Y-103624992D01*
X153098537Y-103561869D01*
X153065675Y-103527779D01*
X152976482Y-103434859D01*
X152904228Y-103355967D01*
X152847232Y-103287859D01*
X152803814Y-103227287D01*
X152772292Y-103171005D01*
X152750984Y-103115768D01*
X152738211Y-103058327D01*
X152732289Y-102995438D01*
X152731540Y-102923854D01*
X152732555Y-102884511D01*
X152738241Y-102794227D01*
X152749691Y-102723518D01*
X152768733Y-102666866D01*
X152797191Y-102618755D01*
X152834693Y-102575853D01*
X152883647Y-102533272D01*
X152935583Y-102502942D01*
X152996204Y-102482884D01*
X153071216Y-102471121D01*
X153151111Y-102466147D01*
X153247975Y-102465568D01*
X153325257Y-102472219D01*
X153325257Y-102472219D01*
G37*
X153325257Y-102472219D02*
X153388068Y-102487375D01*
X153441521Y-102512313D01*
X153490726Y-102548309D01*
X153494961Y-102551994D01*
X153538491Y-102594949D01*
X153570255Y-102639202D01*
X153592167Y-102690003D01*
X153606138Y-102752600D01*
X153614080Y-102832243D01*
X153616595Y-102885875D01*
X153622203Y-103047800D01*
X153327100Y-103047800D01*
X153327029Y-102962075D01*
X153321898Y-102875242D01*
X153305985Y-102810257D01*
X153278264Y-102765514D01*
X153237709Y-102739409D01*
X153183296Y-102730338D01*
X153178890Y-102730300D01*
X153118295Y-102739479D01*
X153074471Y-102767306D01*
X153047049Y-102814218D01*
X153035662Y-102880648D01*
X153035278Y-102900470D01*
X153037783Y-102936869D01*
X153046205Y-102971738D01*
X153062514Y-103007894D01*
X153088683Y-103048157D01*
X153126685Y-103095344D01*
X153178490Y-103152273D01*
X153246072Y-103221763D01*
X153292665Y-103268329D01*
X153382463Y-103358733D01*
X153455096Y-103435446D01*
X153512455Y-103501578D01*
X153556427Y-103560236D01*
X153588901Y-103614527D01*
X153611767Y-103667559D01*
X153626914Y-103722439D01*
X153636230Y-103782275D01*
X153641110Y-103841578D01*
X153641245Y-103973852D01*
X153624495Y-104087245D01*
X153590609Y-104182078D01*
X153539332Y-104258668D01*
X153470411Y-104317334D01*
X153383592Y-104358396D01*
X153278622Y-104382171D01*
X153206450Y-104388287D01*
X153147161Y-104389083D01*
X153090352Y-104387122D01*
X153045975Y-104382823D01*
X153036673Y-104381160D01*
X152945813Y-104350759D01*
X152866643Y-104302128D01*
X152802926Y-104238476D01*
X152758425Y-104163017D01*
X152748257Y-104134970D01*
X152738953Y-104091528D01*
X152730822Y-104027742D01*
X152724408Y-103948658D01*
X152721071Y-103882825D01*
X152713810Y-103695500D01*
X153035000Y-103695500D01*
X153035000Y-103866749D01*
X153035172Y-103935777D01*
X153036233Y-103984324D01*
X153039002Y-104017308D01*
X153044296Y-104039647D01*
X153052934Y-104056261D01*
X153065734Y-104072067D01*
X153069925Y-104076740D01*
X153115814Y-104111436D01*
X153167609Y-104125015D01*
X153219277Y-104117914D01*
X153264786Y-104090567D01*
X153288946Y-104060941D01*
X153304527Y-104019077D01*
X153313157Y-103961791D01*
X153314609Y-103898156D01*
X153308652Y-103837244D01*
X153295788Y-103789840D01*
X153281597Y-103767884D01*
X153252094Y-103731054D01*
X153209962Y-103682406D01*
X153157883Y-103624992D01*
X153098537Y-103561869D01*
X153065675Y-103527779D01*
X152976482Y-103434859D01*
X152904228Y-103355967D01*
X152847232Y-103287859D01*
X152803814Y-103227287D01*
X152772292Y-103171005D01*
X152750984Y-103115768D01*
X152738211Y-103058327D01*
X152732289Y-102995438D01*
X152731540Y-102923854D01*
X152732555Y-102884511D01*
X152738241Y-102794227D01*
X152749691Y-102723518D01*
X152768733Y-102666866D01*
X152797191Y-102618755D01*
X152834693Y-102575853D01*
X152883647Y-102533272D01*
X152935583Y-102502942D01*
X152996204Y-102482884D01*
X153071216Y-102471121D01*
X153151111Y-102466147D01*
X153247975Y-102465568D01*
X153325257Y-102472219D01*
G36*
X156186325Y-102470229D02*
X156237972Y-102471576D01*
X156275157Y-102474757D01*
X156303352Y-102480535D01*
X156328023Y-102489675D01*
X156354640Y-102502943D01*
X156356050Y-102503690D01*
X156419561Y-102544832D01*
X156470093Y-102595271D01*
X156508701Y-102657676D01*
X156536444Y-102734717D01*
X156554379Y-102829061D01*
X156563564Y-102943378D01*
X156565348Y-103031925D01*
X156565600Y-103162100D01*
X156260800Y-103162100D01*
X156260780Y-103006525D01*
X156259932Y-102933929D01*
X156257018Y-102881401D01*
X156251450Y-102843650D01*
X156242641Y-102815387D01*
X156238555Y-102806500D01*
X156205143Y-102764573D01*
X156159782Y-102740562D01*
X156108519Y-102734460D01*
X156057401Y-102746257D01*
X156012476Y-102775947D01*
X155988268Y-102806830D01*
X155981843Y-102818762D01*
X155976546Y-102832276D01*
X155972245Y-102849863D01*
X155968809Y-102874012D01*
X155966105Y-102907217D01*
X155964002Y-102951967D01*
X155962368Y-103010753D01*
X155961070Y-103086068D01*
X155959978Y-103180401D01*
X155958960Y-103296244D01*
X155958370Y-103371650D01*
X155957699Y-103487101D01*
X155957461Y-103597003D01*
X155957633Y-103698220D01*
X155958194Y-103787618D01*
X155959121Y-103862062D01*
X155960392Y-103918418D01*
X155961983Y-103953551D01*
X155962579Y-103959981D01*
X155979615Y-104027312D01*
X156012319Y-104074828D01*
X156061205Y-104103100D01*
X156099038Y-104111122D01*
X156148341Y-104112058D01*
X156184674Y-104100472D01*
X156191762Y-104096185D01*
X156215616Y-104076887D01*
X156233435Y-104052111D01*
X156246032Y-104018177D01*
X156254225Y-103971406D01*
X156258829Y-103908117D01*
X156260661Y-103824631D01*
X156260800Y-103784807D01*
X156260800Y-103581200D01*
X156414865Y-103581200D01*
X156568930Y-103581199D01*
X156562243Y-103819325D01*
X156558359Y-103924383D01*
X156552711Y-104008155D01*
X156544438Y-104074738D01*
X156532684Y-104128229D01*
X156516588Y-104172725D01*
X156495293Y-104212324D01*
X156473199Y-104244214D01*
X156420637Y-104296471D01*
X156348279Y-104340938D01*
X156303158Y-104362031D01*
X156263887Y-104375327D01*
X156220956Y-104383044D01*
X156164857Y-104387400D01*
X156145079Y-104388338D01*
X156065285Y-104388874D01*
X155996796Y-104383583D01*
X155960870Y-104376925D01*
X155862456Y-104340080D01*
X155781034Y-104284467D01*
X155716944Y-104210501D01*
X155670528Y-104118594D01*
X155642127Y-104009160D01*
X155638764Y-103986179D01*
X155635500Y-103947190D01*
X155632752Y-103886945D01*
X155630520Y-103809162D01*
X155628804Y-103717560D01*
X155627606Y-103615856D01*
X155626925Y-103507769D01*
X155626763Y-103397018D01*
X155627120Y-103287319D01*
X155627998Y-103182393D01*
X155629395Y-103085956D01*
X155631314Y-103001727D01*
X155633755Y-102933425D01*
X155636719Y-102884768D01*
X155638559Y-102867813D01*
X155664191Y-102753079D01*
X155705446Y-102657799D01*
X155763035Y-102580864D01*
X155837667Y-102521169D01*
X155873450Y-102501374D01*
X155900946Y-102488722D01*
X155927084Y-102479996D01*
X155957393Y-102474476D01*
X155997401Y-102471443D01*
X156052639Y-102470176D01*
X156114750Y-102469950D01*
X156186325Y-102470229D01*
X156186325Y-102470229D01*
G37*
X156186325Y-102470229D02*
X156237972Y-102471576D01*
X156275157Y-102474757D01*
X156303352Y-102480535D01*
X156328023Y-102489675D01*
X156354640Y-102502943D01*
X156356050Y-102503690D01*
X156419561Y-102544832D01*
X156470093Y-102595271D01*
X156508701Y-102657676D01*
X156536444Y-102734717D01*
X156554379Y-102829061D01*
X156563564Y-102943378D01*
X156565348Y-103031925D01*
X156565600Y-103162100D01*
X156260800Y-103162100D01*
X156260780Y-103006525D01*
X156259932Y-102933929D01*
X156257018Y-102881401D01*
X156251450Y-102843650D01*
X156242641Y-102815387D01*
X156238555Y-102806500D01*
X156205143Y-102764573D01*
X156159782Y-102740562D01*
X156108519Y-102734460D01*
X156057401Y-102746257D01*
X156012476Y-102775947D01*
X155988268Y-102806830D01*
X155981843Y-102818762D01*
X155976546Y-102832276D01*
X155972245Y-102849863D01*
X155968809Y-102874012D01*
X155966105Y-102907217D01*
X155964002Y-102951967D01*
X155962368Y-103010753D01*
X155961070Y-103086068D01*
X155959978Y-103180401D01*
X155958960Y-103296244D01*
X155958370Y-103371650D01*
X155957699Y-103487101D01*
X155957461Y-103597003D01*
X155957633Y-103698220D01*
X155958194Y-103787618D01*
X155959121Y-103862062D01*
X155960392Y-103918418D01*
X155961983Y-103953551D01*
X155962579Y-103959981D01*
X155979615Y-104027312D01*
X156012319Y-104074828D01*
X156061205Y-104103100D01*
X156099038Y-104111122D01*
X156148341Y-104112058D01*
X156184674Y-104100472D01*
X156191762Y-104096185D01*
X156215616Y-104076887D01*
X156233435Y-104052111D01*
X156246032Y-104018177D01*
X156254225Y-103971406D01*
X156258829Y-103908117D01*
X156260661Y-103824631D01*
X156260800Y-103784807D01*
X156260800Y-103581200D01*
X156414865Y-103581200D01*
X156568930Y-103581199D01*
X156562243Y-103819325D01*
X156558359Y-103924383D01*
X156552711Y-104008155D01*
X156544438Y-104074738D01*
X156532684Y-104128229D01*
X156516588Y-104172725D01*
X156495293Y-104212324D01*
X156473199Y-104244214D01*
X156420637Y-104296471D01*
X156348279Y-104340938D01*
X156303158Y-104362031D01*
X156263887Y-104375327D01*
X156220956Y-104383044D01*
X156164857Y-104387400D01*
X156145079Y-104388338D01*
X156065285Y-104388874D01*
X155996796Y-104383583D01*
X155960870Y-104376925D01*
X155862456Y-104340080D01*
X155781034Y-104284467D01*
X155716944Y-104210501D01*
X155670528Y-104118594D01*
X155642127Y-104009160D01*
X155638764Y-103986179D01*
X155635500Y-103947190D01*
X155632752Y-103886945D01*
X155630520Y-103809162D01*
X155628804Y-103717560D01*
X155627606Y-103615856D01*
X155626925Y-103507769D01*
X155626763Y-103397018D01*
X155627120Y-103287319D01*
X155627998Y-103182393D01*
X155629395Y-103085956D01*
X155631314Y-103001727D01*
X155633755Y-102933425D01*
X155636719Y-102884768D01*
X155638559Y-102867813D01*
X155664191Y-102753079D01*
X155705446Y-102657799D01*
X155763035Y-102580864D01*
X155837667Y-102521169D01*
X155873450Y-102501374D01*
X155900946Y-102488722D01*
X155927084Y-102479996D01*
X155957393Y-102474476D01*
X155997401Y-102471443D01*
X156052639Y-102470176D01*
X156114750Y-102469950D01*
X156186325Y-102470229D01*
G36*
X157305764Y-102473600D02*
X157373767Y-102491536D01*
X157433340Y-102520272D01*
X157447309Y-102529116D01*
X157500693Y-102573234D01*
X157542099Y-102628345D01*
X157572467Y-102697188D01*
X157592738Y-102782503D01*
X157603851Y-102887029D01*
X157606801Y-102993825D01*
X157607000Y-103162100D01*
X157304119Y-103162100D01*
X157299984Y-102984552D01*
X157298175Y-102914077D01*
X157296001Y-102864277D01*
X157292591Y-102830434D01*
X157287070Y-102807828D01*
X157278567Y-102791740D01*
X157266209Y-102777451D01*
X157260636Y-102771827D01*
X157232708Y-102749184D01*
X157201615Y-102738857D01*
X157162455Y-102736650D01*
X157120065Y-102739319D01*
X157090269Y-102750648D01*
X157060527Y-102775617D01*
X157057969Y-102778159D01*
X157016450Y-102819669D01*
X157012568Y-103394109D01*
X157011779Y-103553948D01*
X157011748Y-103689090D01*
X157012487Y-103800228D01*
X157014008Y-103888053D01*
X157016322Y-103953257D01*
X157019440Y-103996534D01*
X157022785Y-104016782D01*
X157048047Y-104063772D01*
X157088137Y-104095964D01*
X157136968Y-104112546D01*
X157188449Y-104112706D01*
X157236495Y-104095632D01*
X157275015Y-104060511D01*
X157281051Y-104051233D01*
X157289072Y-104033599D01*
X157294844Y-104009363D01*
X157298704Y-103974506D01*
X157300986Y-103925007D01*
X157302028Y-103856848D01*
X157302200Y-103798315D01*
X157302200Y-103581200D01*
X157609296Y-103581200D01*
X157603953Y-103832025D01*
X157601108Y-103934255D01*
X157596773Y-104015170D01*
X157589946Y-104078851D01*
X157579625Y-104129378D01*
X157564809Y-104170830D01*
X157544494Y-104207289D01*
X157517681Y-104242835D01*
X157497344Y-104266214D01*
X157439510Y-104318336D01*
X157371852Y-104354851D01*
X157289929Y-104377509D01*
X157189300Y-104388060D01*
X157187900Y-104388123D01*
X157129702Y-104388973D01*
X157073709Y-104386880D01*
X157030463Y-104382293D01*
X157024473Y-104381158D01*
X156925686Y-104348340D01*
X156842044Y-104295461D01*
X156774495Y-104223522D01*
X156723987Y-104133524D01*
X156692255Y-104030317D01*
X156688625Y-103998480D01*
X156685746Y-103941940D01*
X156683629Y-103861382D01*
X156682283Y-103757492D01*
X156681719Y-103630957D01*
X156681948Y-103482462D01*
X156682474Y-103382617D01*
X156683388Y-103245793D01*
X156684278Y-103131928D01*
X156685268Y-103038582D01*
X156686481Y-102963314D01*
X156688040Y-102903685D01*
X156690068Y-102857253D01*
X156692687Y-102821579D01*
X156696022Y-102794222D01*
X156700195Y-102772742D01*
X156705330Y-102754699D01*
X156711549Y-102737651D01*
X156715507Y-102727739D01*
X156757481Y-102649481D01*
X156814521Y-102579699D01*
X156880697Y-102524842D01*
X156924001Y-102501026D01*
X156966144Y-102485475D01*
X157013075Y-102475184D01*
X157072483Y-102468803D01*
X157123450Y-102466029D01*
X157224077Y-102465438D01*
X157305764Y-102473600D01*
X157305764Y-102473600D01*
G37*
X157305764Y-102473600D02*
X157373767Y-102491536D01*
X157433340Y-102520272D01*
X157447309Y-102529116D01*
X157500693Y-102573234D01*
X157542099Y-102628345D01*
X157572467Y-102697188D01*
X157592738Y-102782503D01*
X157603851Y-102887029D01*
X157606801Y-102993825D01*
X157607000Y-103162100D01*
X157304119Y-103162100D01*
X157299984Y-102984552D01*
X157298175Y-102914077D01*
X157296001Y-102864277D01*
X157292591Y-102830434D01*
X157287070Y-102807828D01*
X157278567Y-102791740D01*
X157266209Y-102777451D01*
X157260636Y-102771827D01*
X157232708Y-102749184D01*
X157201615Y-102738857D01*
X157162455Y-102736650D01*
X157120065Y-102739319D01*
X157090269Y-102750648D01*
X157060527Y-102775617D01*
X157057969Y-102778159D01*
X157016450Y-102819669D01*
X157012568Y-103394109D01*
X157011779Y-103553948D01*
X157011748Y-103689090D01*
X157012487Y-103800228D01*
X157014008Y-103888053D01*
X157016322Y-103953257D01*
X157019440Y-103996534D01*
X157022785Y-104016782D01*
X157048047Y-104063772D01*
X157088137Y-104095964D01*
X157136968Y-104112546D01*
X157188449Y-104112706D01*
X157236495Y-104095632D01*
X157275015Y-104060511D01*
X157281051Y-104051233D01*
X157289072Y-104033599D01*
X157294844Y-104009363D01*
X157298704Y-103974506D01*
X157300986Y-103925007D01*
X157302028Y-103856848D01*
X157302200Y-103798315D01*
X157302200Y-103581200D01*
X157609296Y-103581200D01*
X157603953Y-103832025D01*
X157601108Y-103934255D01*
X157596773Y-104015170D01*
X157589946Y-104078851D01*
X157579625Y-104129378D01*
X157564809Y-104170830D01*
X157544494Y-104207289D01*
X157517681Y-104242835D01*
X157497344Y-104266214D01*
X157439510Y-104318336D01*
X157371852Y-104354851D01*
X157289929Y-104377509D01*
X157189300Y-104388060D01*
X157187900Y-104388123D01*
X157129702Y-104388973D01*
X157073709Y-104386880D01*
X157030463Y-104382293D01*
X157024473Y-104381158D01*
X156925686Y-104348340D01*
X156842044Y-104295461D01*
X156774495Y-104223522D01*
X156723987Y-104133524D01*
X156692255Y-104030317D01*
X156688625Y-103998480D01*
X156685746Y-103941940D01*
X156683629Y-103861382D01*
X156682283Y-103757492D01*
X156681719Y-103630957D01*
X156681948Y-103482462D01*
X156682474Y-103382617D01*
X156683388Y-103245793D01*
X156684278Y-103131928D01*
X156685268Y-103038582D01*
X156686481Y-102963314D01*
X156688040Y-102903685D01*
X156690068Y-102857253D01*
X156692687Y-102821579D01*
X156696022Y-102794222D01*
X156700195Y-102772742D01*
X156705330Y-102754699D01*
X156711549Y-102737651D01*
X156715507Y-102727739D01*
X156757481Y-102649481D01*
X156814521Y-102579699D01*
X156880697Y-102524842D01*
X156924001Y-102501026D01*
X156966144Y-102485475D01*
X157013075Y-102475184D01*
X157072483Y-102468803D01*
X157123450Y-102466029D01*
X157224077Y-102465438D01*
X157305764Y-102473600D01*
G36*
X159452656Y-102775298D02*
X159501228Y-102777004D01*
X159537025Y-102781122D01*
X159566358Y-102788615D01*
X159595535Y-102800447D01*
X159616240Y-102810347D01*
X159684424Y-102853184D01*
X159737647Y-102908665D01*
X159777249Y-102979370D01*
X159804571Y-103067881D01*
X159820954Y-103176779D01*
X159823655Y-103209725D01*
X159832772Y-103339900D01*
X159514451Y-103339900D01*
X159510050Y-103220249D01*
X159507227Y-103162361D01*
X159502906Y-103123592D01*
X159495636Y-103097663D01*
X159483968Y-103078292D01*
X159474861Y-103067849D01*
X159447713Y-103045839D01*
X159414499Y-103036433D01*
X159385180Y-103035100D01*
X159326517Y-103045083D01*
X159283268Y-103075208D01*
X159257221Y-103119696D01*
X159254359Y-103139640D01*
X159251745Y-103181762D01*
X159249463Y-103242839D01*
X159247597Y-103319649D01*
X159246233Y-103408969D01*
X159245453Y-103507578D01*
X159245300Y-103576084D01*
X159245507Y-103697765D01*
X159246195Y-103796561D01*
X159247459Y-103874985D01*
X159249396Y-103935550D01*
X159252105Y-103980768D01*
X159255680Y-104013153D01*
X159260219Y-104035216D01*
X159263349Y-104044314D01*
X159292927Y-104086516D01*
X159336322Y-104114705D01*
X159386214Y-104126512D01*
X159435284Y-104119566D01*
X159458446Y-104107479D01*
X159485867Y-104083159D01*
X159504890Y-104052023D01*
X159516827Y-104009443D01*
X159522993Y-103950791D01*
X159524700Y-103873930D01*
X159524700Y-103733600D01*
X159829500Y-103733600D01*
X159829403Y-103819325D01*
X159826095Y-103914545D01*
X159817024Y-104007032D01*
X159803148Y-104090146D01*
X159785428Y-104157251D01*
X159777559Y-104177936D01*
X159736676Y-104244918D01*
X159677942Y-104304332D01*
X159608900Y-104349210D01*
X159577970Y-104362287D01*
X159524106Y-104375542D01*
X159455167Y-104384631D01*
X159381228Y-104388933D01*
X159312364Y-104387825D01*
X159263165Y-104381713D01*
X159163901Y-104349028D01*
X159081274Y-104297263D01*
X159015835Y-104226993D01*
X158968135Y-104138797D01*
X158940780Y-104044326D01*
X158936048Y-104005989D01*
X158932570Y-103945522D01*
X158930333Y-103862223D01*
X158929322Y-103755392D01*
X158929523Y-103624325D01*
X158930251Y-103530400D01*
X158931451Y-103412899D01*
X158932660Y-103317866D01*
X158934072Y-103242367D01*
X158935877Y-103183470D01*
X158938268Y-103138243D01*
X158941436Y-103103752D01*
X158945574Y-103077066D01*
X158950874Y-103055253D01*
X158957526Y-103035378D01*
X158963675Y-103019593D01*
X159008452Y-102939332D01*
X159072107Y-102868522D01*
X159148254Y-102814000D01*
X159162750Y-102806465D01*
X159192305Y-102793178D01*
X159220756Y-102784269D01*
X159254244Y-102778868D01*
X159298908Y-102776109D01*
X159360889Y-102775123D01*
X159385000Y-102775040D01*
X159452656Y-102775298D01*
X159452656Y-102775298D01*
G37*
X159452656Y-102775298D02*
X159501228Y-102777004D01*
X159537025Y-102781122D01*
X159566358Y-102788615D01*
X159595535Y-102800447D01*
X159616240Y-102810347D01*
X159684424Y-102853184D01*
X159737647Y-102908665D01*
X159777249Y-102979370D01*
X159804571Y-103067881D01*
X159820954Y-103176779D01*
X159823655Y-103209725D01*
X159832772Y-103339900D01*
X159514451Y-103339900D01*
X159510050Y-103220249D01*
X159507227Y-103162361D01*
X159502906Y-103123592D01*
X159495636Y-103097663D01*
X159483968Y-103078292D01*
X159474861Y-103067849D01*
X159447713Y-103045839D01*
X159414499Y-103036433D01*
X159385180Y-103035100D01*
X159326517Y-103045083D01*
X159283268Y-103075208D01*
X159257221Y-103119696D01*
X159254359Y-103139640D01*
X159251745Y-103181762D01*
X159249463Y-103242839D01*
X159247597Y-103319649D01*
X159246233Y-103408969D01*
X159245453Y-103507578D01*
X159245300Y-103576084D01*
X159245507Y-103697765D01*
X159246195Y-103796561D01*
X159247459Y-103874985D01*
X159249396Y-103935550D01*
X159252105Y-103980768D01*
X159255680Y-104013153D01*
X159260219Y-104035216D01*
X159263349Y-104044314D01*
X159292927Y-104086516D01*
X159336322Y-104114705D01*
X159386214Y-104126512D01*
X159435284Y-104119566D01*
X159458446Y-104107479D01*
X159485867Y-104083159D01*
X159504890Y-104052023D01*
X159516827Y-104009443D01*
X159522993Y-103950791D01*
X159524700Y-103873930D01*
X159524700Y-103733600D01*
X159829500Y-103733600D01*
X159829403Y-103819325D01*
X159826095Y-103914545D01*
X159817024Y-104007032D01*
X159803148Y-104090146D01*
X159785428Y-104157251D01*
X159777559Y-104177936D01*
X159736676Y-104244918D01*
X159677942Y-104304332D01*
X159608900Y-104349210D01*
X159577970Y-104362287D01*
X159524106Y-104375542D01*
X159455167Y-104384631D01*
X159381228Y-104388933D01*
X159312364Y-104387825D01*
X159263165Y-104381713D01*
X159163901Y-104349028D01*
X159081274Y-104297263D01*
X159015835Y-104226993D01*
X158968135Y-104138797D01*
X158940780Y-104044326D01*
X158936048Y-104005989D01*
X158932570Y-103945522D01*
X158930333Y-103862223D01*
X158929322Y-103755392D01*
X158929523Y-103624325D01*
X158930251Y-103530400D01*
X158931451Y-103412899D01*
X158932660Y-103317866D01*
X158934072Y-103242367D01*
X158935877Y-103183470D01*
X158938268Y-103138243D01*
X158941436Y-103103752D01*
X158945574Y-103077066D01*
X158950874Y-103055253D01*
X158957526Y-103035378D01*
X158963675Y-103019593D01*
X159008452Y-102939332D01*
X159072107Y-102868522D01*
X159148254Y-102814000D01*
X159162750Y-102806465D01*
X159192305Y-102793178D01*
X159220756Y-102784269D01*
X159254244Y-102778868D01*
X159298908Y-102776109D01*
X159360889Y-102775123D01*
X159385000Y-102775040D01*
X159452656Y-102775298D01*
G36*
X160480281Y-102785619D02*
X160575620Y-102819296D01*
X160653828Y-102871693D01*
X160714810Y-102942731D01*
X160758471Y-103032328D01*
X160780863Y-103117318D01*
X160785860Y-103158894D01*
X160789784Y-103220917D01*
X160792660Y-103299271D01*
X160794515Y-103389839D01*
X160795374Y-103488503D01*
X160795264Y-103591148D01*
X160794209Y-103693656D01*
X160792237Y-103791911D01*
X160789373Y-103881796D01*
X160785644Y-103959193D01*
X160781073Y-104019987D01*
X160775689Y-104060061D01*
X160774909Y-104063628D01*
X160740428Y-104165497D01*
X160689460Y-104248102D01*
X160621847Y-104311570D01*
X160537431Y-104356028D01*
X160436054Y-104381604D01*
X160373232Y-104387657D01*
X160316118Y-104388793D01*
X160261744Y-104387006D01*
X160220528Y-104382687D01*
X160215665Y-104381748D01*
X160116602Y-104348858D01*
X160033733Y-104296569D01*
X159967894Y-104225709D01*
X159919920Y-104137110D01*
X159897578Y-104065672D01*
X159891908Y-104027488D01*
X159887282Y-103968249D01*
X159883691Y-103891959D01*
X159881126Y-103802619D01*
X159879575Y-103704230D01*
X159879031Y-103600795D01*
X159879125Y-103578851D01*
X160197819Y-103578851D01*
X160197938Y-103696131D01*
X160198368Y-103790786D01*
X160199242Y-103865591D01*
X160200688Y-103923321D01*
X160202839Y-103966752D01*
X160205824Y-103998658D01*
X160209775Y-104021814D01*
X160214821Y-104038995D01*
X160220044Y-104050923D01*
X160243065Y-104084774D01*
X160270343Y-104109638D01*
X160274000Y-104111745D01*
X160315699Y-104122503D01*
X160364884Y-104120346D01*
X160409360Y-104106628D01*
X160427314Y-104094722D01*
X160447276Y-104067469D01*
X160463299Y-104030583D01*
X160464357Y-104026971D01*
X160468018Y-104000896D01*
X160471062Y-103953786D01*
X160473490Y-103889432D01*
X160475307Y-103811625D01*
X160476516Y-103724154D01*
X160477118Y-103630811D01*
X160477118Y-103535386D01*
X160476518Y-103441670D01*
X160475322Y-103353454D01*
X160473531Y-103274526D01*
X160471150Y-103208680D01*
X160468181Y-103159704D01*
X160464626Y-103131390D01*
X160463654Y-103128001D01*
X160435445Y-103076003D01*
X160396878Y-103045913D01*
X160344522Y-103035203D01*
X160337680Y-103035100D01*
X160279017Y-103045083D01*
X160235768Y-103075208D01*
X160209721Y-103119696D01*
X160206864Y-103139633D01*
X160204256Y-103181768D01*
X160201980Y-103242902D01*
X160200120Y-103319833D01*
X160198757Y-103409360D01*
X160197976Y-103508284D01*
X160197819Y-103578851D01*
X159879125Y-103578851D01*
X159879482Y-103496314D01*
X159880920Y-103394791D01*
X159883334Y-103300226D01*
X159886714Y-103216623D01*
X159891052Y-103147981D01*
X159896336Y-103098304D01*
X159899982Y-103079168D01*
X159936735Y-102980238D01*
X159990446Y-102900174D01*
X160060939Y-102839092D01*
X160148038Y-102797110D01*
X160251566Y-102774342D01*
X160367909Y-102770743D01*
X160480281Y-102785619D01*
X160480281Y-102785619D01*
G37*
X160480281Y-102785619D02*
X160575620Y-102819296D01*
X160653828Y-102871693D01*
X160714810Y-102942731D01*
X160758471Y-103032328D01*
X160780863Y-103117318D01*
X160785860Y-103158894D01*
X160789784Y-103220917D01*
X160792660Y-103299271D01*
X160794515Y-103389839D01*
X160795374Y-103488503D01*
X160795264Y-103591148D01*
X160794209Y-103693656D01*
X160792237Y-103791911D01*
X160789373Y-103881796D01*
X160785644Y-103959193D01*
X160781073Y-104019987D01*
X160775689Y-104060061D01*
X160774909Y-104063628D01*
X160740428Y-104165497D01*
X160689460Y-104248102D01*
X160621847Y-104311570D01*
X160537431Y-104356028D01*
X160436054Y-104381604D01*
X160373232Y-104387657D01*
X160316118Y-104388793D01*
X160261744Y-104387006D01*
X160220528Y-104382687D01*
X160215665Y-104381748D01*
X160116602Y-104348858D01*
X160033733Y-104296569D01*
X159967894Y-104225709D01*
X159919920Y-104137110D01*
X159897578Y-104065672D01*
X159891908Y-104027488D01*
X159887282Y-103968249D01*
X159883691Y-103891959D01*
X159881126Y-103802619D01*
X159879575Y-103704230D01*
X159879031Y-103600795D01*
X159879125Y-103578851D01*
X160197819Y-103578851D01*
X160197938Y-103696131D01*
X160198368Y-103790786D01*
X160199242Y-103865591D01*
X160200688Y-103923321D01*
X160202839Y-103966752D01*
X160205824Y-103998658D01*
X160209775Y-104021814D01*
X160214821Y-104038995D01*
X160220044Y-104050923D01*
X160243065Y-104084774D01*
X160270343Y-104109638D01*
X160274000Y-104111745D01*
X160315699Y-104122503D01*
X160364884Y-104120346D01*
X160409360Y-104106628D01*
X160427314Y-104094722D01*
X160447276Y-104067469D01*
X160463299Y-104030583D01*
X160464357Y-104026971D01*
X160468018Y-104000896D01*
X160471062Y-103953786D01*
X160473490Y-103889432D01*
X160475307Y-103811625D01*
X160476516Y-103724154D01*
X160477118Y-103630811D01*
X160477118Y-103535386D01*
X160476518Y-103441670D01*
X160475322Y-103353454D01*
X160473531Y-103274526D01*
X160471150Y-103208680D01*
X160468181Y-103159704D01*
X160464626Y-103131390D01*
X160463654Y-103128001D01*
X160435445Y-103076003D01*
X160396878Y-103045913D01*
X160344522Y-103035203D01*
X160337680Y-103035100D01*
X160279017Y-103045083D01*
X160235768Y-103075208D01*
X160209721Y-103119696D01*
X160206864Y-103139633D01*
X160204256Y-103181768D01*
X160201980Y-103242902D01*
X160200120Y-103319833D01*
X160198757Y-103409360D01*
X160197976Y-103508284D01*
X160197819Y-103578851D01*
X159879125Y-103578851D01*
X159879482Y-103496314D01*
X159880920Y-103394791D01*
X159883334Y-103300226D01*
X159886714Y-103216623D01*
X159891052Y-103147981D01*
X159896336Y-103098304D01*
X159899982Y-103079168D01*
X159936735Y-102980238D01*
X159990446Y-102900174D01*
X160060939Y-102839092D01*
X160148038Y-102797110D01*
X160251566Y-102774342D01*
X160367909Y-102770743D01*
X160480281Y-102785619D01*
G36*
X142693128Y-102781265D02*
X142737668Y-102782258D01*
X142765128Y-102784827D01*
X142779668Y-102789716D01*
X142785450Y-102797672D01*
X142786632Y-102809441D01*
X142786637Y-102809675D01*
X142788184Y-102828849D01*
X142792324Y-102870051D01*
X142798710Y-102930077D01*
X142806991Y-103005725D01*
X142816819Y-103093793D01*
X142827845Y-103191079D01*
X142835443Y-103257350D01*
X142849580Y-103377753D01*
X142861493Y-103473924D01*
X142871342Y-103546918D01*
X142879290Y-103597791D01*
X142885498Y-103627597D01*
X142890126Y-103637391D01*
X142892707Y-103632000D01*
X142896970Y-103608728D01*
X142904793Y-103563822D01*
X142915595Y-103500705D01*
X142928794Y-103422802D01*
X142943807Y-103333539D01*
X142960055Y-103236339D01*
X142968183Y-103187500D01*
X143034664Y-102787450D01*
X143151321Y-102783803D01*
X143206244Y-102782411D01*
X143240904Y-102783110D01*
X143260417Y-102786955D01*
X143269898Y-102794999D01*
X143274464Y-102808295D01*
X143274675Y-102809203D01*
X143278404Y-102828714D01*
X143285728Y-102869923D01*
X143296070Y-102929470D01*
X143308851Y-103003998D01*
X143323494Y-103090148D01*
X143339420Y-103184563D01*
X143345243Y-103219250D01*
X143361575Y-103316325D01*
X143376910Y-103406808D01*
X143390651Y-103487240D01*
X143402205Y-103554159D01*
X143410975Y-103604107D01*
X143416367Y-103633622D01*
X143417317Y-103638350D01*
X143420868Y-103637061D01*
X143426606Y-103611652D01*
X143434364Y-103563291D01*
X143443975Y-103493147D01*
X143455272Y-103402391D01*
X143468089Y-103292193D01*
X143473414Y-103244650D01*
X143484742Y-103142246D01*
X143495155Y-103047595D01*
X143504323Y-102963729D01*
X143511918Y-102893680D01*
X143517609Y-102840481D01*
X143521069Y-102807164D01*
X143522004Y-102796975D01*
X143529875Y-102789485D01*
X143554623Y-102784559D01*
X143599120Y-102781873D01*
X143662400Y-102781100D01*
X143723537Y-102781391D01*
X143763667Y-102782800D01*
X143787181Y-102786123D01*
X143798471Y-102792160D01*
X143801927Y-102801711D01*
X143802100Y-102806515D01*
X143800256Y-102823347D01*
X143794945Y-102863039D01*
X143786493Y-102923335D01*
X143775228Y-103001980D01*
X143761476Y-103096719D01*
X143745566Y-103205296D01*
X143727825Y-103325457D01*
X143708580Y-103454945D01*
X143688158Y-103591507D01*
X143687800Y-103593899D01*
X143667415Y-103729893D01*
X143648194Y-103858322D01*
X143630461Y-103977004D01*
X143614541Y-104083755D01*
X143600759Y-104176394D01*
X143589440Y-104252737D01*
X143580907Y-104310601D01*
X143575487Y-104347804D01*
X143573503Y-104362164D01*
X143573500Y-104362234D01*
X143561641Y-104364754D01*
X143529426Y-104366802D01*
X143481898Y-104368157D01*
X143429145Y-104368600D01*
X143284791Y-104368600D01*
X143258482Y-104200325D01*
X143248200Y-104134169D01*
X143235221Y-104050073D01*
X143220647Y-103955212D01*
X143205581Y-103856760D01*
X143191125Y-103761892D01*
X143190203Y-103755825D01*
X143177700Y-103675549D01*
X143166043Y-103604446D01*
X143155868Y-103546105D01*
X143147812Y-103504114D01*
X143142510Y-103482062D01*
X143141198Y-103479600D01*
X143137547Y-103491662D01*
X143130292Y-103525970D01*
X143119951Y-103579708D01*
X143107042Y-103650058D01*
X143092083Y-103734203D01*
X143075590Y-103829326D01*
X143059511Y-103924100D01*
X142984858Y-104368600D01*
X142841029Y-104368600D01*
X142784003Y-104367762D01*
X142737672Y-104365486D01*
X142707088Y-104362130D01*
X142697200Y-104358436D01*
X142695343Y-104344382D01*
X142689994Y-104307428D01*
X142681484Y-104249782D01*
X142670144Y-104173655D01*
X142656304Y-104081257D01*
X142640296Y-103974798D01*
X142622451Y-103856486D01*
X142603099Y-103728532D01*
X142582900Y-103595306D01*
X142562329Y-103459293D01*
X142542946Y-103330169D01*
X142525087Y-103210224D01*
X142509084Y-103101747D01*
X142495271Y-103007027D01*
X142483983Y-102928353D01*
X142475552Y-102868015D01*
X142470315Y-102828302D01*
X142468600Y-102811720D01*
X142468600Y-102781100D01*
X142627350Y-102781100D01*
X142693128Y-102781265D01*
X142693128Y-102781265D01*
G37*
X142693128Y-102781265D02*
X142737668Y-102782258D01*
X142765128Y-102784827D01*
X142779668Y-102789716D01*
X142785450Y-102797672D01*
X142786632Y-102809441D01*
X142786637Y-102809675D01*
X142788184Y-102828849D01*
X142792324Y-102870051D01*
X142798710Y-102930077D01*
X142806991Y-103005725D01*
X142816819Y-103093793D01*
X142827845Y-103191079D01*
X142835443Y-103257350D01*
X142849580Y-103377753D01*
X142861493Y-103473924D01*
X142871342Y-103546918D01*
X142879290Y-103597791D01*
X142885498Y-103627597D01*
X142890126Y-103637391D01*
X142892707Y-103632000D01*
X142896970Y-103608728D01*
X142904793Y-103563822D01*
X142915595Y-103500705D01*
X142928794Y-103422802D01*
X142943807Y-103333539D01*
X142960055Y-103236339D01*
X142968183Y-103187500D01*
X143034664Y-102787450D01*
X143151321Y-102783803D01*
X143206244Y-102782411D01*
X143240904Y-102783110D01*
X143260417Y-102786955D01*
X143269898Y-102794999D01*
X143274464Y-102808295D01*
X143274675Y-102809203D01*
X143278404Y-102828714D01*
X143285728Y-102869923D01*
X143296070Y-102929470D01*
X143308851Y-103003998D01*
X143323494Y-103090148D01*
X143339420Y-103184563D01*
X143345243Y-103219250D01*
X143361575Y-103316325D01*
X143376910Y-103406808D01*
X143390651Y-103487240D01*
X143402205Y-103554159D01*
X143410975Y-103604107D01*
X143416367Y-103633622D01*
X143417317Y-103638350D01*
X143420868Y-103637061D01*
X143426606Y-103611652D01*
X143434364Y-103563291D01*
X143443975Y-103493147D01*
X143455272Y-103402391D01*
X143468089Y-103292193D01*
X143473414Y-103244650D01*
X143484742Y-103142246D01*
X143495155Y-103047595D01*
X143504323Y-102963729D01*
X143511918Y-102893680D01*
X143517609Y-102840481D01*
X143521069Y-102807164D01*
X143522004Y-102796975D01*
X143529875Y-102789485D01*
X143554623Y-102784559D01*
X143599120Y-102781873D01*
X143662400Y-102781100D01*
X143723537Y-102781391D01*
X143763667Y-102782800D01*
X143787181Y-102786123D01*
X143798471Y-102792160D01*
X143801927Y-102801711D01*
X143802100Y-102806515D01*
X143800256Y-102823347D01*
X143794945Y-102863039D01*
X143786493Y-102923335D01*
X143775228Y-103001980D01*
X143761476Y-103096719D01*
X143745566Y-103205296D01*
X143727825Y-103325457D01*
X143708580Y-103454945D01*
X143688158Y-103591507D01*
X143687800Y-103593899D01*
X143667415Y-103729893D01*
X143648194Y-103858322D01*
X143630461Y-103977004D01*
X143614541Y-104083755D01*
X143600759Y-104176394D01*
X143589440Y-104252737D01*
X143580907Y-104310601D01*
X143575487Y-104347804D01*
X143573503Y-104362164D01*
X143573500Y-104362234D01*
X143561641Y-104364754D01*
X143529426Y-104366802D01*
X143481898Y-104368157D01*
X143429145Y-104368600D01*
X143284791Y-104368600D01*
X143258482Y-104200325D01*
X143248200Y-104134169D01*
X143235221Y-104050073D01*
X143220647Y-103955212D01*
X143205581Y-103856760D01*
X143191125Y-103761892D01*
X143190203Y-103755825D01*
X143177700Y-103675549D01*
X143166043Y-103604446D01*
X143155868Y-103546105D01*
X143147812Y-103504114D01*
X143142510Y-103482062D01*
X143141198Y-103479600D01*
X143137547Y-103491662D01*
X143130292Y-103525970D01*
X143119951Y-103579708D01*
X143107042Y-103650058D01*
X143092083Y-103734203D01*
X143075590Y-103829326D01*
X143059511Y-103924100D01*
X142984858Y-104368600D01*
X142841029Y-104368600D01*
X142784003Y-104367762D01*
X142737672Y-104365486D01*
X142707088Y-104362130D01*
X142697200Y-104358436D01*
X142695343Y-104344382D01*
X142689994Y-104307428D01*
X142681484Y-104249782D01*
X142670144Y-104173655D01*
X142656304Y-104081257D01*
X142640296Y-103974798D01*
X142622451Y-103856486D01*
X142603099Y-103728532D01*
X142582900Y-103595306D01*
X142562329Y-103459293D01*
X142542946Y-103330169D01*
X142525087Y-103210224D01*
X142509084Y-103101747D01*
X142495271Y-103007027D01*
X142483983Y-102928353D01*
X142475552Y-102868015D01*
X142470315Y-102828302D01*
X142468600Y-102811720D01*
X142468600Y-102781100D01*
X142627350Y-102781100D01*
X142693128Y-102781265D01*
G36*
X144188248Y-103228775D02*
X144199636Y-103332437D01*
X144210238Y-103427800D01*
X144219727Y-103511996D01*
X144227773Y-103582158D01*
X144234048Y-103635418D01*
X144238223Y-103668910D01*
X144239923Y-103679792D01*
X144242555Y-103668511D01*
X144248819Y-103634935D01*
X144258234Y-103581832D01*
X144270322Y-103511972D01*
X144284604Y-103428125D01*
X144300599Y-103333059D01*
X144317403Y-103232117D01*
X144392105Y-102781100D01*
X144508996Y-102781100D01*
X144565113Y-102781725D01*
X144600755Y-102784192D01*
X144620832Y-102789384D01*
X144630252Y-102798188D01*
X144632254Y-102803325D01*
X144635795Y-102820889D01*
X144642880Y-102860372D01*
X144652969Y-102918621D01*
X144665526Y-102992484D01*
X144680013Y-103078809D01*
X144695893Y-103174443D01*
X144705889Y-103235125D01*
X144722278Y-103333621D01*
X144737657Y-103423606D01*
X144751492Y-103502143D01*
X144763250Y-103566293D01*
X144772396Y-103613121D01*
X144778396Y-103639687D01*
X144780339Y-103644700D01*
X144783383Y-103632568D01*
X144788627Y-103598185D01*
X144795697Y-103544569D01*
X144804219Y-103474739D01*
X144813817Y-103391711D01*
X144824119Y-103298505D01*
X144829544Y-103247825D01*
X144840145Y-103148572D01*
X144850187Y-103056159D01*
X144859289Y-102973966D01*
X144867072Y-102905376D01*
X144873154Y-102853770D01*
X144877154Y-102822528D01*
X144878172Y-102816025D01*
X144884775Y-102781100D01*
X145022887Y-102781100D01*
X145085227Y-102781678D01*
X145126165Y-102783773D01*
X145149679Y-102787921D01*
X145159750Y-102794660D01*
X145161000Y-102799764D01*
X145159163Y-102815359D01*
X145153872Y-102853845D01*
X145145450Y-102912993D01*
X145134225Y-102990577D01*
X145120520Y-103084369D01*
X145104662Y-103192141D01*
X145086976Y-103311667D01*
X145067788Y-103440720D01*
X145047423Y-103577071D01*
X145046700Y-103581901D01*
X145026319Y-103718218D01*
X145007102Y-103847118D01*
X144989372Y-103966399D01*
X144973454Y-104073861D01*
X144959673Y-104167303D01*
X144948353Y-104244526D01*
X144939818Y-104303329D01*
X144934393Y-104341510D01*
X144932403Y-104356870D01*
X144932400Y-104356987D01*
X144920541Y-104361578D01*
X144888321Y-104365312D01*
X144840776Y-104367785D01*
X144787653Y-104368600D01*
X144642907Y-104368600D01*
X144629560Y-104289225D01*
X144624109Y-104255429D01*
X144615567Y-104200742D01*
X144604582Y-104129393D01*
X144591802Y-104045613D01*
X144577875Y-103953633D01*
X144563886Y-103860600D01*
X144549885Y-103768408D01*
X144536661Y-103683689D01*
X144524784Y-103609918D01*
X144514826Y-103550573D01*
X144507358Y-103509127D01*
X144502952Y-103489058D01*
X144502747Y-103488476D01*
X144498615Y-103494902D01*
X144490940Y-103524165D01*
X144480167Y-103574016D01*
X144466741Y-103642206D01*
X144451108Y-103726488D01*
X144433712Y-103824612D01*
X144417892Y-103917101D01*
X144341850Y-104368599D01*
X144198975Y-104368599D01*
X144142151Y-104368181D01*
X144096040Y-104367046D01*
X144065712Y-104365372D01*
X144056100Y-104363559D01*
X144054255Y-104350221D01*
X144048986Y-104314402D01*
X144040692Y-104258735D01*
X144029771Y-104185850D01*
X144016621Y-104098377D01*
X144001641Y-103998949D01*
X143985229Y-103890196D01*
X143967784Y-103774748D01*
X143949703Y-103655237D01*
X143931387Y-103534293D01*
X143913232Y-103414549D01*
X143895637Y-103298633D01*
X143879002Y-103189178D01*
X143863723Y-103088815D01*
X143850200Y-103000174D01*
X143838832Y-102925886D01*
X143830015Y-102868582D01*
X143824150Y-102830893D01*
X143821742Y-102816025D01*
X143815435Y-102781100D01*
X143977393Y-102781100D01*
X144139351Y-102781099D01*
X144188248Y-103228775D01*
X144188248Y-103228775D01*
G37*
X144188248Y-103228775D02*
X144199636Y-103332437D01*
X144210238Y-103427800D01*
X144219727Y-103511996D01*
X144227773Y-103582158D01*
X144234048Y-103635418D01*
X144238223Y-103668910D01*
X144239923Y-103679792D01*
X144242555Y-103668511D01*
X144248819Y-103634935D01*
X144258234Y-103581832D01*
X144270322Y-103511972D01*
X144284604Y-103428125D01*
X144300599Y-103333059D01*
X144317403Y-103232117D01*
X144392105Y-102781100D01*
X144508996Y-102781100D01*
X144565113Y-102781725D01*
X144600755Y-102784192D01*
X144620832Y-102789384D01*
X144630252Y-102798188D01*
X144632254Y-102803325D01*
X144635795Y-102820889D01*
X144642880Y-102860372D01*
X144652969Y-102918621D01*
X144665526Y-102992484D01*
X144680013Y-103078809D01*
X144695893Y-103174443D01*
X144705889Y-103235125D01*
X144722278Y-103333621D01*
X144737657Y-103423606D01*
X144751492Y-103502143D01*
X144763250Y-103566293D01*
X144772396Y-103613121D01*
X144778396Y-103639687D01*
X144780339Y-103644700D01*
X144783383Y-103632568D01*
X144788627Y-103598185D01*
X144795697Y-103544569D01*
X144804219Y-103474739D01*
X144813817Y-103391711D01*
X144824119Y-103298505D01*
X144829544Y-103247825D01*
X144840145Y-103148572D01*
X144850187Y-103056159D01*
X144859289Y-102973966D01*
X144867072Y-102905376D01*
X144873154Y-102853770D01*
X144877154Y-102822528D01*
X144878172Y-102816025D01*
X144884775Y-102781100D01*
X145022887Y-102781100D01*
X145085227Y-102781678D01*
X145126165Y-102783773D01*
X145149679Y-102787921D01*
X145159750Y-102794660D01*
X145161000Y-102799764D01*
X145159163Y-102815359D01*
X145153872Y-102853845D01*
X145145450Y-102912993D01*
X145134225Y-102990577D01*
X145120520Y-103084369D01*
X145104662Y-103192141D01*
X145086976Y-103311667D01*
X145067788Y-103440720D01*
X145047423Y-103577071D01*
X145046700Y-103581901D01*
X145026319Y-103718218D01*
X145007102Y-103847118D01*
X144989372Y-103966399D01*
X144973454Y-104073861D01*
X144959673Y-104167303D01*
X144948353Y-104244526D01*
X144939818Y-104303329D01*
X144934393Y-104341510D01*
X144932403Y-104356870D01*
X144932400Y-104356987D01*
X144920541Y-104361578D01*
X144888321Y-104365312D01*
X144840776Y-104367785D01*
X144787653Y-104368600D01*
X144642907Y-104368600D01*
X144629560Y-104289225D01*
X144624109Y-104255429D01*
X144615567Y-104200742D01*
X144604582Y-104129393D01*
X144591802Y-104045613D01*
X144577875Y-103953633D01*
X144563886Y-103860600D01*
X144549885Y-103768408D01*
X144536661Y-103683689D01*
X144524784Y-103609918D01*
X144514826Y-103550573D01*
X144507358Y-103509127D01*
X144502952Y-103489058D01*
X144502747Y-103488476D01*
X144498615Y-103494902D01*
X144490940Y-103524165D01*
X144480167Y-103574016D01*
X144466741Y-103642206D01*
X144451108Y-103726488D01*
X144433712Y-103824612D01*
X144417892Y-103917101D01*
X144341850Y-104368599D01*
X144198975Y-104368599D01*
X144142151Y-104368181D01*
X144096040Y-104367046D01*
X144065712Y-104365372D01*
X144056100Y-104363559D01*
X144054255Y-104350221D01*
X144048986Y-104314402D01*
X144040692Y-104258735D01*
X144029771Y-104185850D01*
X144016621Y-104098377D01*
X144001641Y-103998949D01*
X143985229Y-103890196D01*
X143967784Y-103774748D01*
X143949703Y-103655237D01*
X143931387Y-103534293D01*
X143913232Y-103414549D01*
X143895637Y-103298633D01*
X143879002Y-103189178D01*
X143863723Y-103088815D01*
X143850200Y-103000174D01*
X143838832Y-102925886D01*
X143830015Y-102868582D01*
X143824150Y-102830893D01*
X143821742Y-102816025D01*
X143815435Y-102781100D01*
X143977393Y-102781100D01*
X144139351Y-102781099D01*
X144188248Y-103228775D01*
G36*
X145334751Y-102783890D02*
X145497098Y-102787450D01*
X145543610Y-103206550D01*
X145554929Y-103308252D01*
X145565525Y-103402913D01*
X145575033Y-103487306D01*
X145583086Y-103558201D01*
X145589318Y-103612371D01*
X145593363Y-103646588D01*
X145594635Y-103656523D01*
X145597644Y-103651648D01*
X145604233Y-103624244D01*
X145613920Y-103576853D01*
X145626222Y-103512020D01*
X145640658Y-103432288D01*
X145656746Y-103340200D01*
X145674003Y-103238300D01*
X145674679Y-103234248D01*
X145750208Y-102781099D01*
X145867778Y-102781099D01*
X145985349Y-102781100D01*
X145992926Y-102822375D01*
X145996859Y-102844827D01*
X146004424Y-102888939D01*
X146015044Y-102951323D01*
X146028146Y-103028589D01*
X146043153Y-103117349D01*
X146059491Y-103214213D01*
X146067823Y-103263700D01*
X146086898Y-103374766D01*
X146103689Y-103467895D01*
X146117915Y-103541703D01*
X146129294Y-103594807D01*
X146137544Y-103625823D01*
X146142383Y-103633368D01*
X146142902Y-103632000D01*
X146146161Y-103611583D01*
X146151587Y-103569364D01*
X146158781Y-103508809D01*
X146167342Y-103433386D01*
X146176872Y-103346562D01*
X146186971Y-103251804D01*
X146189714Y-103225600D01*
X146199878Y-103129118D01*
X146209525Y-103039469D01*
X146218261Y-102960157D01*
X146225695Y-102894686D01*
X146231433Y-102846559D01*
X146235082Y-102819281D01*
X146235642Y-102816025D01*
X146242518Y-102781100D01*
X146381209Y-102781100D01*
X146437154Y-102781913D01*
X146482339Y-102784118D01*
X146511610Y-102787361D01*
X146520125Y-102790625D01*
X146518341Y-102804539D01*
X146513119Y-102841411D01*
X146504776Y-102899078D01*
X146493631Y-102975378D01*
X146480002Y-103068148D01*
X146464206Y-103175224D01*
X146446562Y-103294445D01*
X146427386Y-103423648D01*
X146406998Y-103560669D01*
X146403465Y-103584375D01*
X146286579Y-104368600D01*
X146001218Y-104368600D01*
X145993980Y-104333675D01*
X145990918Y-104315772D01*
X145984577Y-104276405D01*
X145975520Y-104219217D01*
X145964313Y-104147851D01*
X145951520Y-104065950D01*
X145937705Y-103977157D01*
X145923432Y-103885115D01*
X145909266Y-103793468D01*
X145895771Y-103705857D01*
X145883511Y-103625928D01*
X145873052Y-103557321D01*
X145864956Y-103503682D01*
X145859790Y-103468653D01*
X145858287Y-103457735D01*
X145855944Y-103467488D01*
X145849804Y-103499583D01*
X145840350Y-103551327D01*
X145828062Y-103620028D01*
X145813423Y-103702989D01*
X145796914Y-103797518D01*
X145779017Y-103900921D01*
X145778306Y-103905050D01*
X145699538Y-104362250D01*
X145558367Y-104365830D01*
X145417196Y-104369411D01*
X145410077Y-104334080D01*
X145406909Y-104315242D01*
X145400334Y-104273658D01*
X145390716Y-104211700D01*
X145378419Y-104131743D01*
X145363804Y-104036159D01*
X145347236Y-103927321D01*
X145329077Y-103807601D01*
X145309691Y-103679374D01*
X145294888Y-103581200D01*
X145274811Y-103448001D01*
X145255694Y-103321380D01*
X145237902Y-103203735D01*
X145221800Y-103097468D01*
X145207751Y-103004978D01*
X145196120Y-102928664D01*
X145187272Y-102870927D01*
X145181571Y-102834167D01*
X145179611Y-102821990D01*
X145172404Y-102780331D01*
X145334751Y-102783890D01*
X145334751Y-102783890D01*
G37*
X145334751Y-102783890D02*
X145497098Y-102787450D01*
X145543610Y-103206550D01*
X145554929Y-103308252D01*
X145565525Y-103402913D01*
X145575033Y-103487306D01*
X145583086Y-103558201D01*
X145589318Y-103612371D01*
X145593363Y-103646588D01*
X145594635Y-103656523D01*
X145597644Y-103651648D01*
X145604233Y-103624244D01*
X145613920Y-103576853D01*
X145626222Y-103512020D01*
X145640658Y-103432288D01*
X145656746Y-103340200D01*
X145674003Y-103238300D01*
X145674679Y-103234248D01*
X145750208Y-102781099D01*
X145867778Y-102781099D01*
X145985349Y-102781100D01*
X145992926Y-102822375D01*
X145996859Y-102844827D01*
X146004424Y-102888939D01*
X146015044Y-102951323D01*
X146028146Y-103028589D01*
X146043153Y-103117349D01*
X146059491Y-103214213D01*
X146067823Y-103263700D01*
X146086898Y-103374766D01*
X146103689Y-103467895D01*
X146117915Y-103541703D01*
X146129294Y-103594807D01*
X146137544Y-103625823D01*
X146142383Y-103633368D01*
X146142902Y-103632000D01*
X146146161Y-103611583D01*
X146151587Y-103569364D01*
X146158781Y-103508809D01*
X146167342Y-103433386D01*
X146176872Y-103346562D01*
X146186971Y-103251804D01*
X146189714Y-103225600D01*
X146199878Y-103129118D01*
X146209525Y-103039469D01*
X146218261Y-102960157D01*
X146225695Y-102894686D01*
X146231433Y-102846559D01*
X146235082Y-102819281D01*
X146235642Y-102816025D01*
X146242518Y-102781100D01*
X146381209Y-102781100D01*
X146437154Y-102781913D01*
X146482339Y-102784118D01*
X146511610Y-102787361D01*
X146520125Y-102790625D01*
X146518341Y-102804539D01*
X146513119Y-102841411D01*
X146504776Y-102899078D01*
X146493631Y-102975378D01*
X146480002Y-103068148D01*
X146464206Y-103175224D01*
X146446562Y-103294445D01*
X146427386Y-103423648D01*
X146406998Y-103560669D01*
X146403465Y-103584375D01*
X146286579Y-104368600D01*
X146001218Y-104368600D01*
X145993980Y-104333675D01*
X145990918Y-104315772D01*
X145984577Y-104276405D01*
X145975520Y-104219217D01*
X145964313Y-104147851D01*
X145951520Y-104065950D01*
X145937705Y-103977157D01*
X145923432Y-103885115D01*
X145909266Y-103793468D01*
X145895771Y-103705857D01*
X145883511Y-103625928D01*
X145873052Y-103557321D01*
X145864956Y-103503682D01*
X145859790Y-103468653D01*
X145858287Y-103457735D01*
X145855944Y-103467488D01*
X145849804Y-103499583D01*
X145840350Y-103551327D01*
X145828062Y-103620028D01*
X145813423Y-103702989D01*
X145796914Y-103797518D01*
X145779017Y-103900921D01*
X145778306Y-103905050D01*
X145699538Y-104362250D01*
X145558367Y-104365830D01*
X145417196Y-104369411D01*
X145410077Y-104334080D01*
X145406909Y-104315242D01*
X145400334Y-104273658D01*
X145390716Y-104211700D01*
X145378419Y-104131743D01*
X145363804Y-104036159D01*
X145347236Y-103927321D01*
X145329077Y-103807601D01*
X145309691Y-103679374D01*
X145294888Y-103581200D01*
X145274811Y-103448001D01*
X145255694Y-103321380D01*
X145237902Y-103203735D01*
X145221800Y-103097468D01*
X145207751Y-103004978D01*
X145196120Y-102928664D01*
X145187272Y-102870927D01*
X145181571Y-102834167D01*
X145179611Y-102821990D01*
X145172404Y-102780331D01*
X145334751Y-102783890D01*
G36*
X146824700Y-104368600D02*
X146507200Y-104368600D01*
X146507200Y-104051100D01*
X146824700Y-104051100D01*
X146824700Y-104368600D01*
X146824700Y-104368600D01*
G37*
X146824700Y-104368600D02*
X146507200Y-104368600D01*
X146507200Y-104051100D01*
X146824700Y-104051100D01*
X146824700Y-104368600D01*
G36*
X147266025Y-102479050D02*
X147381248Y-102481555D01*
X147474395Y-102485268D01*
X147548783Y-102490954D01*
X147607734Y-102499378D01*
X147654565Y-102511306D01*
X147692596Y-102527501D01*
X147725146Y-102548729D01*
X147755535Y-102575756D01*
X147775376Y-102596442D01*
X147802985Y-102628812D01*
X147824881Y-102661603D01*
X147841708Y-102698190D01*
X147854110Y-102741945D01*
X147862730Y-102796243D01*
X147868213Y-102864457D01*
X147871202Y-102949961D01*
X147872342Y-103056129D01*
X147872424Y-103104950D01*
X147871808Y-103220563D01*
X147869553Y-103314146D01*
X147865048Y-103389047D01*
X147857684Y-103448613D01*
X147846850Y-103496194D01*
X147831936Y-103535137D01*
X147812332Y-103568791D01*
X147787427Y-103600505D01*
X147780733Y-103608044D01*
X147725712Y-103657754D01*
X147660946Y-103693946D01*
X147582749Y-103717823D01*
X147487437Y-103730585D01*
X147395574Y-103733599D01*
X147281900Y-103733600D01*
X147281900Y-104368600D01*
X146951700Y-104368600D01*
X146951700Y-102755700D01*
X147281900Y-102755700D01*
X147281900Y-103479600D01*
X147354925Y-103479580D01*
X147414782Y-103474454D01*
X147465039Y-103460714D01*
X147472400Y-103457355D01*
X147496327Y-103442790D01*
X147514625Y-103423830D01*
X147528037Y-103397126D01*
X147537307Y-103359328D01*
X147543176Y-103307087D01*
X147546391Y-103237053D01*
X147547693Y-103145878D01*
X147547812Y-103117650D01*
X147547392Y-103012169D01*
X147544598Y-102929349D01*
X147538129Y-102866473D01*
X147526681Y-102820821D01*
X147508952Y-102789679D01*
X147483641Y-102770328D01*
X147449444Y-102760051D01*
X147405059Y-102756131D01*
X147374324Y-102755700D01*
X147281900Y-102755700D01*
X146951700Y-102755700D01*
X146951700Y-102473730D01*
X147266025Y-102479050D01*
X147266025Y-102479050D01*
G37*
X147266025Y-102479050D02*
X147381248Y-102481555D01*
X147474395Y-102485268D01*
X147548783Y-102490954D01*
X147607734Y-102499378D01*
X147654565Y-102511306D01*
X147692596Y-102527501D01*
X147725146Y-102548729D01*
X147755535Y-102575756D01*
X147775376Y-102596442D01*
X147802985Y-102628812D01*
X147824881Y-102661603D01*
X147841708Y-102698190D01*
X147854110Y-102741945D01*
X147862730Y-102796243D01*
X147868213Y-102864457D01*
X147871202Y-102949961D01*
X147872342Y-103056129D01*
X147872424Y-103104950D01*
X147871808Y-103220563D01*
X147869553Y-103314146D01*
X147865048Y-103389047D01*
X147857684Y-103448613D01*
X147846850Y-103496194D01*
X147831936Y-103535137D01*
X147812332Y-103568791D01*
X147787427Y-103600505D01*
X147780733Y-103608044D01*
X147725712Y-103657754D01*
X147660946Y-103693946D01*
X147582749Y-103717823D01*
X147487437Y-103730585D01*
X147395574Y-103733599D01*
X147281900Y-103733600D01*
X147281900Y-104368600D01*
X146951700Y-104368600D01*
X146951700Y-102755700D01*
X147281900Y-102755700D01*
X147281900Y-103479600D01*
X147354925Y-103479580D01*
X147414782Y-103474454D01*
X147465039Y-103460714D01*
X147472400Y-103457355D01*
X147496327Y-103442790D01*
X147514625Y-103423830D01*
X147528037Y-103397126D01*
X147537307Y-103359328D01*
X147543176Y-103307087D01*
X147546391Y-103237053D01*
X147547693Y-103145878D01*
X147547812Y-103117650D01*
X147547392Y-103012169D01*
X147544598Y-102929349D01*
X147538129Y-102866473D01*
X147526681Y-102820821D01*
X147508952Y-102789679D01*
X147483641Y-102770328D01*
X147449444Y-102760051D01*
X147405059Y-102756131D01*
X147374324Y-102755700D01*
X147281900Y-102755700D01*
X146951700Y-102755700D01*
X146951700Y-102473730D01*
X147266025Y-102479050D01*
G36*
X148297900Y-102924556D02*
X148326850Y-102881596D01*
X148366152Y-102839093D01*
X148417364Y-102804916D01*
X148471067Y-102784586D01*
X148497925Y-102781308D01*
X148539200Y-102781100D01*
X148539200Y-103149400D01*
X148468719Y-103149400D01*
X148398136Y-103156608D01*
X148347756Y-103178499D01*
X148316781Y-103215467D01*
X148311976Y-103227109D01*
X148307929Y-103251723D01*
X148304573Y-103300498D01*
X148301905Y-103373658D01*
X148299919Y-103471429D01*
X148298609Y-103594036D01*
X148297970Y-103741706D01*
X148297900Y-103818045D01*
X148297900Y-104368600D01*
X147980400Y-104368600D01*
X147980400Y-102781100D01*
X148297900Y-102781100D01*
X148297900Y-102924556D01*
X148297900Y-102924556D01*
G37*
X148297900Y-102924556D02*
X148326850Y-102881596D01*
X148366152Y-102839093D01*
X148417364Y-102804916D01*
X148471067Y-102784586D01*
X148497925Y-102781308D01*
X148539200Y-102781100D01*
X148539200Y-103149400D01*
X148468719Y-103149400D01*
X148398136Y-103156608D01*
X148347756Y-103178499D01*
X148316781Y-103215467D01*
X148311976Y-103227109D01*
X148307929Y-103251723D01*
X148304573Y-103300498D01*
X148301905Y-103373658D01*
X148299919Y-103471429D01*
X148298609Y-103594036D01*
X148297970Y-103741706D01*
X148297900Y-103818045D01*
X148297900Y-104368600D01*
X147980400Y-104368600D01*
X147980400Y-102781100D01*
X148297900Y-102781100D01*
X148297900Y-102924556D01*
G36*
X152450800Y-102781100D02*
X152641300Y-102781100D01*
X152641300Y-103035100D01*
X152450800Y-103035100D01*
X152450800Y-103547022D01*
X152450950Y-103679634D01*
X152451446Y-103789006D01*
X152452360Y-103877292D01*
X152453759Y-103946653D01*
X152455715Y-103999243D01*
X152458297Y-104037221D01*
X152461575Y-104062743D01*
X152465619Y-104077968D01*
X152468143Y-104082663D01*
X152488228Y-104098205D01*
X152524202Y-104107811D01*
X152563393Y-104112017D01*
X152641300Y-104117652D01*
X152641300Y-104368600D01*
X152517475Y-104367742D01*
X152455501Y-104365602D01*
X152395423Y-104360613D01*
X152346938Y-104353683D01*
X152332276Y-104350389D01*
X152266362Y-104326036D01*
X152218048Y-104290583D01*
X152180097Y-104238250D01*
X152171400Y-104221889D01*
X152139650Y-104159050D01*
X152131852Y-103035100D01*
X152019000Y-103035100D01*
X152019000Y-102781100D01*
X152133300Y-102781100D01*
X152133300Y-102476300D01*
X152450800Y-102476300D01*
X152450800Y-102781100D01*
X152450800Y-102781100D01*
G37*
X152450800Y-102781100D02*
X152641300Y-102781100D01*
X152641300Y-103035100D01*
X152450800Y-103035100D01*
X152450800Y-103547022D01*
X152450950Y-103679634D01*
X152451446Y-103789006D01*
X152452360Y-103877292D01*
X152453759Y-103946653D01*
X152455715Y-103999243D01*
X152458297Y-104037221D01*
X152461575Y-104062743D01*
X152465619Y-104077968D01*
X152468143Y-104082663D01*
X152488228Y-104098205D01*
X152524202Y-104107811D01*
X152563393Y-104112017D01*
X152641300Y-104117652D01*
X152641300Y-104368600D01*
X152517475Y-104367742D01*
X152455501Y-104365602D01*
X152395423Y-104360613D01*
X152346938Y-104353683D01*
X152332276Y-104350389D01*
X152266362Y-104326036D01*
X152218048Y-104290583D01*
X152180097Y-104238250D01*
X152171400Y-104221889D01*
X152139650Y-104159050D01*
X152131852Y-103035100D01*
X152019000Y-103035100D01*
X152019000Y-102781100D01*
X152133300Y-102781100D01*
X152133300Y-102476300D01*
X152450800Y-102476300D01*
X152450800Y-102781100D01*
G36*
X154066875Y-102479058D02*
X154181220Y-102481666D01*
X154273514Y-102485572D01*
X154347101Y-102491508D01*
X154405323Y-102500206D01*
X154451523Y-102512399D01*
X154489043Y-102528819D01*
X154521228Y-102550198D01*
X154551419Y-102577267D01*
X154561293Y-102587343D01*
X154593960Y-102625306D01*
X154620025Y-102665805D01*
X154640082Y-102711996D01*
X154654725Y-102767032D01*
X154664545Y-102834070D01*
X154670137Y-102916263D01*
X154672094Y-103016767D01*
X154671009Y-103138737D01*
X154670440Y-103167827D01*
X154667780Y-103269883D01*
X154664116Y-103350515D01*
X154658746Y-103413696D01*
X154650965Y-103463399D01*
X154640070Y-103503599D01*
X154625357Y-103538269D01*
X154606123Y-103571382D01*
X154596402Y-103585965D01*
X154552062Y-103637262D01*
X154496301Y-103676121D01*
X154425920Y-103703790D01*
X154337720Y-103721517D01*
X154228502Y-103730552D01*
X154225625Y-103730671D01*
X154076400Y-103736730D01*
X154076400Y-104368600D01*
X153758900Y-104368600D01*
X153758900Y-102755700D01*
X154076400Y-102755700D01*
X154076400Y-103479600D01*
X154146657Y-103479600D01*
X154195967Y-103476096D01*
X154242629Y-103467182D01*
X154261414Y-103461007D01*
X154287042Y-103447912D01*
X154306749Y-103430570D01*
X154321293Y-103405745D01*
X154331427Y-103370200D01*
X154337910Y-103320699D01*
X154341497Y-103254006D01*
X154342942Y-103166883D01*
X154343100Y-103111299D01*
X154342453Y-103006943D01*
X154339602Y-102925222D01*
X154333176Y-102863383D01*
X154321806Y-102818676D01*
X154304123Y-102788348D01*
X154278757Y-102769648D01*
X154244339Y-102759824D01*
X154199499Y-102756124D01*
X154166134Y-102755700D01*
X154076400Y-102755700D01*
X153758900Y-102755700D01*
X153758900Y-102473694D01*
X154066875Y-102479058D01*
X154066875Y-102479058D01*
G37*
X154066875Y-102479058D02*
X154181220Y-102481666D01*
X154273514Y-102485572D01*
X154347101Y-102491508D01*
X154405323Y-102500206D01*
X154451523Y-102512399D01*
X154489043Y-102528819D01*
X154521228Y-102550198D01*
X154551419Y-102577267D01*
X154561293Y-102587343D01*
X154593960Y-102625306D01*
X154620025Y-102665805D01*
X154640082Y-102711996D01*
X154654725Y-102767032D01*
X154664545Y-102834070D01*
X154670137Y-102916263D01*
X154672094Y-103016767D01*
X154671009Y-103138737D01*
X154670440Y-103167827D01*
X154667780Y-103269883D01*
X154664116Y-103350515D01*
X154658746Y-103413696D01*
X154650965Y-103463399D01*
X154640070Y-103503599D01*
X154625357Y-103538269D01*
X154606123Y-103571382D01*
X154596402Y-103585965D01*
X154552062Y-103637262D01*
X154496301Y-103676121D01*
X154425920Y-103703790D01*
X154337720Y-103721517D01*
X154228502Y-103730552D01*
X154225625Y-103730671D01*
X154076400Y-103736730D01*
X154076400Y-104368600D01*
X153758900Y-104368600D01*
X153758900Y-102755700D01*
X154076400Y-102755700D01*
X154076400Y-103479600D01*
X154146657Y-103479600D01*
X154195967Y-103476096D01*
X154242629Y-103467182D01*
X154261414Y-103461007D01*
X154287042Y-103447912D01*
X154306749Y-103430570D01*
X154321293Y-103405745D01*
X154331427Y-103370200D01*
X154337910Y-103320699D01*
X154341497Y-103254006D01*
X154342942Y-103166883D01*
X154343100Y-103111299D01*
X154342453Y-103006943D01*
X154339602Y-102925222D01*
X154333176Y-102863383D01*
X154321806Y-102818676D01*
X154304123Y-102788348D01*
X154278757Y-102769648D01*
X154244339Y-102759824D01*
X154199499Y-102756124D01*
X154166134Y-102755700D01*
X154076400Y-102755700D01*
X153758900Y-102755700D01*
X153758900Y-102473694D01*
X154066875Y-102479058D01*
G36*
X155549600Y-102755700D02*
X155105100Y-102755700D01*
X155105100Y-103276400D01*
X155422600Y-103276400D01*
X155422600Y-103543100D01*
X155105100Y-103543100D01*
X155105100Y-104101900D01*
X155549600Y-104101900D01*
X155549600Y-104368600D01*
X154774900Y-104368600D01*
X154774900Y-102476300D01*
X155549600Y-102476300D01*
X155549600Y-102755700D01*
X155549600Y-102755700D01*
G37*
X155549600Y-102755700D02*
X155105100Y-102755700D01*
X155105100Y-103276400D01*
X155422600Y-103276400D01*
X155422600Y-103543100D01*
X155105100Y-103543100D01*
X155105100Y-104101900D01*
X155549600Y-104101900D01*
X155549600Y-104368600D01*
X154774900Y-104368600D01*
X154774900Y-102476300D01*
X155549600Y-102476300D01*
X155549600Y-102755700D01*
G36*
X158544569Y-102476574D02*
X158588917Y-102477775D01*
X158615631Y-102480473D01*
X158628596Y-102485235D01*
X158631692Y-102492631D01*
X158630442Y-102498525D01*
X158625468Y-102514897D01*
X158613945Y-102553097D01*
X158596628Y-102610624D01*
X158574266Y-102684977D01*
X158547612Y-102773657D01*
X158517418Y-102874161D01*
X158484436Y-102983989D01*
X158451937Y-103092250D01*
X158280400Y-103663750D01*
X158280100Y-104368600D01*
X157949900Y-104368600D01*
X157949900Y-103639357D01*
X157778450Y-103071343D01*
X157743682Y-102955876D01*
X157711277Y-102847714D01*
X157681960Y-102749312D01*
X157656453Y-102663127D01*
X157635482Y-102591614D01*
X157619771Y-102537229D01*
X157610042Y-102502429D01*
X157607000Y-102489814D01*
X157619567Y-102483565D01*
X157656877Y-102479212D01*
X157718338Y-102476804D01*
X157776103Y-102476300D01*
X157945207Y-102476300D01*
X158032037Y-102803325D01*
X158055479Y-102891088D01*
X158077128Y-102971138D01*
X158096044Y-103040077D01*
X158111286Y-103094511D01*
X158121916Y-103131045D01*
X158126915Y-103146139D01*
X158132301Y-103139076D01*
X158142992Y-103110626D01*
X158157982Y-103064005D01*
X158176261Y-103002429D01*
X158196823Y-102929113D01*
X158208516Y-102885789D01*
X158231067Y-102801327D01*
X158252604Y-102721039D01*
X158271864Y-102649598D01*
X158287588Y-102591675D01*
X158298514Y-102551944D01*
X158301035Y-102542974D01*
X158320002Y-102476299D01*
X158478706Y-102476299D01*
X158544569Y-102476574D01*
X158544569Y-102476574D01*
G37*
X158544569Y-102476574D02*
X158588917Y-102477775D01*
X158615631Y-102480473D01*
X158628596Y-102485235D01*
X158631692Y-102492631D01*
X158630442Y-102498525D01*
X158625468Y-102514897D01*
X158613945Y-102553097D01*
X158596628Y-102610624D01*
X158574266Y-102684977D01*
X158547612Y-102773657D01*
X158517418Y-102874161D01*
X158484436Y-102983989D01*
X158451937Y-103092250D01*
X158280400Y-103663750D01*
X158280100Y-104368600D01*
X157949900Y-104368600D01*
X157949900Y-103639357D01*
X157778450Y-103071343D01*
X157743682Y-102955876D01*
X157711277Y-102847714D01*
X157681960Y-102749312D01*
X157656453Y-102663127D01*
X157635482Y-102591614D01*
X157619771Y-102537229D01*
X157610042Y-102502429D01*
X157607000Y-102489814D01*
X157619567Y-102483565D01*
X157656877Y-102479212D01*
X157718338Y-102476804D01*
X157776103Y-102476300D01*
X157945207Y-102476300D01*
X158032037Y-102803325D01*
X158055479Y-102891088D01*
X158077128Y-102971138D01*
X158096044Y-103040077D01*
X158111286Y-103094511D01*
X158121916Y-103131045D01*
X158126915Y-103146139D01*
X158132301Y-103139076D01*
X158142992Y-103110626D01*
X158157982Y-103064005D01*
X158176261Y-103002429D01*
X158196823Y-102929113D01*
X158208516Y-102885789D01*
X158231067Y-102801327D01*
X158252604Y-102721039D01*
X158271864Y-102649598D01*
X158287588Y-102591675D01*
X158298514Y-102551944D01*
X158301035Y-102542974D01*
X158320002Y-102476299D01*
X158478706Y-102476299D01*
X158544569Y-102476574D01*
G36*
X158838900Y-104368600D02*
X158521400Y-104368600D01*
X158521400Y-104051100D01*
X158838900Y-104051100D01*
X158838900Y-104368600D01*
X158838900Y-104368600D01*
G37*
X158838900Y-104368600D02*
X158521400Y-104368600D01*
X158521400Y-104051100D01*
X158838900Y-104051100D01*
X158838900Y-104368600D01*
G36*
X161577747Y-102777018D02*
X161645022Y-102803402D01*
X161696649Y-102848345D01*
X161716913Y-102877702D01*
X161749768Y-102933764D01*
X161787341Y-102881897D01*
X161842855Y-102826466D01*
X161915175Y-102789054D01*
X162002397Y-102770498D01*
X162044815Y-102768524D01*
X162134059Y-102777964D01*
X162206740Y-102806637D01*
X162263016Y-102854657D01*
X162303049Y-102922141D01*
X162317576Y-102965250D01*
X162321080Y-102991809D01*
X162324083Y-103043356D01*
X162326578Y-103119479D01*
X162328557Y-103219771D01*
X162330011Y-103343823D01*
X162330934Y-103491226D01*
X162331318Y-103661571D01*
X162331329Y-103692325D01*
X162331400Y-104368600D01*
X162026600Y-104368600D01*
X162026529Y-103762175D01*
X162026211Y-103603522D01*
X162025311Y-103465055D01*
X162023845Y-103347653D01*
X162021832Y-103252193D01*
X162019291Y-103179554D01*
X162016239Y-103130613D01*
X162012952Y-103107110D01*
X161989000Y-103062441D01*
X161949719Y-103035498D01*
X161900045Y-103028694D01*
X161866540Y-103035532D01*
X161848829Y-103041555D01*
X161833900Y-103048348D01*
X161821514Y-103057986D01*
X161811433Y-103072546D01*
X161803422Y-103094102D01*
X161797241Y-103124732D01*
X161792654Y-103166510D01*
X161789423Y-103221511D01*
X161787311Y-103291813D01*
X161786080Y-103379490D01*
X161785493Y-103486619D01*
X161785311Y-103615274D01*
X161785300Y-103745669D01*
X161785300Y-104368600D01*
X161467800Y-104368600D01*
X161467612Y-103743125D01*
X161467540Y-103595293D01*
X161467283Y-103470749D01*
X161466631Y-103367382D01*
X161465379Y-103283079D01*
X161463319Y-103215728D01*
X161460244Y-103163218D01*
X161455945Y-103123437D01*
X161450216Y-103094272D01*
X161442850Y-103073612D01*
X161433639Y-103059344D01*
X161422375Y-103049358D01*
X161408852Y-103041541D01*
X161398215Y-103036365D01*
X161369848Y-103025988D01*
X161342603Y-103026688D01*
X161309687Y-103036365D01*
X161272362Y-103054021D01*
X161251033Y-103079331D01*
X161243091Y-103098600D01*
X161239194Y-103118839D01*
X161235905Y-103155724D01*
X161233193Y-103210551D01*
X161231025Y-103284616D01*
X161229371Y-103379217D01*
X161228200Y-103495649D01*
X161227479Y-103635209D01*
X161227216Y-103755825D01*
X161226500Y-104368600D01*
X160909000Y-104368600D01*
X160909000Y-102781100D01*
X161226500Y-102781100D01*
X161226500Y-102924610D01*
X161263458Y-102873590D01*
X161318492Y-102818292D01*
X161388646Y-102783346D01*
X161473727Y-102768840D01*
X161493200Y-102768400D01*
X161577747Y-102777018D01*
X161577747Y-102777018D01*
G37*
X161577747Y-102777018D02*
X161645022Y-102803402D01*
X161696649Y-102848345D01*
X161716913Y-102877702D01*
X161749768Y-102933764D01*
X161787341Y-102881897D01*
X161842855Y-102826466D01*
X161915175Y-102789054D01*
X162002397Y-102770498D01*
X162044815Y-102768524D01*
X162134059Y-102777964D01*
X162206740Y-102806637D01*
X162263016Y-102854657D01*
X162303049Y-102922141D01*
X162317576Y-102965250D01*
X162321080Y-102991809D01*
X162324083Y-103043356D01*
X162326578Y-103119479D01*
X162328557Y-103219771D01*
X162330011Y-103343823D01*
X162330934Y-103491226D01*
X162331318Y-103661571D01*
X162331329Y-103692325D01*
X162331400Y-104368600D01*
X162026600Y-104368600D01*
X162026529Y-103762175D01*
X162026211Y-103603522D01*
X162025311Y-103465055D01*
X162023845Y-103347653D01*
X162021832Y-103252193D01*
X162019291Y-103179554D01*
X162016239Y-103130613D01*
X162012952Y-103107110D01*
X161989000Y-103062441D01*
X161949719Y-103035498D01*
X161900045Y-103028694D01*
X161866540Y-103035532D01*
X161848829Y-103041555D01*
X161833900Y-103048348D01*
X161821514Y-103057986D01*
X161811433Y-103072546D01*
X161803422Y-103094102D01*
X161797241Y-103124732D01*
X161792654Y-103166510D01*
X161789423Y-103221511D01*
X161787311Y-103291813D01*
X161786080Y-103379490D01*
X161785493Y-103486619D01*
X161785311Y-103615274D01*
X161785300Y-103745669D01*
X161785300Y-104368600D01*
X161467800Y-104368600D01*
X161467612Y-103743125D01*
X161467540Y-103595293D01*
X161467283Y-103470749D01*
X161466631Y-103367382D01*
X161465379Y-103283079D01*
X161463319Y-103215728D01*
X161460244Y-103163218D01*
X161455945Y-103123437D01*
X161450216Y-103094272D01*
X161442850Y-103073612D01*
X161433639Y-103059344D01*
X161422375Y-103049358D01*
X161408852Y-103041541D01*
X161398215Y-103036365D01*
X161369848Y-103025988D01*
X161342603Y-103026688D01*
X161309687Y-103036365D01*
X161272362Y-103054021D01*
X161251033Y-103079331D01*
X161243091Y-103098600D01*
X161239194Y-103118839D01*
X161235905Y-103155724D01*
X161233193Y-103210551D01*
X161231025Y-103284616D01*
X161229371Y-103379217D01*
X161228200Y-103495649D01*
X161227479Y-103635209D01*
X161227216Y-103755825D01*
X161226500Y-104368600D01*
X160909000Y-104368600D01*
X160909000Y-102781100D01*
X161226500Y-102781100D01*
X161226500Y-102924610D01*
X161263458Y-102873590D01*
X161318492Y-102818292D01*
X161388646Y-102783346D01*
X161473727Y-102768840D01*
X161493200Y-102768400D01*
X161577747Y-102777018D01*
G36*
X149961600Y-102730300D02*
X149644100Y-102730300D01*
X149644100Y-102476300D01*
X149961600Y-102476300D01*
X149961600Y-102730300D01*
X149961600Y-102730300D01*
G37*
X149961600Y-102730300D02*
X149644100Y-102730300D01*
X149644100Y-102476300D01*
X149961600Y-102476300D01*
X149961600Y-102730300D01*
D12*
X154940000Y-81280000D03*
D13*
X154940000Y-91440000D03*
D12*
X152400000Y-81280000D03*
D13*
X152400000Y-91440000D03*
D12*
X149860000Y-81280000D03*
D13*
X149860000Y-91440000D03*
D12*
X147320000Y-81280000D03*
D13*
X147320000Y-91440000D03*
D12*
X144780000Y-81280000D03*
D13*
X144780000Y-91440000D03*
D14*
X136700260Y-75079860D03*
D15*
X139471400Y-75079860D03*
X142240000Y-75079860D03*
X145008600Y-75079860D03*
X147779740Y-75079860D03*
X138092180Y-72240140D03*
X140860780Y-72240140D03*
X143619220Y-72240140D03*
X146387820Y-72240140D03*
D16*
X129740660Y-73660000D03*
X154739340Y-73660000D03*
D17*
X193040000Y-132080000D03*
X190500000Y-132080000D03*
X187960000Y-132080000D03*
X185420000Y-132080000D03*
X182880000Y-132080000D03*
X180340000Y-132080000D03*
X177800000Y-132080000D03*
X175260000Y-132080000D03*
X193040000Y-127000000D03*
X190500000Y-127000000D03*
X187960000Y-127000000D03*
X185420000Y-127000000D03*
X182880000Y-127000000D03*
X180340000Y-127000000D03*
X177800000Y-127000000D03*
X175260000Y-127000000D03*
X124460000Y-127000000D03*
X124460000Y-132080000D03*
X127000000Y-127000000D03*
X127000000Y-132080000D03*
X129540000Y-127000000D03*
X129540000Y-132080000D03*
X132080000Y-127000000D03*
X132080000Y-132080000D03*
X137160000Y-127000000D03*
X137160000Y-132080000D03*
X139700000Y-127000000D03*
X139700000Y-132080000D03*
X142240000Y-127000000D03*
X142240000Y-132080000D03*
X144780000Y-127000000D03*
X144780000Y-132080000D03*
X147320000Y-127000000D03*
X147320000Y-132080000D03*
X149860000Y-127000000D03*
X149860000Y-132080000D03*
X152400000Y-127000000D03*
X152400000Y-132080000D03*
X154940000Y-127000000D03*
X154940000Y-132080000D03*
X157480000Y-127000000D03*
X157480000Y-132080000D03*
X160020000Y-127000000D03*
X160020000Y-132080000D03*
X162560000Y-127000000D03*
X162560000Y-132080000D03*
X165100000Y-127000000D03*
X165100000Y-132080000D03*
X167640000Y-127000000D03*
X167640000Y-132080000D03*
X170180000Y-127000000D03*
X170180000Y-132080000D03*
X172720000Y-127000000D03*
X172720000Y-132080000D03*
D18*
X137160000Y-114300000D03*
D19*
X129540000Y-99060000D03*
X137160000Y-111760000D03*
X129540000Y-101600000D03*
X137160000Y-109220000D03*
X129540000Y-104140000D03*
X137160000Y-106680000D03*
X129540000Y-106680000D03*
X137160000Y-104140000D03*
X129540000Y-109220000D03*
X137160000Y-101600000D03*
X129540000Y-111760000D03*
X137160000Y-99060000D03*
X129540000Y-114300000D03*
D18*
X182880000Y-114300000D03*
D19*
X167640000Y-81280000D03*
X182880000Y-111760000D03*
X167640000Y-83820000D03*
X182880000Y-109220000D03*
X167640000Y-86360000D03*
X182880000Y-106680000D03*
X167640000Y-88900000D03*
X182880000Y-104140000D03*
X167640000Y-91440000D03*
X182880000Y-101600000D03*
X167640000Y-93980000D03*
X182880000Y-99060000D03*
X167640000Y-96520000D03*
X182880000Y-96520000D03*
X167640000Y-99060000D03*
X182880000Y-93980000D03*
X167640000Y-101600000D03*
X182880000Y-91440000D03*
X167640000Y-104140000D03*
X182880000Y-88900000D03*
X167640000Y-106680000D03*
X182880000Y-86360000D03*
X167640000Y-109220000D03*
X182880000Y-83820000D03*
X167640000Y-111760000D03*
X182880000Y-81280000D03*
X167640000Y-114300000D03*
D20*
X150230000Y-113445000D03*
M02*
