G04 #@! TF.FileFunction,Legend,Top*
%FSLAX46Y46*%
G04 Gerber Fmt 4.6, Leading zero omitted, Abs format (unit mm)*
G04 Created by KiCad (PCBNEW 4.0.5) date 11/19/17 14:30:07*
%MOMM*%
%LPD*%
G01*
G04 APERTURE LIST*
%ADD10C,0.100000*%
%ADD11C,0.175000*%
%ADD12C,0.200000*%
%ADD13C,0.120000*%
%ADD14C,0.320000*%
%ADD15C,0.203200*%
%ADD16C,0.010000*%
%ADD17C,0.150000*%
%ADD18C,0.125000*%
%ADD19C,0.250000*%
G04 APERTURE END LIST*
D10*
D11*
X141033337Y-110171667D02*
X140800003Y-109838333D01*
X140633337Y-110171667D02*
X140633337Y-109471667D01*
X140900003Y-109471667D01*
X140966670Y-109505000D01*
X141000003Y-109538333D01*
X141033337Y-109605000D01*
X141033337Y-109705000D01*
X141000003Y-109771667D01*
X140966670Y-109805000D01*
X140900003Y-109838333D01*
X140633337Y-109838333D01*
X141600003Y-110138333D02*
X141533337Y-110171667D01*
X141400003Y-110171667D01*
X141333337Y-110138333D01*
X141300003Y-110071667D01*
X141300003Y-109805000D01*
X141333337Y-109738333D01*
X141400003Y-109705000D01*
X141533337Y-109705000D01*
X141600003Y-109738333D01*
X141633337Y-109805000D01*
X141633337Y-109871667D01*
X141300003Y-109938333D01*
X141866670Y-109705000D02*
X142033337Y-110171667D01*
X142200003Y-109705000D01*
X142733336Y-110138333D02*
X142666670Y-110171667D01*
X142533336Y-110171667D01*
X142466670Y-110138333D01*
X142433336Y-110071667D01*
X142433336Y-109805000D01*
X142466670Y-109738333D01*
X142533336Y-109705000D01*
X142666670Y-109705000D01*
X142733336Y-109738333D01*
X142766670Y-109805000D01*
X142766670Y-109871667D01*
X142433336Y-109938333D01*
X143066670Y-110171667D02*
X143066670Y-109705000D01*
X143066670Y-109838333D02*
X143100003Y-109771667D01*
X143133336Y-109738333D01*
X143200003Y-109705000D01*
X143266670Y-109705000D01*
X143466669Y-110138333D02*
X143533336Y-110171667D01*
X143666669Y-110171667D01*
X143733336Y-110138333D01*
X143766669Y-110071667D01*
X143766669Y-110038333D01*
X143733336Y-109971667D01*
X143666669Y-109938333D01*
X143566669Y-109938333D01*
X143500003Y-109905000D01*
X143466669Y-109838333D01*
X143466669Y-109805000D01*
X143500003Y-109738333D01*
X143566669Y-109705000D01*
X143666669Y-109705000D01*
X143733336Y-109738333D01*
X144333336Y-110138333D02*
X144266670Y-110171667D01*
X144133336Y-110171667D01*
X144066670Y-110138333D01*
X144033336Y-110071667D01*
X144033336Y-109805000D01*
X144066670Y-109738333D01*
X144133336Y-109705000D01*
X144266670Y-109705000D01*
X144333336Y-109738333D01*
X144366670Y-109805000D01*
X144366670Y-109871667D01*
X144033336Y-109938333D01*
X145466669Y-110138333D02*
X145400003Y-110171667D01*
X145266669Y-110171667D01*
X145200003Y-110138333D01*
X145166669Y-110071667D01*
X145166669Y-109805000D01*
X145200003Y-109738333D01*
X145266669Y-109705000D01*
X145400003Y-109705000D01*
X145466669Y-109738333D01*
X145500003Y-109805000D01*
X145500003Y-109871667D01*
X145166669Y-109938333D01*
X145800003Y-109705000D02*
X145800003Y-110171667D01*
X145800003Y-109771667D02*
X145833336Y-109738333D01*
X145900003Y-109705000D01*
X146000003Y-109705000D01*
X146066669Y-109738333D01*
X146100003Y-109805000D01*
X146100003Y-110171667D01*
X146733336Y-109705000D02*
X146733336Y-110271667D01*
X146700002Y-110338333D01*
X146666669Y-110371667D01*
X146600002Y-110405000D01*
X146500002Y-110405000D01*
X146433336Y-110371667D01*
X146733336Y-110138333D02*
X146666669Y-110171667D01*
X146533336Y-110171667D01*
X146466669Y-110138333D01*
X146433336Y-110105000D01*
X146400002Y-110038333D01*
X146400002Y-109838333D01*
X146433336Y-109771667D01*
X146466669Y-109738333D01*
X146533336Y-109705000D01*
X146666669Y-109705000D01*
X146733336Y-109738333D01*
X147066669Y-110171667D02*
X147066669Y-109705000D01*
X147066669Y-109471667D02*
X147033335Y-109505000D01*
X147066669Y-109538333D01*
X147100002Y-109505000D01*
X147066669Y-109471667D01*
X147066669Y-109538333D01*
X147400002Y-109705000D02*
X147400002Y-110171667D01*
X147400002Y-109771667D02*
X147433335Y-109738333D01*
X147500002Y-109705000D01*
X147600002Y-109705000D01*
X147666668Y-109738333D01*
X147700002Y-109805000D01*
X147700002Y-110171667D01*
X148300001Y-110138333D02*
X148233335Y-110171667D01*
X148100001Y-110171667D01*
X148033335Y-110138333D01*
X148000001Y-110071667D01*
X148000001Y-109805000D01*
X148033335Y-109738333D01*
X148100001Y-109705000D01*
X148233335Y-109705000D01*
X148300001Y-109738333D01*
X148333335Y-109805000D01*
X148333335Y-109871667D01*
X148000001Y-109938333D01*
X148900001Y-110138333D02*
X148833335Y-110171667D01*
X148700001Y-110171667D01*
X148633335Y-110138333D01*
X148600001Y-110071667D01*
X148600001Y-109805000D01*
X148633335Y-109738333D01*
X148700001Y-109705000D01*
X148833335Y-109705000D01*
X148900001Y-109738333D01*
X148933335Y-109805000D01*
X148933335Y-109871667D01*
X148600001Y-109938333D01*
X149233335Y-110171667D02*
X149233335Y-109705000D01*
X149233335Y-109838333D02*
X149266668Y-109771667D01*
X149300001Y-109738333D01*
X149366668Y-109705000D01*
X149433335Y-109705000D01*
X149933334Y-110138333D02*
X149866668Y-110171667D01*
X149733334Y-110171667D01*
X149666668Y-110138333D01*
X149633334Y-110071667D01*
X149633334Y-109805000D01*
X149666668Y-109738333D01*
X149733334Y-109705000D01*
X149866668Y-109705000D01*
X149933334Y-109738333D01*
X149966668Y-109805000D01*
X149966668Y-109871667D01*
X149633334Y-109938333D01*
X150566668Y-110171667D02*
X150566668Y-109471667D01*
X150566668Y-110138333D02*
X150500001Y-110171667D01*
X150366668Y-110171667D01*
X150300001Y-110138333D01*
X150266668Y-110105000D01*
X150233334Y-110038333D01*
X150233334Y-109838333D01*
X150266668Y-109771667D01*
X150300001Y-109738333D01*
X150366668Y-109705000D01*
X150500001Y-109705000D01*
X150566668Y-109738333D01*
X151433334Y-110171667D02*
X151433334Y-109471667D01*
X151433334Y-109738333D02*
X151500000Y-109705000D01*
X151633334Y-109705000D01*
X151700000Y-109738333D01*
X151733334Y-109771667D01*
X151766667Y-109838333D01*
X151766667Y-110038333D01*
X151733334Y-110105000D01*
X151700000Y-110138333D01*
X151633334Y-110171667D01*
X151500000Y-110171667D01*
X151433334Y-110138333D01*
X152000000Y-109705000D02*
X152166667Y-110171667D01*
X152333333Y-109705000D02*
X152166667Y-110171667D01*
X152100000Y-110338333D01*
X152066667Y-110371667D01*
X152000000Y-110405000D01*
X153099999Y-110138333D02*
X153199999Y-110171667D01*
X153366666Y-110171667D01*
X153433333Y-110138333D01*
X153466666Y-110105000D01*
X153499999Y-110038333D01*
X153499999Y-109971667D01*
X153466666Y-109905000D01*
X153433333Y-109871667D01*
X153366666Y-109838333D01*
X153233333Y-109805000D01*
X153166666Y-109771667D01*
X153133333Y-109738333D01*
X153099999Y-109671667D01*
X153099999Y-109605000D01*
X153133333Y-109538333D01*
X153166666Y-109505000D01*
X153233333Y-109471667D01*
X153399999Y-109471667D01*
X153499999Y-109505000D01*
X153700000Y-109705000D02*
X153966666Y-109705000D01*
X153800000Y-109471667D02*
X153800000Y-110071667D01*
X153833333Y-110138333D01*
X153900000Y-110171667D01*
X153966666Y-110171667D01*
X154466666Y-110138333D02*
X154400000Y-110171667D01*
X154266666Y-110171667D01*
X154200000Y-110138333D01*
X154166666Y-110071667D01*
X154166666Y-109805000D01*
X154200000Y-109738333D01*
X154266666Y-109705000D01*
X154400000Y-109705000D01*
X154466666Y-109738333D01*
X154500000Y-109805000D01*
X154500000Y-109871667D01*
X154166666Y-109938333D01*
X154733333Y-109705000D02*
X154900000Y-110171667D01*
X155066666Y-109705000D01*
X155599999Y-110138333D02*
X155533333Y-110171667D01*
X155399999Y-110171667D01*
X155333333Y-110138333D01*
X155299999Y-110071667D01*
X155299999Y-109805000D01*
X155333333Y-109738333D01*
X155399999Y-109705000D01*
X155533333Y-109705000D01*
X155599999Y-109738333D01*
X155633333Y-109805000D01*
X155633333Y-109871667D01*
X155299999Y-109938333D01*
X156433332Y-110138333D02*
X156533332Y-110171667D01*
X156699999Y-110171667D01*
X156766666Y-110138333D01*
X156799999Y-110105000D01*
X156833332Y-110038333D01*
X156833332Y-109971667D01*
X156799999Y-109905000D01*
X156766666Y-109871667D01*
X156699999Y-109838333D01*
X156566666Y-109805000D01*
X156499999Y-109771667D01*
X156466666Y-109738333D01*
X156433332Y-109671667D01*
X156433332Y-109605000D01*
X156466666Y-109538333D01*
X156499999Y-109505000D01*
X156566666Y-109471667D01*
X156733332Y-109471667D01*
X156833332Y-109505000D01*
X157133333Y-110171667D02*
X157133333Y-109705000D01*
X157133333Y-109771667D02*
X157166666Y-109738333D01*
X157233333Y-109705000D01*
X157333333Y-109705000D01*
X157399999Y-109738333D01*
X157433333Y-109805000D01*
X157433333Y-110171667D01*
X157433333Y-109805000D02*
X157466666Y-109738333D01*
X157533333Y-109705000D01*
X157633333Y-109705000D01*
X157699999Y-109738333D01*
X157733333Y-109805000D01*
X157733333Y-110171667D01*
X158066666Y-110171667D02*
X158066666Y-109705000D01*
X158066666Y-109471667D02*
X158033332Y-109505000D01*
X158066666Y-109538333D01*
X158099999Y-109505000D01*
X158066666Y-109471667D01*
X158066666Y-109538333D01*
X158299999Y-109705000D02*
X158566665Y-109705000D01*
X158399999Y-109471667D02*
X158399999Y-110071667D01*
X158433332Y-110138333D01*
X158499999Y-110171667D01*
X158566665Y-110171667D01*
X158799999Y-110171667D02*
X158799999Y-109471667D01*
X159099999Y-110171667D02*
X159099999Y-109805000D01*
X159066665Y-109738333D01*
X158999999Y-109705000D01*
X158899999Y-109705000D01*
X158833332Y-109738333D01*
X158799999Y-109771667D01*
X159966665Y-109905000D02*
X160499998Y-109905000D01*
X161733331Y-109505000D02*
X161666665Y-109471667D01*
X161566665Y-109471667D01*
X161466665Y-109505000D01*
X161399998Y-109571667D01*
X161366665Y-109638333D01*
X161333331Y-109771667D01*
X161333331Y-109871667D01*
X161366665Y-110005000D01*
X161399998Y-110071667D01*
X161466665Y-110138333D01*
X161566665Y-110171667D01*
X161633331Y-110171667D01*
X161733331Y-110138333D01*
X161766665Y-110105000D01*
X161766665Y-109871667D01*
X161633331Y-109871667D01*
X162199998Y-109471667D02*
X162266665Y-109471667D01*
X162333331Y-109505000D01*
X162366665Y-109538333D01*
X162399998Y-109605000D01*
X162433331Y-109738333D01*
X162433331Y-109905000D01*
X162399998Y-110038333D01*
X162366665Y-110105000D01*
X162333331Y-110138333D01*
X162266665Y-110171667D01*
X162199998Y-110171667D01*
X162133331Y-110138333D01*
X162099998Y-110105000D01*
X162066665Y-110038333D01*
X162033331Y-109905000D01*
X162033331Y-109738333D01*
X162066665Y-109605000D01*
X162099998Y-109538333D01*
X162133331Y-109505000D01*
X162199998Y-109471667D01*
X162633332Y-109471667D02*
X163033332Y-109471667D01*
X162833332Y-110171667D02*
X162833332Y-109471667D01*
X163266665Y-110171667D02*
X163266665Y-109471667D01*
X163433331Y-109471667D01*
X163533331Y-109505000D01*
X163599998Y-109571667D01*
X163633331Y-109638333D01*
X163666665Y-109771667D01*
X163666665Y-109871667D01*
X163633331Y-110005000D01*
X163599998Y-110071667D01*
X163533331Y-110138333D01*
X163433331Y-110171667D01*
X163266665Y-110171667D01*
X164166665Y-109471667D02*
X164166665Y-109971667D01*
X164133331Y-110071667D01*
X164066665Y-110138333D01*
X163966665Y-110171667D01*
X163899998Y-110171667D01*
D12*
X141028570Y-106341905D02*
X141028570Y-105541905D01*
X141295237Y-106113333D01*
X141561904Y-105541905D01*
X141561904Y-106341905D01*
X141942856Y-106341905D02*
X141942856Y-105541905D01*
X142323808Y-106341905D02*
X142323808Y-105541905D01*
X142780951Y-106341905D02*
X142438094Y-105884762D01*
X142780951Y-105541905D02*
X142323808Y-105999048D01*
X143580951Y-106341905D02*
X143314284Y-105960952D01*
X143123808Y-106341905D02*
X143123808Y-105541905D01*
X143428570Y-105541905D01*
X143504761Y-105580000D01*
X143542856Y-105618095D01*
X143580951Y-105694286D01*
X143580951Y-105808571D01*
X143542856Y-105884762D01*
X143504761Y-105922857D01*
X143428570Y-105960952D01*
X143123808Y-105960952D01*
X144076189Y-105541905D02*
X144228570Y-105541905D01*
X144304761Y-105580000D01*
X144380951Y-105656190D01*
X144419046Y-105808571D01*
X144419046Y-106075238D01*
X144380951Y-106227619D01*
X144304761Y-106303810D01*
X144228570Y-106341905D01*
X144076189Y-106341905D01*
X143999999Y-106303810D01*
X143923808Y-106227619D01*
X143885713Y-106075238D01*
X143885713Y-105808571D01*
X143923808Y-105656190D01*
X143999999Y-105580000D01*
X144076189Y-105541905D01*
X145790475Y-105580000D02*
X145714284Y-105541905D01*
X145599999Y-105541905D01*
X145485713Y-105580000D01*
X145409522Y-105656190D01*
X145371427Y-105732381D01*
X145333332Y-105884762D01*
X145333332Y-105999048D01*
X145371427Y-106151429D01*
X145409522Y-106227619D01*
X145485713Y-106303810D01*
X145599999Y-106341905D01*
X145676189Y-106341905D01*
X145790475Y-106303810D01*
X145828570Y-106265714D01*
X145828570Y-105999048D01*
X145676189Y-105999048D01*
X146171427Y-105922857D02*
X146438094Y-105922857D01*
X146552380Y-106341905D02*
X146171427Y-106341905D01*
X146171427Y-105541905D01*
X146552380Y-105541905D01*
X146895237Y-106341905D02*
X146895237Y-105541905D01*
X147352380Y-106341905D01*
X147352380Y-105541905D01*
X148342856Y-106037143D02*
X148952380Y-106037143D01*
X149904761Y-106303810D02*
X150019047Y-106341905D01*
X150209523Y-106341905D01*
X150285713Y-106303810D01*
X150323809Y-106265714D01*
X150361904Y-106189524D01*
X150361904Y-106113333D01*
X150323809Y-106037143D01*
X150285713Y-105999048D01*
X150209523Y-105960952D01*
X150057142Y-105922857D01*
X149980951Y-105884762D01*
X149942856Y-105846667D01*
X149904761Y-105770476D01*
X149904761Y-105694286D01*
X149942856Y-105618095D01*
X149980951Y-105580000D01*
X150057142Y-105541905D01*
X150247618Y-105541905D01*
X150361904Y-105580000D01*
X150704761Y-106341905D02*
X150704761Y-105541905D01*
X151047618Y-106341905D02*
X151047618Y-105922857D01*
X151009523Y-105846667D01*
X150933333Y-105808571D01*
X150819047Y-105808571D01*
X150742856Y-105846667D01*
X150704761Y-105884762D01*
X151771428Y-106341905D02*
X151771428Y-105922857D01*
X151733333Y-105846667D01*
X151657143Y-105808571D01*
X151504762Y-105808571D01*
X151428571Y-105846667D01*
X151771428Y-106303810D02*
X151695238Y-106341905D01*
X151504762Y-106341905D01*
X151428571Y-106303810D01*
X151390476Y-106227619D01*
X151390476Y-106151429D01*
X151428571Y-106075238D01*
X151504762Y-106037143D01*
X151695238Y-106037143D01*
X151771428Y-105999048D01*
X152495238Y-106341905D02*
X152495238Y-105541905D01*
X152495238Y-106303810D02*
X152419048Y-106341905D01*
X152266667Y-106341905D01*
X152190476Y-106303810D01*
X152152381Y-106265714D01*
X152114286Y-106189524D01*
X152114286Y-105960952D01*
X152152381Y-105884762D01*
X152190476Y-105846667D01*
X152266667Y-105808571D01*
X152419048Y-105808571D01*
X152495238Y-105846667D01*
X152990477Y-106341905D02*
X152914286Y-106303810D01*
X152876191Y-106265714D01*
X152838096Y-106189524D01*
X152838096Y-105960952D01*
X152876191Y-105884762D01*
X152914286Y-105846667D01*
X152990477Y-105808571D01*
X153104763Y-105808571D01*
X153180953Y-105846667D01*
X153219048Y-105884762D01*
X153257144Y-105960952D01*
X153257144Y-106189524D01*
X153219048Y-106265714D01*
X153180953Y-106303810D01*
X153104763Y-106341905D01*
X152990477Y-106341905D01*
X153523811Y-105808571D02*
X153676192Y-106341905D01*
X153828573Y-105960952D01*
X153980954Y-106341905D01*
X154133335Y-105808571D01*
X155200001Y-105541905D02*
X155352382Y-105541905D01*
X155428573Y-105580000D01*
X155504763Y-105656190D01*
X155542858Y-105808571D01*
X155542858Y-106075238D01*
X155504763Y-106227619D01*
X155428573Y-106303810D01*
X155352382Y-106341905D01*
X155200001Y-106341905D01*
X155123811Y-106303810D01*
X155047620Y-106227619D01*
X155009525Y-106075238D01*
X155009525Y-105808571D01*
X155047620Y-105656190D01*
X155123811Y-105580000D01*
X155200001Y-105541905D01*
X155771429Y-105808571D02*
X156076191Y-105808571D01*
X155885715Y-106341905D02*
X155885715Y-105656190D01*
X155923810Y-105580000D01*
X156000001Y-105541905D01*
X156076191Y-105541905D01*
X156838096Y-105541905D02*
X157295239Y-105541905D01*
X157066668Y-106341905D02*
X157066668Y-105541905D01*
X157561906Y-106341905D02*
X157561906Y-105541905D01*
X157904763Y-106341905D02*
X157904763Y-105922857D01*
X157866668Y-105846667D01*
X157790478Y-105808571D01*
X157676192Y-105808571D01*
X157600001Y-105846667D01*
X157561906Y-105884762D01*
X158590478Y-106303810D02*
X158514288Y-106341905D01*
X158361907Y-106341905D01*
X158285716Y-106303810D01*
X158247621Y-106227619D01*
X158247621Y-105922857D01*
X158285716Y-105846667D01*
X158361907Y-105808571D01*
X158514288Y-105808571D01*
X158590478Y-105846667D01*
X158628573Y-105922857D01*
X158628573Y-105999048D01*
X158247621Y-106075238D01*
X159580954Y-105541905D02*
X159580954Y-106189524D01*
X159619049Y-106265714D01*
X159657145Y-106303810D01*
X159733335Y-106341905D01*
X159885716Y-106341905D01*
X159961907Y-106303810D01*
X160000002Y-106265714D01*
X160038097Y-106189524D01*
X160038097Y-105541905D01*
X160419049Y-105808571D02*
X160419049Y-106341905D01*
X160419049Y-105884762D02*
X160457144Y-105846667D01*
X160533335Y-105808571D01*
X160647621Y-105808571D01*
X160723811Y-105846667D01*
X160761906Y-105922857D01*
X160761906Y-106341905D01*
X161142859Y-106341905D02*
X161142859Y-105808571D01*
X161142859Y-105541905D02*
X161104764Y-105580000D01*
X161142859Y-105618095D01*
X161180954Y-105580000D01*
X161142859Y-105541905D01*
X161142859Y-105618095D01*
X161866668Y-106303810D02*
X161790478Y-106341905D01*
X161638097Y-106341905D01*
X161561906Y-106303810D01*
X161523811Y-106265714D01*
X161485716Y-106189524D01*
X161485716Y-105960952D01*
X161523811Y-105884762D01*
X161561906Y-105846667D01*
X161638097Y-105808571D01*
X161790478Y-105808571D01*
X161866668Y-105846667D01*
X162323811Y-106341905D02*
X162247620Y-106303810D01*
X162209525Y-106265714D01*
X162171430Y-106189524D01*
X162171430Y-105960952D01*
X162209525Y-105884762D01*
X162247620Y-105846667D01*
X162323811Y-105808571D01*
X162438097Y-105808571D01*
X162514287Y-105846667D01*
X162552382Y-105884762D01*
X162590478Y-105960952D01*
X162590478Y-106189524D01*
X162552382Y-106265714D01*
X162514287Y-106303810D01*
X162438097Y-106341905D01*
X162323811Y-106341905D01*
X162933335Y-106341905D02*
X162933335Y-105808571D01*
X162933335Y-105960952D02*
X162971430Y-105884762D01*
X163009526Y-105846667D01*
X163085716Y-105808571D01*
X163161907Y-105808571D01*
X163428573Y-105808571D02*
X163428573Y-106341905D01*
X163428573Y-105884762D02*
X163466668Y-105846667D01*
X163542859Y-105808571D01*
X163657145Y-105808571D01*
X163733335Y-105846667D01*
X163771430Y-105922857D01*
X163771430Y-106341905D01*
X144514285Y-107741905D02*
X144514285Y-106941905D01*
X144895237Y-107208571D02*
X144895237Y-107741905D01*
X144895237Y-107284762D02*
X144933332Y-107246667D01*
X145009523Y-107208571D01*
X145123809Y-107208571D01*
X145199999Y-107246667D01*
X145238094Y-107322857D01*
X145238094Y-107741905D01*
X145504761Y-107208571D02*
X145809523Y-107208571D01*
X145619047Y-106941905D02*
X145619047Y-107627619D01*
X145657142Y-107703810D01*
X145733333Y-107741905D01*
X145809523Y-107741905D01*
X146380952Y-107703810D02*
X146304762Y-107741905D01*
X146152381Y-107741905D01*
X146076190Y-107703810D01*
X146038095Y-107627619D01*
X146038095Y-107322857D01*
X146076190Y-107246667D01*
X146152381Y-107208571D01*
X146304762Y-107208571D01*
X146380952Y-107246667D01*
X146419047Y-107322857D01*
X146419047Y-107399048D01*
X146038095Y-107475238D01*
X146761904Y-107741905D02*
X146761904Y-107208571D01*
X146761904Y-107360952D02*
X146799999Y-107284762D01*
X146838095Y-107246667D01*
X146914285Y-107208571D01*
X146990476Y-107208571D01*
X147142856Y-107208571D02*
X147447618Y-107208571D01*
X147257142Y-107741905D02*
X147257142Y-107056190D01*
X147295237Y-106980000D01*
X147371428Y-106941905D01*
X147447618Y-106941905D01*
X148057142Y-107741905D02*
X148057142Y-107322857D01*
X148019047Y-107246667D01*
X147942857Y-107208571D01*
X147790476Y-107208571D01*
X147714285Y-107246667D01*
X148057142Y-107703810D02*
X147980952Y-107741905D01*
X147790476Y-107741905D01*
X147714285Y-107703810D01*
X147676190Y-107627619D01*
X147676190Y-107551429D01*
X147714285Y-107475238D01*
X147790476Y-107437143D01*
X147980952Y-107437143D01*
X148057142Y-107399048D01*
X148780952Y-107703810D02*
X148704762Y-107741905D01*
X148552381Y-107741905D01*
X148476190Y-107703810D01*
X148438095Y-107665714D01*
X148400000Y-107589524D01*
X148400000Y-107360952D01*
X148438095Y-107284762D01*
X148476190Y-107246667D01*
X148552381Y-107208571D01*
X148704762Y-107208571D01*
X148780952Y-107246667D01*
X149428571Y-107703810D02*
X149352381Y-107741905D01*
X149200000Y-107741905D01*
X149123809Y-107703810D01*
X149085714Y-107627619D01*
X149085714Y-107322857D01*
X149123809Y-107246667D01*
X149200000Y-107208571D01*
X149352381Y-107208571D01*
X149428571Y-107246667D01*
X149466666Y-107322857D01*
X149466666Y-107399048D01*
X149085714Y-107475238D01*
X150876190Y-107741905D02*
X150609523Y-107360952D01*
X150419047Y-107741905D02*
X150419047Y-106941905D01*
X150723809Y-106941905D01*
X150800000Y-106980000D01*
X150838095Y-107018095D01*
X150876190Y-107094286D01*
X150876190Y-107208571D01*
X150838095Y-107284762D01*
X150800000Y-107322857D01*
X150723809Y-107360952D01*
X150419047Y-107360952D01*
X151523809Y-107703810D02*
X151447619Y-107741905D01*
X151295238Y-107741905D01*
X151219047Y-107703810D01*
X151180952Y-107627619D01*
X151180952Y-107322857D01*
X151219047Y-107246667D01*
X151295238Y-107208571D01*
X151447619Y-107208571D01*
X151523809Y-107246667D01*
X151561904Y-107322857D01*
X151561904Y-107399048D01*
X151180952Y-107475238D01*
X152247618Y-107703810D02*
X152171428Y-107741905D01*
X152019047Y-107741905D01*
X151942856Y-107703810D01*
X151904761Y-107665714D01*
X151866666Y-107589524D01*
X151866666Y-107360952D01*
X151904761Y-107284762D01*
X151942856Y-107246667D01*
X152019047Y-107208571D01*
X152171428Y-107208571D01*
X152247618Y-107246667D01*
X152590475Y-107741905D02*
X152590475Y-107208571D01*
X152590475Y-107360952D02*
X152628570Y-107284762D01*
X152666666Y-107246667D01*
X152742856Y-107208571D01*
X152819047Y-107208571D01*
X153390475Y-107703810D02*
X153314285Y-107741905D01*
X153161904Y-107741905D01*
X153085713Y-107703810D01*
X153047618Y-107627619D01*
X153047618Y-107322857D01*
X153085713Y-107246667D01*
X153161904Y-107208571D01*
X153314285Y-107208571D01*
X153390475Y-107246667D01*
X153428570Y-107322857D01*
X153428570Y-107399048D01*
X153047618Y-107475238D01*
X154114284Y-107741905D02*
X154114284Y-107322857D01*
X154076189Y-107246667D01*
X153999999Y-107208571D01*
X153847618Y-107208571D01*
X153771427Y-107246667D01*
X154114284Y-107703810D02*
X154038094Y-107741905D01*
X153847618Y-107741905D01*
X153771427Y-107703810D01*
X153733332Y-107627619D01*
X153733332Y-107551429D01*
X153771427Y-107475238D01*
X153847618Y-107437143D01*
X154038094Y-107437143D01*
X154114284Y-107399048D01*
X154380951Y-107208571D02*
X154685713Y-107208571D01*
X154495237Y-106941905D02*
X154495237Y-107627619D01*
X154533332Y-107703810D01*
X154609523Y-107741905D01*
X154685713Y-107741905D01*
X154952380Y-107741905D02*
X154952380Y-107208571D01*
X154952380Y-106941905D02*
X154914285Y-106980000D01*
X154952380Y-107018095D01*
X154990475Y-106980000D01*
X154952380Y-106941905D01*
X154952380Y-107018095D01*
X155447618Y-107741905D02*
X155371427Y-107703810D01*
X155333332Y-107665714D01*
X155295237Y-107589524D01*
X155295237Y-107360952D01*
X155333332Y-107284762D01*
X155371427Y-107246667D01*
X155447618Y-107208571D01*
X155561904Y-107208571D01*
X155638094Y-107246667D01*
X155676189Y-107284762D01*
X155714285Y-107360952D01*
X155714285Y-107589524D01*
X155676189Y-107665714D01*
X155638094Y-107703810D01*
X155561904Y-107741905D01*
X155447618Y-107741905D01*
X156057142Y-107208571D02*
X156057142Y-107741905D01*
X156057142Y-107284762D02*
X156095237Y-107246667D01*
X156171428Y-107208571D01*
X156285714Y-107208571D01*
X156361904Y-107246667D01*
X156399999Y-107322857D01*
X156399999Y-107741905D01*
X157314286Y-107208571D02*
X157504762Y-107741905D01*
X157695238Y-107208571D01*
X158419048Y-107741905D02*
X157961905Y-107741905D01*
X158190476Y-107741905D02*
X158190476Y-106941905D01*
X158114286Y-107056190D01*
X158038095Y-107132381D01*
X157961905Y-107170476D01*
X158761905Y-107665714D02*
X158800000Y-107703810D01*
X158761905Y-107741905D01*
X158723810Y-107703810D01*
X158761905Y-107665714D01*
X158761905Y-107741905D01*
X159295238Y-106941905D02*
X159371429Y-106941905D01*
X159447619Y-106980000D01*
X159485714Y-107018095D01*
X159523810Y-107094286D01*
X159561905Y-107246667D01*
X159561905Y-107437143D01*
X159523810Y-107589524D01*
X159485714Y-107665714D01*
X159447619Y-107703810D01*
X159371429Y-107741905D01*
X159295238Y-107741905D01*
X159219048Y-107703810D01*
X159180952Y-107665714D01*
X159142857Y-107589524D01*
X159104762Y-107437143D01*
X159104762Y-107246667D01*
X159142857Y-107094286D01*
X159180952Y-107018095D01*
X159219048Y-106980000D01*
X159295238Y-106941905D01*
X160057143Y-106941905D02*
X160133334Y-106941905D01*
X160209524Y-106980000D01*
X160247619Y-107018095D01*
X160285715Y-107094286D01*
X160323810Y-107246667D01*
X160323810Y-107437143D01*
X160285715Y-107589524D01*
X160247619Y-107665714D01*
X160209524Y-107703810D01*
X160133334Y-107741905D01*
X160057143Y-107741905D01*
X159980953Y-107703810D01*
X159942857Y-107665714D01*
X159904762Y-107589524D01*
X159866667Y-107437143D01*
X159866667Y-107246667D01*
X159904762Y-107094286D01*
X159942857Y-107018095D01*
X159980953Y-106980000D01*
X160057143Y-106941905D01*
D13*
X154940000Y-88260000D02*
X154940000Y-90360000D01*
X154940000Y-84160000D02*
X154940000Y-82260000D01*
D14*
X154010000Y-84870000D02*
X155810000Y-84870000D01*
D13*
X155910000Y-84170000D02*
X155910000Y-84270000D01*
X153910000Y-84170000D02*
X153910000Y-84270000D01*
X153910000Y-88270000D02*
X153910000Y-84270000D01*
X153910000Y-84170000D02*
X155910000Y-84170000D01*
X155910000Y-84270000D02*
X155910000Y-88270000D01*
X155910000Y-88270000D02*
X153910000Y-88270000D01*
X152400000Y-88260000D02*
X152400000Y-90360000D01*
X152400000Y-84160000D02*
X152400000Y-82260000D01*
D14*
X151470000Y-84870000D02*
X153270000Y-84870000D01*
D13*
X153370000Y-84170000D02*
X153370000Y-84270000D01*
X151370000Y-84170000D02*
X151370000Y-84270000D01*
X151370000Y-88270000D02*
X151370000Y-84270000D01*
X151370000Y-84170000D02*
X153370000Y-84170000D01*
X153370000Y-84270000D02*
X153370000Y-88270000D01*
X153370000Y-88270000D02*
X151370000Y-88270000D01*
X149860000Y-88260000D02*
X149860000Y-90360000D01*
X149860000Y-84160000D02*
X149860000Y-82260000D01*
D14*
X148930000Y-84870000D02*
X150730000Y-84870000D01*
D13*
X150830000Y-84170000D02*
X150830000Y-84270000D01*
X148830000Y-84170000D02*
X148830000Y-84270000D01*
X148830000Y-88270000D02*
X148830000Y-84270000D01*
X148830000Y-84170000D02*
X150830000Y-84170000D01*
X150830000Y-84270000D02*
X150830000Y-88270000D01*
X150830000Y-88270000D02*
X148830000Y-88270000D01*
X147320000Y-88260000D02*
X147320000Y-90360000D01*
X147320000Y-84160000D02*
X147320000Y-82260000D01*
D14*
X146390000Y-84870000D02*
X148190000Y-84870000D01*
D13*
X148290000Y-84170000D02*
X148290000Y-84270000D01*
X146290000Y-84170000D02*
X146290000Y-84270000D01*
X146290000Y-88270000D02*
X146290000Y-84270000D01*
X146290000Y-84170000D02*
X148290000Y-84170000D01*
X148290000Y-84270000D02*
X148290000Y-88270000D01*
X148290000Y-88270000D02*
X146290000Y-88270000D01*
X144780000Y-88260000D02*
X144780000Y-90360000D01*
X144780000Y-84160000D02*
X144780000Y-82260000D01*
D14*
X143850000Y-84870000D02*
X145650000Y-84870000D01*
D13*
X145750000Y-84170000D02*
X145750000Y-84270000D01*
X143750000Y-84170000D02*
X143750000Y-84270000D01*
X143750000Y-88270000D02*
X143750000Y-84270000D01*
X143750000Y-84170000D02*
X145750000Y-84170000D01*
X145750000Y-84270000D02*
X145750000Y-88270000D01*
X145750000Y-88270000D02*
X143750000Y-88270000D01*
D15*
X126842520Y-76459080D02*
X126842520Y-71120000D01*
X157637480Y-76459080D02*
X157637480Y-71120000D01*
X126842520Y-76459080D02*
X157637480Y-76459080D01*
D13*
X132350000Y-115630000D02*
G75*
G02X134350000Y-115630000I1000000J0D01*
G01*
X134350000Y-115630000D02*
X136000000Y-115630000D01*
X136000000Y-115630000D02*
X136000000Y-97730000D01*
X136000000Y-97730000D02*
X130700000Y-97730000D01*
X130700000Y-97730000D02*
X130700000Y-115630000D01*
X130700000Y-115630000D02*
X132350000Y-115630000D01*
X174260000Y-115630000D02*
G75*
G02X176260000Y-115630000I1000000J0D01*
G01*
X176260000Y-115630000D02*
X181720000Y-115630000D01*
X181720000Y-115630000D02*
X181720000Y-79950000D01*
X181720000Y-79950000D02*
X168800000Y-79950000D01*
X168800000Y-79950000D02*
X168800000Y-115630000D01*
X168800000Y-115630000D02*
X174260000Y-115630000D01*
D16*
G36*
X150268123Y-112916881D02*
X150294873Y-112917486D01*
X150315587Y-112918671D01*
X150332537Y-112920671D01*
X150347996Y-112923718D01*
X150364238Y-112928047D01*
X150374856Y-112931220D01*
X150440528Y-112955253D01*
X150499308Y-112985629D01*
X150553626Y-113023804D01*
X150601466Y-113066783D01*
X150651119Y-113123065D01*
X150691533Y-113184072D01*
X150722448Y-113249274D01*
X150743601Y-113318140D01*
X150753346Y-113375741D01*
X150756937Y-113408231D01*
X150781454Y-113411734D01*
X150810690Y-113419862D01*
X150832888Y-113435261D01*
X150842559Y-113447087D01*
X150843455Y-113448680D01*
X150844293Y-113450965D01*
X150845075Y-113454280D01*
X150845805Y-113458966D01*
X150846482Y-113465365D01*
X150847111Y-113473816D01*
X150847691Y-113484661D01*
X150848225Y-113498239D01*
X150848716Y-113514891D01*
X150849164Y-113534958D01*
X150849572Y-113558780D01*
X150849942Y-113586697D01*
X150850275Y-113619051D01*
X150850574Y-113656182D01*
X150850840Y-113698430D01*
X150851075Y-113746136D01*
X150851281Y-113799640D01*
X150851460Y-113859283D01*
X150851614Y-113925405D01*
X150851745Y-113998348D01*
X150851854Y-114078450D01*
X150851944Y-114166054D01*
X150852017Y-114261499D01*
X150852073Y-114365126D01*
X150852116Y-114477276D01*
X150852146Y-114598289D01*
X150852167Y-114728505D01*
X150852179Y-114868265D01*
X150852186Y-115017911D01*
X150852187Y-115177781D01*
X150852187Y-115186354D01*
X150852186Y-115346685D01*
X150852181Y-115496773D01*
X150852171Y-115636961D01*
X150852153Y-115767590D01*
X150852126Y-115889001D01*
X150852087Y-116001536D01*
X150852035Y-116105536D01*
X150851967Y-116201342D01*
X150851883Y-116289297D01*
X150851779Y-116369741D01*
X150851653Y-116443015D01*
X150851505Y-116509462D01*
X150851331Y-116569423D01*
X150851131Y-116623239D01*
X150850901Y-116671251D01*
X150850640Y-116713801D01*
X150850346Y-116751230D01*
X150850018Y-116783880D01*
X150849652Y-116812093D01*
X150849248Y-116836208D01*
X150848803Y-116856569D01*
X150848315Y-116873516D01*
X150847783Y-116887391D01*
X150847204Y-116898535D01*
X150846576Y-116907290D01*
X150845898Y-116913997D01*
X150845167Y-116918997D01*
X150844382Y-116922632D01*
X150843540Y-116925243D01*
X150842640Y-116927172D01*
X150842210Y-116927918D01*
X150831008Y-116941948D01*
X150817851Y-116952892D01*
X150817581Y-116953054D01*
X150815725Y-116953824D01*
X150812632Y-116954548D01*
X150807982Y-116955226D01*
X150801453Y-116955861D01*
X150792724Y-116956452D01*
X150781473Y-116957002D01*
X150767379Y-116957513D01*
X150750121Y-116957985D01*
X150729378Y-116958421D01*
X150704828Y-116958820D01*
X150676149Y-116959186D01*
X150643021Y-116959519D01*
X150605122Y-116959821D01*
X150562131Y-116960094D01*
X150513726Y-116960338D01*
X150459587Y-116960555D01*
X150399391Y-116960746D01*
X150332818Y-116960914D01*
X150259546Y-116961059D01*
X150179254Y-116961182D01*
X150091621Y-116961286D01*
X149996324Y-116961372D01*
X149893044Y-116961441D01*
X149781458Y-116961494D01*
X149661246Y-116961533D01*
X149532085Y-116961560D01*
X149393655Y-116961575D01*
X149245635Y-116961581D01*
X149087702Y-116961578D01*
X148919536Y-116961569D01*
X148904038Y-116961568D01*
X148734923Y-116961553D01*
X148576071Y-116961532D01*
X148427159Y-116961505D01*
X148287869Y-116961470D01*
X148157877Y-116961425D01*
X148036863Y-116961368D01*
X147924507Y-116961299D01*
X147820487Y-116961216D01*
X147724482Y-116961117D01*
X147636170Y-116961002D01*
X147555232Y-116960867D01*
X147481346Y-116960713D01*
X147414191Y-116960537D01*
X147353445Y-116960338D01*
X147298789Y-116960115D01*
X147249900Y-116959866D01*
X147206458Y-116959589D01*
X147168142Y-116959284D01*
X147134630Y-116958948D01*
X147105603Y-116958581D01*
X147080738Y-116958180D01*
X147059714Y-116957745D01*
X147042211Y-116957273D01*
X147027908Y-116956764D01*
X147016483Y-116956215D01*
X147007616Y-116955626D01*
X147000985Y-116954995D01*
X146996269Y-116954320D01*
X146993148Y-116953600D01*
X146991300Y-116952834D01*
X146991243Y-116952799D01*
X146978085Y-116941583D01*
X146968754Y-116929634D01*
X146967953Y-116927696D01*
X146967204Y-116924457D01*
X146966503Y-116919580D01*
X146965851Y-116912729D01*
X146965244Y-116903567D01*
X146964681Y-116891757D01*
X146964162Y-116876963D01*
X146963683Y-116858849D01*
X146963244Y-116837077D01*
X146962842Y-116811312D01*
X146962476Y-116781217D01*
X146962145Y-116746454D01*
X146961846Y-116706688D01*
X146961579Y-116661582D01*
X146961341Y-116610800D01*
X146961131Y-116554004D01*
X146960946Y-116490858D01*
X146960787Y-116421027D01*
X146960649Y-116344172D01*
X146960534Y-116259958D01*
X146960437Y-116168048D01*
X146960358Y-116068106D01*
X146960296Y-115959794D01*
X146960248Y-115842777D01*
X146960213Y-115716717D01*
X146960189Y-115581279D01*
X146960174Y-115436125D01*
X146960167Y-115280919D01*
X146960167Y-115025916D01*
X146960170Y-114875720D01*
X146960178Y-114735426D01*
X146960193Y-114604692D01*
X146960216Y-114483177D01*
X146960250Y-114370542D01*
X146960297Y-114266444D01*
X146960359Y-114170542D01*
X146960437Y-114082497D01*
X146960535Y-114001966D01*
X146960654Y-113928610D01*
X146960795Y-113862086D01*
X146960901Y-113823750D01*
X147182295Y-113823750D01*
X147207028Y-113854116D01*
X147233599Y-113892776D01*
X147256295Y-113937617D01*
X147273048Y-113984392D01*
X147276063Y-113995881D01*
X147277077Y-114000660D01*
X147278015Y-114006557D01*
X147278880Y-114013996D01*
X147279675Y-114023402D01*
X147280405Y-114035200D01*
X147281074Y-114049812D01*
X147281686Y-114067664D01*
X147282243Y-114089181D01*
X147282751Y-114114786D01*
X147283213Y-114144904D01*
X147283634Y-114179959D01*
X147284015Y-114220376D01*
X147284363Y-114266578D01*
X147284680Y-114318992D01*
X147284971Y-114378040D01*
X147285239Y-114444147D01*
X147285488Y-114517737D01*
X147285722Y-114599235D01*
X147285945Y-114689066D01*
X147286161Y-114787653D01*
X147286374Y-114895421D01*
X147286587Y-115012795D01*
X147286804Y-115140198D01*
X147286872Y-115181063D01*
X147287064Y-115312713D01*
X147287197Y-115438812D01*
X147287272Y-115559013D01*
X147287290Y-115672972D01*
X147287252Y-115780345D01*
X147287159Y-115880788D01*
X147287012Y-115973955D01*
X147286812Y-116059502D01*
X147286559Y-116137084D01*
X147286254Y-116206357D01*
X147285899Y-116266977D01*
X147285494Y-116318599D01*
X147285041Y-116360877D01*
X147284539Y-116393469D01*
X147283990Y-116416028D01*
X147283639Y-116424604D01*
X147281419Y-116461840D01*
X147279098Y-116490667D01*
X147276380Y-116513256D01*
X147272969Y-116531779D01*
X147268569Y-116548410D01*
X147265417Y-116558127D01*
X147247562Y-116602123D01*
X147225653Y-116639883D01*
X147206465Y-116665093D01*
X147196157Y-116677787D01*
X147189344Y-116686857D01*
X147187708Y-116689688D01*
X147192871Y-116690015D01*
X147207841Y-116690327D01*
X147231846Y-116690620D01*
X147264108Y-116690890D01*
X147303853Y-116691134D01*
X147350307Y-116691347D01*
X147402694Y-116691527D01*
X147460239Y-116691668D01*
X147522168Y-116691769D01*
X147587704Y-116691824D01*
X147629875Y-116691834D01*
X147711187Y-116691805D01*
X147782479Y-116691714D01*
X147844314Y-116691552D01*
X147897254Y-116691311D01*
X147941862Y-116690981D01*
X147978702Y-116690556D01*
X148008335Y-116690025D01*
X148031326Y-116689380D01*
X148048237Y-116688614D01*
X148059630Y-116687717D01*
X148066069Y-116686681D01*
X148068116Y-116685498D01*
X148068034Y-116685219D01*
X148062861Y-116677355D01*
X148053914Y-116664321D01*
X148047249Y-116654792D01*
X148031156Y-116627312D01*
X148015424Y-116591858D01*
X148001039Y-116551017D01*
X147988985Y-116507379D01*
X147985814Y-116493396D01*
X147983799Y-116483715D01*
X147982033Y-116474185D01*
X147980495Y-116464058D01*
X147979164Y-116452586D01*
X147978022Y-116439022D01*
X147977047Y-116422619D01*
X147976219Y-116402629D01*
X147975519Y-116378305D01*
X147974926Y-116348900D01*
X147974419Y-116313665D01*
X147973980Y-116271855D01*
X147973587Y-116222720D01*
X147973221Y-116165515D01*
X147972861Y-116099491D01*
X147972487Y-116023901D01*
X147972344Y-115994107D01*
X147971999Y-115909041D01*
X147971812Y-115832334D01*
X147971779Y-115764245D01*
X147971900Y-115705033D01*
X147972173Y-115654957D01*
X147972596Y-115614275D01*
X147973167Y-115583247D01*
X147973885Y-115562132D01*
X147974747Y-115551189D01*
X147975318Y-115549607D01*
X147979143Y-115554055D01*
X147988672Y-115566336D01*
X148003377Y-115585729D01*
X148022729Y-115611514D01*
X148046197Y-115642972D01*
X148073254Y-115679381D01*
X148103370Y-115720023D01*
X148136015Y-115764177D01*
X148170661Y-115811122D01*
X148206778Y-115860140D01*
X148243836Y-115910510D01*
X148281308Y-115961512D01*
X148318663Y-116012425D01*
X148355372Y-116062531D01*
X148390906Y-116111108D01*
X148424736Y-116157437D01*
X148456332Y-116200798D01*
X148485166Y-116240471D01*
X148510708Y-116275735D01*
X148532429Y-116305871D01*
X148549800Y-116330159D01*
X148562291Y-116347878D01*
X148566017Y-116353279D01*
X148596778Y-116400486D01*
X148624157Y-116446705D01*
X148646924Y-116489740D01*
X148663852Y-116527392D01*
X148665045Y-116530438D01*
X148670502Y-116546143D01*
X148674091Y-116561463D01*
X148676177Y-116579279D01*
X148677126Y-116602468D01*
X148677312Y-116627012D01*
X148677312Y-116691837D01*
X149162959Y-116691835D01*
X149648605Y-116691834D01*
X149645170Y-116688877D01*
X149817667Y-116688877D01*
X149822825Y-116689342D01*
X149837767Y-116689784D01*
X149861693Y-116690198D01*
X149893804Y-116690578D01*
X149933299Y-116690919D01*
X149979379Y-116691214D01*
X150031245Y-116691459D01*
X150088097Y-116691647D01*
X150149135Y-116691772D01*
X150213559Y-116691830D01*
X150233027Y-116691834D01*
X150648388Y-116691834D01*
X150629090Y-116666698D01*
X150605445Y-116629803D01*
X150585107Y-116585818D01*
X150575284Y-116557750D01*
X150574238Y-116553626D01*
X150573277Y-116547989D01*
X150572396Y-116540383D01*
X150571593Y-116530353D01*
X150570860Y-116517444D01*
X150570195Y-116501199D01*
X150569593Y-116481165D01*
X150569048Y-116456884D01*
X150568556Y-116427903D01*
X150568113Y-116393765D01*
X150567714Y-116354015D01*
X150567354Y-116308198D01*
X150567029Y-116255858D01*
X150566734Y-116196541D01*
X150566465Y-116129790D01*
X150566216Y-116055150D01*
X150565984Y-115972166D01*
X150565763Y-115880383D01*
X150565549Y-115779345D01*
X150565338Y-115668596D01*
X150565142Y-115558094D01*
X150563469Y-114585750D01*
X150190255Y-114585750D01*
X150115948Y-114585784D01*
X150051613Y-114585894D01*
X149996642Y-114586089D01*
X149950422Y-114586382D01*
X149912346Y-114586784D01*
X149881801Y-114587304D01*
X149858178Y-114587954D01*
X149840867Y-114588745D01*
X149829258Y-114589688D01*
X149822740Y-114590794D01*
X149820703Y-114592074D01*
X149820787Y-114592365D01*
X149827058Y-114601286D01*
X149833890Y-114609563D01*
X149843522Y-114623397D01*
X149854942Y-114644141D01*
X149866671Y-114668634D01*
X149877231Y-114693720D01*
X149885144Y-114716238D01*
X149887117Y-114723334D01*
X149888131Y-114732701D01*
X149889078Y-114751969D01*
X149889957Y-114780456D01*
X149890768Y-114817481D01*
X149891511Y-114862362D01*
X149892187Y-114914417D01*
X149892795Y-114972965D01*
X149893336Y-115037324D01*
X149893809Y-115106814D01*
X149894215Y-115180751D01*
X149894553Y-115258456D01*
X149894824Y-115339245D01*
X149895027Y-115422439D01*
X149895163Y-115507354D01*
X149895231Y-115593311D01*
X149895231Y-115679626D01*
X149895164Y-115765619D01*
X149895030Y-115850608D01*
X149894828Y-115933911D01*
X149894559Y-116014848D01*
X149894222Y-116092735D01*
X149893818Y-116166893D01*
X149893346Y-116236639D01*
X149892807Y-116301292D01*
X149892201Y-116360170D01*
X149891527Y-116412592D01*
X149890786Y-116457876D01*
X149889978Y-116495341D01*
X149889102Y-116524304D01*
X149888159Y-116544086D01*
X149887148Y-116554003D01*
X149887090Y-116554250D01*
X149876932Y-116585504D01*
X149862401Y-116618464D01*
X149845641Y-116648665D01*
X149833245Y-116666388D01*
X149824056Y-116678482D01*
X149818461Y-116686951D01*
X149817667Y-116688877D01*
X149645170Y-116688877D01*
X149611801Y-116660157D01*
X149593910Y-116643450D01*
X149570808Y-116619864D01*
X149543796Y-116590862D01*
X149514177Y-116557907D01*
X149483255Y-116522462D01*
X149452331Y-116485988D01*
X149422708Y-116449948D01*
X149406696Y-116429896D01*
X149399120Y-116419945D01*
X149385728Y-116401958D01*
X149366913Y-116376471D01*
X149343065Y-116344020D01*
X149314576Y-116305141D01*
X149281837Y-116260370D01*
X149245240Y-116210244D01*
X149205176Y-116155299D01*
X149162035Y-116096070D01*
X149116210Y-116033095D01*
X149068091Y-115966909D01*
X149018071Y-115898048D01*
X148966539Y-115827049D01*
X148932024Y-115779462D01*
X148494919Y-115176654D01*
X148512446Y-115155046D01*
X148517923Y-115148260D01*
X148529613Y-115133747D01*
X148547101Y-115112028D01*
X148569965Y-115083621D01*
X148597789Y-115049047D01*
X148630154Y-115008826D01*
X148666642Y-114963479D01*
X148706833Y-114913524D01*
X148750311Y-114859482D01*
X148796656Y-114801874D01*
X148845449Y-114741218D01*
X148896274Y-114678035D01*
X148947094Y-114614854D01*
X149000050Y-114549049D01*
X149051764Y-114484847D01*
X149101785Y-114422808D01*
X149149658Y-114363492D01*
X149194930Y-114307457D01*
X149237148Y-114255265D01*
X149275859Y-114207474D01*
X149310610Y-114164643D01*
X149340947Y-114127333D01*
X149366418Y-114096103D01*
X149386568Y-114071512D01*
X149400946Y-114054120D01*
X149408477Y-114045199D01*
X149435620Y-114014994D01*
X149466031Y-113983032D01*
X149498087Y-113950862D01*
X149530166Y-113920035D01*
X149560643Y-113892098D01*
X149587898Y-113868603D01*
X149610306Y-113851098D01*
X149615674Y-113847359D01*
X149650866Y-113823750D01*
X148691092Y-113823750D01*
X148696777Y-113840057D01*
X148699316Y-113853657D01*
X148700442Y-113873419D01*
X148699946Y-113894297D01*
X148693976Y-113932145D01*
X148680683Y-113973437D01*
X148659769Y-114018788D01*
X148630938Y-114068810D01*
X148593891Y-114124118D01*
X148577677Y-114146542D01*
X148568439Y-114158779D01*
X148553704Y-114177902D01*
X148534037Y-114203195D01*
X148510005Y-114233944D01*
X148482175Y-114269434D01*
X148451112Y-114308950D01*
X148417382Y-114351777D01*
X148381552Y-114397201D01*
X148344189Y-114444507D01*
X148305858Y-114492980D01*
X148267125Y-114541906D01*
X148228557Y-114590569D01*
X148190721Y-114638255D01*
X148154181Y-114684250D01*
X148119506Y-114727837D01*
X148087260Y-114768303D01*
X148058011Y-114804933D01*
X148032323Y-114837012D01*
X148010765Y-114863825D01*
X147993901Y-114884658D01*
X147982298Y-114898796D01*
X147976523Y-114905523D01*
X147976038Y-114905975D01*
X147975023Y-114901509D01*
X147974119Y-114887436D01*
X147973325Y-114864735D01*
X147972641Y-114834383D01*
X147972066Y-114797356D01*
X147971600Y-114754631D01*
X147971241Y-114707187D01*
X147970990Y-114655999D01*
X147970844Y-114602045D01*
X147970805Y-114546302D01*
X147970871Y-114489748D01*
X147971042Y-114433358D01*
X147971316Y-114378111D01*
X147971694Y-114324983D01*
X147972175Y-114274952D01*
X147972757Y-114228994D01*
X147973441Y-114188086D01*
X147974226Y-114153206D01*
X147975111Y-114125331D01*
X147976095Y-114105438D01*
X147976564Y-114099423D01*
X147985912Y-114031022D01*
X148000390Y-113969173D01*
X148019702Y-113914790D01*
X148043554Y-113868786D01*
X148057341Y-113848886D01*
X148076638Y-113823750D01*
X147182295Y-113823750D01*
X146960901Y-113823750D01*
X146960962Y-113802054D01*
X146961156Y-113748174D01*
X146961380Y-113700104D01*
X146961634Y-113657503D01*
X146961922Y-113620030D01*
X146962245Y-113587345D01*
X146962606Y-113559106D01*
X146963006Y-113534973D01*
X146963448Y-113514604D01*
X146963933Y-113497659D01*
X146964464Y-113483797D01*
X146965042Y-113472676D01*
X146965671Y-113463956D01*
X146966351Y-113457296D01*
X146967084Y-113452356D01*
X146967874Y-113448793D01*
X146968722Y-113446267D01*
X146969629Y-113444437D01*
X146970599Y-113442962D01*
X146970646Y-113442897D01*
X146982907Y-113430354D01*
X146983532Y-113429935D01*
X149849291Y-113429935D01*
X149850866Y-113477779D01*
X149856933Y-113521998D01*
X149859833Y-113534702D01*
X149879791Y-113591944D01*
X149908819Y-113645146D01*
X149945842Y-113693225D01*
X149989784Y-113735099D01*
X150039569Y-113769685D01*
X150094121Y-113795899D01*
X150131089Y-113807795D01*
X150163811Y-113813874D01*
X150202977Y-113817281D01*
X150244776Y-113817963D01*
X150285397Y-113815864D01*
X150321029Y-113810932D01*
X150323021Y-113810524D01*
X150369679Y-113796306D01*
X150417042Y-113773766D01*
X150462355Y-113744585D01*
X150502866Y-113710444D01*
X150524305Y-113687593D01*
X150557679Y-113640815D01*
X150584375Y-113587885D01*
X150594103Y-113561813D01*
X150599696Y-113543996D01*
X150603592Y-113528204D01*
X150606097Y-113511816D01*
X150607517Y-113492209D01*
X150608157Y-113466764D01*
X150608315Y-113440104D01*
X150608217Y-113408231D01*
X150607579Y-113384338D01*
X150606103Y-113365828D01*
X150603488Y-113350100D01*
X150599432Y-113334556D01*
X150594243Y-113318396D01*
X150571226Y-113265647D01*
X150539369Y-113216124D01*
X150500093Y-113171098D01*
X150454817Y-113131841D01*
X150404963Y-113099624D01*
X150351950Y-113075718D01*
X150309792Y-113063758D01*
X150266295Y-113058051D01*
X150217972Y-113057424D01*
X150169151Y-113061647D01*
X150124161Y-113070492D01*
X150111354Y-113074238D01*
X150054633Y-113097856D01*
X150002767Y-113130227D01*
X149956752Y-113170297D01*
X149917584Y-113217010D01*
X149886259Y-113269310D01*
X149863772Y-113326143D01*
X149859639Y-113340973D01*
X149852214Y-113382866D01*
X149849291Y-113429935D01*
X146983532Y-113429935D01*
X146998339Y-113420023D01*
X146999227Y-113419590D01*
X147001745Y-113418684D01*
X147005598Y-113417844D01*
X147011169Y-113417067D01*
X147018843Y-113416350D01*
X147029002Y-113415692D01*
X147042032Y-113415089D01*
X147058316Y-113414539D01*
X147078238Y-113414041D01*
X147102182Y-113413591D01*
X147130531Y-113413187D01*
X147163671Y-113412826D01*
X147201984Y-113412507D01*
X147245854Y-113412226D01*
X147295667Y-113411982D01*
X147351804Y-113411772D01*
X147414651Y-113411593D01*
X147484592Y-113411443D01*
X147562010Y-113411320D01*
X147647289Y-113411221D01*
X147740813Y-113411144D01*
X147842966Y-113411086D01*
X147954133Y-113411046D01*
X148074696Y-113411019D01*
X148205040Y-113411005D01*
X148345549Y-113411000D01*
X148358723Y-113411000D01*
X148500192Y-113410996D01*
X148631455Y-113410982D01*
X148752891Y-113410956D01*
X148864878Y-113410916D01*
X148967793Y-113410858D01*
X149062016Y-113410782D01*
X149147924Y-113410684D01*
X149225894Y-113410562D01*
X149296306Y-113410414D01*
X149359536Y-113410237D01*
X149415964Y-113410029D01*
X149465967Y-113409788D01*
X149509923Y-113409511D01*
X149548210Y-113409196D01*
X149581207Y-113408841D01*
X149609291Y-113408443D01*
X149632841Y-113408000D01*
X149652233Y-113407510D01*
X149667848Y-113406970D01*
X149680062Y-113406377D01*
X149689253Y-113405731D01*
X149695800Y-113405027D01*
X149700081Y-113404264D01*
X149702473Y-113403440D01*
X149703330Y-113402630D01*
X149705604Y-113391553D01*
X149706542Y-113376850D01*
X149708429Y-113358250D01*
X149713560Y-113332733D01*
X149721137Y-113303164D01*
X149730365Y-113272408D01*
X149740445Y-113243331D01*
X149750382Y-113219226D01*
X149782886Y-113160145D01*
X149823612Y-113104608D01*
X149871035Y-113054121D01*
X149923630Y-113010186D01*
X149979872Y-112974309D01*
X150016989Y-112956307D01*
X150051345Y-112942323D01*
X150081221Y-112931959D01*
X150109357Y-112924711D01*
X150138490Y-112920076D01*
X150171358Y-112917553D01*
X150210702Y-112916636D01*
X150233062Y-112916621D01*
X150268123Y-112916881D01*
X150268123Y-112916881D01*
G37*
X150268123Y-112916881D02*
X150294873Y-112917486D01*
X150315587Y-112918671D01*
X150332537Y-112920671D01*
X150347996Y-112923718D01*
X150364238Y-112928047D01*
X150374856Y-112931220D01*
X150440528Y-112955253D01*
X150499308Y-112985629D01*
X150553626Y-113023804D01*
X150601466Y-113066783D01*
X150651119Y-113123065D01*
X150691533Y-113184072D01*
X150722448Y-113249274D01*
X150743601Y-113318140D01*
X150753346Y-113375741D01*
X150756937Y-113408231D01*
X150781454Y-113411734D01*
X150810690Y-113419862D01*
X150832888Y-113435261D01*
X150842559Y-113447087D01*
X150843455Y-113448680D01*
X150844293Y-113450965D01*
X150845075Y-113454280D01*
X150845805Y-113458966D01*
X150846482Y-113465365D01*
X150847111Y-113473816D01*
X150847691Y-113484661D01*
X150848225Y-113498239D01*
X150848716Y-113514891D01*
X150849164Y-113534958D01*
X150849572Y-113558780D01*
X150849942Y-113586697D01*
X150850275Y-113619051D01*
X150850574Y-113656182D01*
X150850840Y-113698430D01*
X150851075Y-113746136D01*
X150851281Y-113799640D01*
X150851460Y-113859283D01*
X150851614Y-113925405D01*
X150851745Y-113998348D01*
X150851854Y-114078450D01*
X150851944Y-114166054D01*
X150852017Y-114261499D01*
X150852073Y-114365126D01*
X150852116Y-114477276D01*
X150852146Y-114598289D01*
X150852167Y-114728505D01*
X150852179Y-114868265D01*
X150852186Y-115017911D01*
X150852187Y-115177781D01*
X150852187Y-115186354D01*
X150852186Y-115346685D01*
X150852181Y-115496773D01*
X150852171Y-115636961D01*
X150852153Y-115767590D01*
X150852126Y-115889001D01*
X150852087Y-116001536D01*
X150852035Y-116105536D01*
X150851967Y-116201342D01*
X150851883Y-116289297D01*
X150851779Y-116369741D01*
X150851653Y-116443015D01*
X150851505Y-116509462D01*
X150851331Y-116569423D01*
X150851131Y-116623239D01*
X150850901Y-116671251D01*
X150850640Y-116713801D01*
X150850346Y-116751230D01*
X150850018Y-116783880D01*
X150849652Y-116812093D01*
X150849248Y-116836208D01*
X150848803Y-116856569D01*
X150848315Y-116873516D01*
X150847783Y-116887391D01*
X150847204Y-116898535D01*
X150846576Y-116907290D01*
X150845898Y-116913997D01*
X150845167Y-116918997D01*
X150844382Y-116922632D01*
X150843540Y-116925243D01*
X150842640Y-116927172D01*
X150842210Y-116927918D01*
X150831008Y-116941948D01*
X150817851Y-116952892D01*
X150817581Y-116953054D01*
X150815725Y-116953824D01*
X150812632Y-116954548D01*
X150807982Y-116955226D01*
X150801453Y-116955861D01*
X150792724Y-116956452D01*
X150781473Y-116957002D01*
X150767379Y-116957513D01*
X150750121Y-116957985D01*
X150729378Y-116958421D01*
X150704828Y-116958820D01*
X150676149Y-116959186D01*
X150643021Y-116959519D01*
X150605122Y-116959821D01*
X150562131Y-116960094D01*
X150513726Y-116960338D01*
X150459587Y-116960555D01*
X150399391Y-116960746D01*
X150332818Y-116960914D01*
X150259546Y-116961059D01*
X150179254Y-116961182D01*
X150091621Y-116961286D01*
X149996324Y-116961372D01*
X149893044Y-116961441D01*
X149781458Y-116961494D01*
X149661246Y-116961533D01*
X149532085Y-116961560D01*
X149393655Y-116961575D01*
X149245635Y-116961581D01*
X149087702Y-116961578D01*
X148919536Y-116961569D01*
X148904038Y-116961568D01*
X148734923Y-116961553D01*
X148576071Y-116961532D01*
X148427159Y-116961505D01*
X148287869Y-116961470D01*
X148157877Y-116961425D01*
X148036863Y-116961368D01*
X147924507Y-116961299D01*
X147820487Y-116961216D01*
X147724482Y-116961117D01*
X147636170Y-116961002D01*
X147555232Y-116960867D01*
X147481346Y-116960713D01*
X147414191Y-116960537D01*
X147353445Y-116960338D01*
X147298789Y-116960115D01*
X147249900Y-116959866D01*
X147206458Y-116959589D01*
X147168142Y-116959284D01*
X147134630Y-116958948D01*
X147105603Y-116958581D01*
X147080738Y-116958180D01*
X147059714Y-116957745D01*
X147042211Y-116957273D01*
X147027908Y-116956764D01*
X147016483Y-116956215D01*
X147007616Y-116955626D01*
X147000985Y-116954995D01*
X146996269Y-116954320D01*
X146993148Y-116953600D01*
X146991300Y-116952834D01*
X146991243Y-116952799D01*
X146978085Y-116941583D01*
X146968754Y-116929634D01*
X146967953Y-116927696D01*
X146967204Y-116924457D01*
X146966503Y-116919580D01*
X146965851Y-116912729D01*
X146965244Y-116903567D01*
X146964681Y-116891757D01*
X146964162Y-116876963D01*
X146963683Y-116858849D01*
X146963244Y-116837077D01*
X146962842Y-116811312D01*
X146962476Y-116781217D01*
X146962145Y-116746454D01*
X146961846Y-116706688D01*
X146961579Y-116661582D01*
X146961341Y-116610800D01*
X146961131Y-116554004D01*
X146960946Y-116490858D01*
X146960787Y-116421027D01*
X146960649Y-116344172D01*
X146960534Y-116259958D01*
X146960437Y-116168048D01*
X146960358Y-116068106D01*
X146960296Y-115959794D01*
X146960248Y-115842777D01*
X146960213Y-115716717D01*
X146960189Y-115581279D01*
X146960174Y-115436125D01*
X146960167Y-115280919D01*
X146960167Y-115025916D01*
X146960170Y-114875720D01*
X146960178Y-114735426D01*
X146960193Y-114604692D01*
X146960216Y-114483177D01*
X146960250Y-114370542D01*
X146960297Y-114266444D01*
X146960359Y-114170542D01*
X146960437Y-114082497D01*
X146960535Y-114001966D01*
X146960654Y-113928610D01*
X146960795Y-113862086D01*
X146960901Y-113823750D01*
X147182295Y-113823750D01*
X147207028Y-113854116D01*
X147233599Y-113892776D01*
X147256295Y-113937617D01*
X147273048Y-113984392D01*
X147276063Y-113995881D01*
X147277077Y-114000660D01*
X147278015Y-114006557D01*
X147278880Y-114013996D01*
X147279675Y-114023402D01*
X147280405Y-114035200D01*
X147281074Y-114049812D01*
X147281686Y-114067664D01*
X147282243Y-114089181D01*
X147282751Y-114114786D01*
X147283213Y-114144904D01*
X147283634Y-114179959D01*
X147284015Y-114220376D01*
X147284363Y-114266578D01*
X147284680Y-114318992D01*
X147284971Y-114378040D01*
X147285239Y-114444147D01*
X147285488Y-114517737D01*
X147285722Y-114599235D01*
X147285945Y-114689066D01*
X147286161Y-114787653D01*
X147286374Y-114895421D01*
X147286587Y-115012795D01*
X147286804Y-115140198D01*
X147286872Y-115181063D01*
X147287064Y-115312713D01*
X147287197Y-115438812D01*
X147287272Y-115559013D01*
X147287290Y-115672972D01*
X147287252Y-115780345D01*
X147287159Y-115880788D01*
X147287012Y-115973955D01*
X147286812Y-116059502D01*
X147286559Y-116137084D01*
X147286254Y-116206357D01*
X147285899Y-116266977D01*
X147285494Y-116318599D01*
X147285041Y-116360877D01*
X147284539Y-116393469D01*
X147283990Y-116416028D01*
X147283639Y-116424604D01*
X147281419Y-116461840D01*
X147279098Y-116490667D01*
X147276380Y-116513256D01*
X147272969Y-116531779D01*
X147268569Y-116548410D01*
X147265417Y-116558127D01*
X147247562Y-116602123D01*
X147225653Y-116639883D01*
X147206465Y-116665093D01*
X147196157Y-116677787D01*
X147189344Y-116686857D01*
X147187708Y-116689688D01*
X147192871Y-116690015D01*
X147207841Y-116690327D01*
X147231846Y-116690620D01*
X147264108Y-116690890D01*
X147303853Y-116691134D01*
X147350307Y-116691347D01*
X147402694Y-116691527D01*
X147460239Y-116691668D01*
X147522168Y-116691769D01*
X147587704Y-116691824D01*
X147629875Y-116691834D01*
X147711187Y-116691805D01*
X147782479Y-116691714D01*
X147844314Y-116691552D01*
X147897254Y-116691311D01*
X147941862Y-116690981D01*
X147978702Y-116690556D01*
X148008335Y-116690025D01*
X148031326Y-116689380D01*
X148048237Y-116688614D01*
X148059630Y-116687717D01*
X148066069Y-116686681D01*
X148068116Y-116685498D01*
X148068034Y-116685219D01*
X148062861Y-116677355D01*
X148053914Y-116664321D01*
X148047249Y-116654792D01*
X148031156Y-116627312D01*
X148015424Y-116591858D01*
X148001039Y-116551017D01*
X147988985Y-116507379D01*
X147985814Y-116493396D01*
X147983799Y-116483715D01*
X147982033Y-116474185D01*
X147980495Y-116464058D01*
X147979164Y-116452586D01*
X147978022Y-116439022D01*
X147977047Y-116422619D01*
X147976219Y-116402629D01*
X147975519Y-116378305D01*
X147974926Y-116348900D01*
X147974419Y-116313665D01*
X147973980Y-116271855D01*
X147973587Y-116222720D01*
X147973221Y-116165515D01*
X147972861Y-116099491D01*
X147972487Y-116023901D01*
X147972344Y-115994107D01*
X147971999Y-115909041D01*
X147971812Y-115832334D01*
X147971779Y-115764245D01*
X147971900Y-115705033D01*
X147972173Y-115654957D01*
X147972596Y-115614275D01*
X147973167Y-115583247D01*
X147973885Y-115562132D01*
X147974747Y-115551189D01*
X147975318Y-115549607D01*
X147979143Y-115554055D01*
X147988672Y-115566336D01*
X148003377Y-115585729D01*
X148022729Y-115611514D01*
X148046197Y-115642972D01*
X148073254Y-115679381D01*
X148103370Y-115720023D01*
X148136015Y-115764177D01*
X148170661Y-115811122D01*
X148206778Y-115860140D01*
X148243836Y-115910510D01*
X148281308Y-115961512D01*
X148318663Y-116012425D01*
X148355372Y-116062531D01*
X148390906Y-116111108D01*
X148424736Y-116157437D01*
X148456332Y-116200798D01*
X148485166Y-116240471D01*
X148510708Y-116275735D01*
X148532429Y-116305871D01*
X148549800Y-116330159D01*
X148562291Y-116347878D01*
X148566017Y-116353279D01*
X148596778Y-116400486D01*
X148624157Y-116446705D01*
X148646924Y-116489740D01*
X148663852Y-116527392D01*
X148665045Y-116530438D01*
X148670502Y-116546143D01*
X148674091Y-116561463D01*
X148676177Y-116579279D01*
X148677126Y-116602468D01*
X148677312Y-116627012D01*
X148677312Y-116691837D01*
X149162959Y-116691835D01*
X149648605Y-116691834D01*
X149645170Y-116688877D01*
X149817667Y-116688877D01*
X149822825Y-116689342D01*
X149837767Y-116689784D01*
X149861693Y-116690198D01*
X149893804Y-116690578D01*
X149933299Y-116690919D01*
X149979379Y-116691214D01*
X150031245Y-116691459D01*
X150088097Y-116691647D01*
X150149135Y-116691772D01*
X150213559Y-116691830D01*
X150233027Y-116691834D01*
X150648388Y-116691834D01*
X150629090Y-116666698D01*
X150605445Y-116629803D01*
X150585107Y-116585818D01*
X150575284Y-116557750D01*
X150574238Y-116553626D01*
X150573277Y-116547989D01*
X150572396Y-116540383D01*
X150571593Y-116530353D01*
X150570860Y-116517444D01*
X150570195Y-116501199D01*
X150569593Y-116481165D01*
X150569048Y-116456884D01*
X150568556Y-116427903D01*
X150568113Y-116393765D01*
X150567714Y-116354015D01*
X150567354Y-116308198D01*
X150567029Y-116255858D01*
X150566734Y-116196541D01*
X150566465Y-116129790D01*
X150566216Y-116055150D01*
X150565984Y-115972166D01*
X150565763Y-115880383D01*
X150565549Y-115779345D01*
X150565338Y-115668596D01*
X150565142Y-115558094D01*
X150563469Y-114585750D01*
X150190255Y-114585750D01*
X150115948Y-114585784D01*
X150051613Y-114585894D01*
X149996642Y-114586089D01*
X149950422Y-114586382D01*
X149912346Y-114586784D01*
X149881801Y-114587304D01*
X149858178Y-114587954D01*
X149840867Y-114588745D01*
X149829258Y-114589688D01*
X149822740Y-114590794D01*
X149820703Y-114592074D01*
X149820787Y-114592365D01*
X149827058Y-114601286D01*
X149833890Y-114609563D01*
X149843522Y-114623397D01*
X149854942Y-114644141D01*
X149866671Y-114668634D01*
X149877231Y-114693720D01*
X149885144Y-114716238D01*
X149887117Y-114723334D01*
X149888131Y-114732701D01*
X149889078Y-114751969D01*
X149889957Y-114780456D01*
X149890768Y-114817481D01*
X149891511Y-114862362D01*
X149892187Y-114914417D01*
X149892795Y-114972965D01*
X149893336Y-115037324D01*
X149893809Y-115106814D01*
X149894215Y-115180751D01*
X149894553Y-115258456D01*
X149894824Y-115339245D01*
X149895027Y-115422439D01*
X149895163Y-115507354D01*
X149895231Y-115593311D01*
X149895231Y-115679626D01*
X149895164Y-115765619D01*
X149895030Y-115850608D01*
X149894828Y-115933911D01*
X149894559Y-116014848D01*
X149894222Y-116092735D01*
X149893818Y-116166893D01*
X149893346Y-116236639D01*
X149892807Y-116301292D01*
X149892201Y-116360170D01*
X149891527Y-116412592D01*
X149890786Y-116457876D01*
X149889978Y-116495341D01*
X149889102Y-116524304D01*
X149888159Y-116544086D01*
X149887148Y-116554003D01*
X149887090Y-116554250D01*
X149876932Y-116585504D01*
X149862401Y-116618464D01*
X149845641Y-116648665D01*
X149833245Y-116666388D01*
X149824056Y-116678482D01*
X149818461Y-116686951D01*
X149817667Y-116688877D01*
X149645170Y-116688877D01*
X149611801Y-116660157D01*
X149593910Y-116643450D01*
X149570808Y-116619864D01*
X149543796Y-116590862D01*
X149514177Y-116557907D01*
X149483255Y-116522462D01*
X149452331Y-116485988D01*
X149422708Y-116449948D01*
X149406696Y-116429896D01*
X149399120Y-116419945D01*
X149385728Y-116401958D01*
X149366913Y-116376471D01*
X149343065Y-116344020D01*
X149314576Y-116305141D01*
X149281837Y-116260370D01*
X149245240Y-116210244D01*
X149205176Y-116155299D01*
X149162035Y-116096070D01*
X149116210Y-116033095D01*
X149068091Y-115966909D01*
X149018071Y-115898048D01*
X148966539Y-115827049D01*
X148932024Y-115779462D01*
X148494919Y-115176654D01*
X148512446Y-115155046D01*
X148517923Y-115148260D01*
X148529613Y-115133747D01*
X148547101Y-115112028D01*
X148569965Y-115083621D01*
X148597789Y-115049047D01*
X148630154Y-115008826D01*
X148666642Y-114963479D01*
X148706833Y-114913524D01*
X148750311Y-114859482D01*
X148796656Y-114801874D01*
X148845449Y-114741218D01*
X148896274Y-114678035D01*
X148947094Y-114614854D01*
X149000050Y-114549049D01*
X149051764Y-114484847D01*
X149101785Y-114422808D01*
X149149658Y-114363492D01*
X149194930Y-114307457D01*
X149237148Y-114255265D01*
X149275859Y-114207474D01*
X149310610Y-114164643D01*
X149340947Y-114127333D01*
X149366418Y-114096103D01*
X149386568Y-114071512D01*
X149400946Y-114054120D01*
X149408477Y-114045199D01*
X149435620Y-114014994D01*
X149466031Y-113983032D01*
X149498087Y-113950862D01*
X149530166Y-113920035D01*
X149560643Y-113892098D01*
X149587898Y-113868603D01*
X149610306Y-113851098D01*
X149615674Y-113847359D01*
X149650866Y-113823750D01*
X148691092Y-113823750D01*
X148696777Y-113840057D01*
X148699316Y-113853657D01*
X148700442Y-113873419D01*
X148699946Y-113894297D01*
X148693976Y-113932145D01*
X148680683Y-113973437D01*
X148659769Y-114018788D01*
X148630938Y-114068810D01*
X148593891Y-114124118D01*
X148577677Y-114146542D01*
X148568439Y-114158779D01*
X148553704Y-114177902D01*
X148534037Y-114203195D01*
X148510005Y-114233944D01*
X148482175Y-114269434D01*
X148451112Y-114308950D01*
X148417382Y-114351777D01*
X148381552Y-114397201D01*
X148344189Y-114444507D01*
X148305858Y-114492980D01*
X148267125Y-114541906D01*
X148228557Y-114590569D01*
X148190721Y-114638255D01*
X148154181Y-114684250D01*
X148119506Y-114727837D01*
X148087260Y-114768303D01*
X148058011Y-114804933D01*
X148032323Y-114837012D01*
X148010765Y-114863825D01*
X147993901Y-114884658D01*
X147982298Y-114898796D01*
X147976523Y-114905523D01*
X147976038Y-114905975D01*
X147975023Y-114901509D01*
X147974119Y-114887436D01*
X147973325Y-114864735D01*
X147972641Y-114834383D01*
X147972066Y-114797356D01*
X147971600Y-114754631D01*
X147971241Y-114707187D01*
X147970990Y-114655999D01*
X147970844Y-114602045D01*
X147970805Y-114546302D01*
X147970871Y-114489748D01*
X147971042Y-114433358D01*
X147971316Y-114378111D01*
X147971694Y-114324983D01*
X147972175Y-114274952D01*
X147972757Y-114228994D01*
X147973441Y-114188086D01*
X147974226Y-114153206D01*
X147975111Y-114125331D01*
X147976095Y-114105438D01*
X147976564Y-114099423D01*
X147985912Y-114031022D01*
X148000390Y-113969173D01*
X148019702Y-113914790D01*
X148043554Y-113868786D01*
X148057341Y-113848886D01*
X148076638Y-113823750D01*
X147182295Y-113823750D01*
X146960901Y-113823750D01*
X146960962Y-113802054D01*
X146961156Y-113748174D01*
X146961380Y-113700104D01*
X146961634Y-113657503D01*
X146961922Y-113620030D01*
X146962245Y-113587345D01*
X146962606Y-113559106D01*
X146963006Y-113534973D01*
X146963448Y-113514604D01*
X146963933Y-113497659D01*
X146964464Y-113483797D01*
X146965042Y-113472676D01*
X146965671Y-113463956D01*
X146966351Y-113457296D01*
X146967084Y-113452356D01*
X146967874Y-113448793D01*
X146968722Y-113446267D01*
X146969629Y-113444437D01*
X146970599Y-113442962D01*
X146970646Y-113442897D01*
X146982907Y-113430354D01*
X146983532Y-113429935D01*
X149849291Y-113429935D01*
X149850866Y-113477779D01*
X149856933Y-113521998D01*
X149859833Y-113534702D01*
X149879791Y-113591944D01*
X149908819Y-113645146D01*
X149945842Y-113693225D01*
X149989784Y-113735099D01*
X150039569Y-113769685D01*
X150094121Y-113795899D01*
X150131089Y-113807795D01*
X150163811Y-113813874D01*
X150202977Y-113817281D01*
X150244776Y-113817963D01*
X150285397Y-113815864D01*
X150321029Y-113810932D01*
X150323021Y-113810524D01*
X150369679Y-113796306D01*
X150417042Y-113773766D01*
X150462355Y-113744585D01*
X150502866Y-113710444D01*
X150524305Y-113687593D01*
X150557679Y-113640815D01*
X150584375Y-113587885D01*
X150594103Y-113561813D01*
X150599696Y-113543996D01*
X150603592Y-113528204D01*
X150606097Y-113511816D01*
X150607517Y-113492209D01*
X150608157Y-113466764D01*
X150608315Y-113440104D01*
X150608217Y-113408231D01*
X150607579Y-113384338D01*
X150606103Y-113365828D01*
X150603488Y-113350100D01*
X150599432Y-113334556D01*
X150594243Y-113318396D01*
X150571226Y-113265647D01*
X150539369Y-113216124D01*
X150500093Y-113171098D01*
X150454817Y-113131841D01*
X150404963Y-113099624D01*
X150351950Y-113075718D01*
X150309792Y-113063758D01*
X150266295Y-113058051D01*
X150217972Y-113057424D01*
X150169151Y-113061647D01*
X150124161Y-113070492D01*
X150111354Y-113074238D01*
X150054633Y-113097856D01*
X150002767Y-113130227D01*
X149956752Y-113170297D01*
X149917584Y-113217010D01*
X149886259Y-113269310D01*
X149863772Y-113326143D01*
X149859639Y-113340973D01*
X149852214Y-113382866D01*
X149849291Y-113429935D01*
X146983532Y-113429935D01*
X146998339Y-113420023D01*
X146999227Y-113419590D01*
X147001745Y-113418684D01*
X147005598Y-113417844D01*
X147011169Y-113417067D01*
X147018843Y-113416350D01*
X147029002Y-113415692D01*
X147042032Y-113415089D01*
X147058316Y-113414539D01*
X147078238Y-113414041D01*
X147102182Y-113413591D01*
X147130531Y-113413187D01*
X147163671Y-113412826D01*
X147201984Y-113412507D01*
X147245854Y-113412226D01*
X147295667Y-113411982D01*
X147351804Y-113411772D01*
X147414651Y-113411593D01*
X147484592Y-113411443D01*
X147562010Y-113411320D01*
X147647289Y-113411221D01*
X147740813Y-113411144D01*
X147842966Y-113411086D01*
X147954133Y-113411046D01*
X148074696Y-113411019D01*
X148205040Y-113411005D01*
X148345549Y-113411000D01*
X148358723Y-113411000D01*
X148500192Y-113410996D01*
X148631455Y-113410982D01*
X148752891Y-113410956D01*
X148864878Y-113410916D01*
X148967793Y-113410858D01*
X149062016Y-113410782D01*
X149147924Y-113410684D01*
X149225894Y-113410562D01*
X149296306Y-113410414D01*
X149359536Y-113410237D01*
X149415964Y-113410029D01*
X149465967Y-113409788D01*
X149509923Y-113409511D01*
X149548210Y-113409196D01*
X149581207Y-113408841D01*
X149609291Y-113408443D01*
X149632841Y-113408000D01*
X149652233Y-113407510D01*
X149667848Y-113406970D01*
X149680062Y-113406377D01*
X149689253Y-113405731D01*
X149695800Y-113405027D01*
X149700081Y-113404264D01*
X149702473Y-113403440D01*
X149703330Y-113402630D01*
X149705604Y-113391553D01*
X149706542Y-113376850D01*
X149708429Y-113358250D01*
X149713560Y-113332733D01*
X149721137Y-113303164D01*
X149730365Y-113272408D01*
X149740445Y-113243331D01*
X149750382Y-113219226D01*
X149782886Y-113160145D01*
X149823612Y-113104608D01*
X149871035Y-113054121D01*
X149923630Y-113010186D01*
X149979872Y-112974309D01*
X150016989Y-112956307D01*
X150051345Y-112942323D01*
X150081221Y-112931959D01*
X150109357Y-112924711D01*
X150138490Y-112920076D01*
X150171358Y-112917553D01*
X150210702Y-112916636D01*
X150233062Y-112916621D01*
X150268123Y-112916881D01*
G36*
X152525090Y-113785010D02*
X152638753Y-113802933D01*
X152752741Y-113831130D01*
X152866629Y-113869689D01*
X152870958Y-113871363D01*
X152891699Y-113879969D01*
X152919744Y-113892399D01*
X152952968Y-113907670D01*
X152989249Y-113924797D01*
X153026462Y-113942796D01*
X153048229Y-113953542D01*
X153082981Y-113970566D01*
X153116232Y-113986341D01*
X153146314Y-114000116D01*
X153171557Y-114011137D01*
X153190293Y-114018652D01*
X153199042Y-114021529D01*
X153216951Y-114027336D01*
X153226421Y-114033272D01*
X153227553Y-114036139D01*
X153224535Y-114041659D01*
X153216139Y-114054881D01*
X153203025Y-114074845D01*
X153185851Y-114100593D01*
X153165275Y-114131167D01*
X153141954Y-114165607D01*
X153116548Y-114202955D01*
X153089714Y-114242252D01*
X153062110Y-114282539D01*
X153034395Y-114322858D01*
X153007228Y-114362249D01*
X152981265Y-114399754D01*
X152957165Y-114434414D01*
X152935587Y-114465270D01*
X152917189Y-114491363D01*
X152902628Y-114511736D01*
X152892564Y-114525428D01*
X152887653Y-114531481D01*
X152887371Y-114531685D01*
X152882260Y-114528694D01*
X152871448Y-114519447D01*
X152856511Y-114505371D01*
X152839025Y-114487894D01*
X152838686Y-114487546D01*
X152782595Y-114436498D01*
X152722966Y-114395080D01*
X152659331Y-114363113D01*
X152591219Y-114340418D01*
X152518162Y-114326818D01*
X152439689Y-114322133D01*
X152405395Y-114322766D01*
X152328941Y-114329996D01*
X152258849Y-114345533D01*
X152194593Y-114369647D01*
X152135650Y-114402608D01*
X152081492Y-114444688D01*
X152031596Y-114496155D01*
X152005690Y-114528682D01*
X151962238Y-114594850D01*
X151923750Y-114670022D01*
X151890378Y-114753777D01*
X151862272Y-114845694D01*
X151839584Y-114945351D01*
X151825079Y-115032896D01*
X151821473Y-115066467D01*
X151818672Y-115108508D01*
X151816675Y-115156935D01*
X151815484Y-115209665D01*
X151815099Y-115264615D01*
X151815518Y-115319702D01*
X151816742Y-115372843D01*
X151818772Y-115421955D01*
X151821606Y-115464954D01*
X151825086Y-115498563D01*
X151842283Y-115602489D01*
X151865376Y-115697780D01*
X151894453Y-115784649D01*
X151929607Y-115863310D01*
X151970927Y-115933979D01*
X152018504Y-115996868D01*
X152050130Y-116030995D01*
X152109605Y-116083686D01*
X152172561Y-116126410D01*
X152238760Y-116159108D01*
X152307963Y-116181722D01*
X152379933Y-116194191D01*
X152454430Y-116196459D01*
X152531216Y-116188464D01*
X152610053Y-116170150D01*
X152611667Y-116169673D01*
X152684985Y-116142438D01*
X152756468Y-116104867D01*
X152825920Y-116057079D01*
X152893145Y-115999191D01*
X152894006Y-115998370D01*
X152949425Y-115945458D01*
X152973267Y-115983948D01*
X152991116Y-116012845D01*
X153011784Y-116046446D01*
X153034683Y-116083784D01*
X153059225Y-116123891D01*
X153084822Y-116165801D01*
X153110886Y-116208545D01*
X153136829Y-116251156D01*
X153162063Y-116292666D01*
X153186000Y-116332109D01*
X153208052Y-116368516D01*
X153227631Y-116400921D01*
X153244148Y-116428355D01*
X153257017Y-116449852D01*
X153265648Y-116464443D01*
X153269455Y-116471162D01*
X153269584Y-116471470D01*
X153265558Y-116475532D01*
X153254316Y-116480732D01*
X153246667Y-116483352D01*
X153234198Y-116488259D01*
X153214507Y-116497270D01*
X153189644Y-116509392D01*
X153161658Y-116523629D01*
X153138187Y-116535986D01*
X153071837Y-116570857D01*
X153012741Y-116600501D01*
X152959354Y-116625571D01*
X152910130Y-116646720D01*
X152863525Y-116664603D01*
X152817993Y-116679873D01*
X152771990Y-116693183D01*
X152757758Y-116696920D01*
X152674555Y-116715255D01*
X152585940Y-116729269D01*
X152495337Y-116738625D01*
X152406167Y-116742987D01*
X152321855Y-116742017D01*
X152307396Y-116741246D01*
X152188300Y-116729505D01*
X152075059Y-116708963D01*
X151967537Y-116679539D01*
X151865599Y-116641157D01*
X151769110Y-116593738D01*
X151677935Y-116537203D01*
X151591939Y-116471474D01*
X151510986Y-116396472D01*
X151434940Y-116312119D01*
X151363668Y-116218337D01*
X151336351Y-116177991D01*
X151276428Y-116077486D01*
X151224714Y-115971253D01*
X151181101Y-115858980D01*
X151145480Y-115740352D01*
X151117743Y-115615053D01*
X151098087Y-115485334D01*
X151095208Y-115454415D01*
X151092825Y-115415204D01*
X151090969Y-115369981D01*
X151089675Y-115321029D01*
X151088977Y-115270627D01*
X151088908Y-115221056D01*
X151089501Y-115174599D01*
X151090791Y-115133535D01*
X151092478Y-115104334D01*
X151106528Y-114972700D01*
X151128276Y-114848124D01*
X151157880Y-114730238D01*
X151195498Y-114618675D01*
X151241286Y-114513067D01*
X151295402Y-114413046D01*
X151358005Y-114318245D01*
X151429250Y-114228295D01*
X151500414Y-114151663D01*
X151587311Y-114071646D01*
X151678808Y-114001030D01*
X151774477Y-113939902D01*
X151873892Y-113888349D01*
X151976624Y-113846459D01*
X152082246Y-113814319D01*
X152190331Y-113792017D01*
X152300452Y-113779640D01*
X152412180Y-113777275D01*
X152525090Y-113785010D01*
X152525090Y-113785010D01*
G37*
X152525090Y-113785010D02*
X152638753Y-113802933D01*
X152752741Y-113831130D01*
X152866629Y-113869689D01*
X152870958Y-113871363D01*
X152891699Y-113879969D01*
X152919744Y-113892399D01*
X152952968Y-113907670D01*
X152989249Y-113924797D01*
X153026462Y-113942796D01*
X153048229Y-113953542D01*
X153082981Y-113970566D01*
X153116232Y-113986341D01*
X153146314Y-114000116D01*
X153171557Y-114011137D01*
X153190293Y-114018652D01*
X153199042Y-114021529D01*
X153216951Y-114027336D01*
X153226421Y-114033272D01*
X153227553Y-114036139D01*
X153224535Y-114041659D01*
X153216139Y-114054881D01*
X153203025Y-114074845D01*
X153185851Y-114100593D01*
X153165275Y-114131167D01*
X153141954Y-114165607D01*
X153116548Y-114202955D01*
X153089714Y-114242252D01*
X153062110Y-114282539D01*
X153034395Y-114322858D01*
X153007228Y-114362249D01*
X152981265Y-114399754D01*
X152957165Y-114434414D01*
X152935587Y-114465270D01*
X152917189Y-114491363D01*
X152902628Y-114511736D01*
X152892564Y-114525428D01*
X152887653Y-114531481D01*
X152887371Y-114531685D01*
X152882260Y-114528694D01*
X152871448Y-114519447D01*
X152856511Y-114505371D01*
X152839025Y-114487894D01*
X152838686Y-114487546D01*
X152782595Y-114436498D01*
X152722966Y-114395080D01*
X152659331Y-114363113D01*
X152591219Y-114340418D01*
X152518162Y-114326818D01*
X152439689Y-114322133D01*
X152405395Y-114322766D01*
X152328941Y-114329996D01*
X152258849Y-114345533D01*
X152194593Y-114369647D01*
X152135650Y-114402608D01*
X152081492Y-114444688D01*
X152031596Y-114496155D01*
X152005690Y-114528682D01*
X151962238Y-114594850D01*
X151923750Y-114670022D01*
X151890378Y-114753777D01*
X151862272Y-114845694D01*
X151839584Y-114945351D01*
X151825079Y-115032896D01*
X151821473Y-115066467D01*
X151818672Y-115108508D01*
X151816675Y-115156935D01*
X151815484Y-115209665D01*
X151815099Y-115264615D01*
X151815518Y-115319702D01*
X151816742Y-115372843D01*
X151818772Y-115421955D01*
X151821606Y-115464954D01*
X151825086Y-115498563D01*
X151842283Y-115602489D01*
X151865376Y-115697780D01*
X151894453Y-115784649D01*
X151929607Y-115863310D01*
X151970927Y-115933979D01*
X152018504Y-115996868D01*
X152050130Y-116030995D01*
X152109605Y-116083686D01*
X152172561Y-116126410D01*
X152238760Y-116159108D01*
X152307963Y-116181722D01*
X152379933Y-116194191D01*
X152454430Y-116196459D01*
X152531216Y-116188464D01*
X152610053Y-116170150D01*
X152611667Y-116169673D01*
X152684985Y-116142438D01*
X152756468Y-116104867D01*
X152825920Y-116057079D01*
X152893145Y-115999191D01*
X152894006Y-115998370D01*
X152949425Y-115945458D01*
X152973267Y-115983948D01*
X152991116Y-116012845D01*
X153011784Y-116046446D01*
X153034683Y-116083784D01*
X153059225Y-116123891D01*
X153084822Y-116165801D01*
X153110886Y-116208545D01*
X153136829Y-116251156D01*
X153162063Y-116292666D01*
X153186000Y-116332109D01*
X153208052Y-116368516D01*
X153227631Y-116400921D01*
X153244148Y-116428355D01*
X153257017Y-116449852D01*
X153265648Y-116464443D01*
X153269455Y-116471162D01*
X153269584Y-116471470D01*
X153265558Y-116475532D01*
X153254316Y-116480732D01*
X153246667Y-116483352D01*
X153234198Y-116488259D01*
X153214507Y-116497270D01*
X153189644Y-116509392D01*
X153161658Y-116523629D01*
X153138187Y-116535986D01*
X153071837Y-116570857D01*
X153012741Y-116600501D01*
X152959354Y-116625571D01*
X152910130Y-116646720D01*
X152863525Y-116664603D01*
X152817993Y-116679873D01*
X152771990Y-116693183D01*
X152757758Y-116696920D01*
X152674555Y-116715255D01*
X152585940Y-116729269D01*
X152495337Y-116738625D01*
X152406167Y-116742987D01*
X152321855Y-116742017D01*
X152307396Y-116741246D01*
X152188300Y-116729505D01*
X152075059Y-116708963D01*
X151967537Y-116679539D01*
X151865599Y-116641157D01*
X151769110Y-116593738D01*
X151677935Y-116537203D01*
X151591939Y-116471474D01*
X151510986Y-116396472D01*
X151434940Y-116312119D01*
X151363668Y-116218337D01*
X151336351Y-116177991D01*
X151276428Y-116077486D01*
X151224714Y-115971253D01*
X151181101Y-115858980D01*
X151145480Y-115740352D01*
X151117743Y-115615053D01*
X151098087Y-115485334D01*
X151095208Y-115454415D01*
X151092825Y-115415204D01*
X151090969Y-115369981D01*
X151089675Y-115321029D01*
X151088977Y-115270627D01*
X151088908Y-115221056D01*
X151089501Y-115174599D01*
X151090791Y-115133535D01*
X151092478Y-115104334D01*
X151106528Y-114972700D01*
X151128276Y-114848124D01*
X151157880Y-114730238D01*
X151195498Y-114618675D01*
X151241286Y-114513067D01*
X151295402Y-114413046D01*
X151358005Y-114318245D01*
X151429250Y-114228295D01*
X151500414Y-114151663D01*
X151587311Y-114071646D01*
X151678808Y-114001030D01*
X151774477Y-113939902D01*
X151873892Y-113888349D01*
X151976624Y-113846459D01*
X152082246Y-113814319D01*
X152190331Y-113792017D01*
X152300452Y-113779640D01*
X152412180Y-113777275D01*
X152525090Y-113785010D01*
G36*
X154517664Y-114542499D02*
X154594115Y-114546688D01*
X154664856Y-114554030D01*
X154682732Y-114556579D01*
X154776090Y-114574887D01*
X154861797Y-114600210D01*
X154939768Y-114632488D01*
X155009917Y-114671664D01*
X155072157Y-114717678D01*
X155126401Y-114770471D01*
X155172563Y-114829985D01*
X155210556Y-114896160D01*
X155223858Y-114925454D01*
X155236872Y-114959434D01*
X155250248Y-114999728D01*
X155262745Y-115042189D01*
X155273121Y-115082670D01*
X155278569Y-115108193D01*
X155281897Y-115125861D01*
X155284885Y-115142190D01*
X155287553Y-115157824D01*
X155289924Y-115173409D01*
X155292020Y-115189590D01*
X155293862Y-115207012D01*
X155295473Y-115226321D01*
X155296873Y-115248162D01*
X155298086Y-115273181D01*
X155299133Y-115302023D01*
X155300035Y-115335333D01*
X155300814Y-115373757D01*
X155301493Y-115417940D01*
X155302094Y-115468528D01*
X155302637Y-115526165D01*
X155303145Y-115591498D01*
X155303640Y-115665171D01*
X155304143Y-115747830D01*
X155304677Y-115840121D01*
X155304948Y-115887500D01*
X155305510Y-115983993D01*
X155306041Y-116070475D01*
X155306553Y-116147517D01*
X155307056Y-116215691D01*
X155307561Y-116275568D01*
X155308078Y-116327720D01*
X155308617Y-116372719D01*
X155309189Y-116411137D01*
X155309806Y-116443546D01*
X155310476Y-116470516D01*
X155311211Y-116492620D01*
X155312022Y-116510429D01*
X155312918Y-116524515D01*
X155313911Y-116535451D01*
X155315011Y-116543806D01*
X155316229Y-116550154D01*
X155317246Y-116554010D01*
X155329430Y-116587636D01*
X155345386Y-116621674D01*
X155363120Y-116652209D01*
X155376770Y-116670915D01*
X155386940Y-116683451D01*
X155393589Y-116692346D01*
X155395083Y-116694980D01*
X155389934Y-116695340D01*
X155375058Y-116695682D01*
X155351310Y-116695999D01*
X155319547Y-116696287D01*
X155280625Y-116696541D01*
X155235399Y-116696756D01*
X155184725Y-116696926D01*
X155129461Y-116697047D01*
X155070461Y-116697113D01*
X155032604Y-116697125D01*
X154670125Y-116697125D01*
X154670125Y-116537313D01*
X154640804Y-116564110D01*
X154584558Y-116609067D01*
X154520657Y-116648694D01*
X154451081Y-116682046D01*
X154377808Y-116708178D01*
X154302817Y-116726144D01*
X154301078Y-116726456D01*
X154280610Y-116729247D01*
X154253086Y-116731816D01*
X154220903Y-116734062D01*
X154186459Y-116735882D01*
X154152153Y-116737174D01*
X154120381Y-116737835D01*
X154093542Y-116737763D01*
X154074034Y-116736855D01*
X154069521Y-116736341D01*
X154004633Y-116725882D01*
X153948216Y-116714326D01*
X153898167Y-116701079D01*
X153852384Y-116685549D01*
X153808767Y-116667139D01*
X153786417Y-116656319D01*
X153731707Y-116626418D01*
X153684207Y-116595045D01*
X153640582Y-116559826D01*
X153609378Y-116530438D01*
X153555883Y-116469828D01*
X153510861Y-116403026D01*
X153474427Y-116330330D01*
X153446693Y-116252038D01*
X153427775Y-116168449D01*
X153417787Y-116079863D01*
X153416683Y-116043405D01*
X154057802Y-116043405D01*
X154064538Y-116090110D01*
X154078755Y-116130148D01*
X154098357Y-116161516D01*
X154126342Y-116191286D01*
X154160508Y-116217785D01*
X154198655Y-116239344D01*
X154238583Y-116254291D01*
X154244146Y-116255750D01*
X154268078Y-116259669D01*
X154299045Y-116261875D01*
X154333640Y-116262378D01*
X154368455Y-116261187D01*
X154400084Y-116258312D01*
X154418771Y-116255248D01*
X154467341Y-116240261D01*
X154514365Y-116216746D01*
X154557529Y-116186275D01*
X154594517Y-116150422D01*
X154617173Y-116120388D01*
X154633083Y-116095594D01*
X154633083Y-115772370D01*
X154593180Y-115766435D01*
X154560875Y-115763076D01*
X154521527Y-115761200D01*
X154478564Y-115760781D01*
X154435417Y-115761792D01*
X154395516Y-115764205D01*
X154362292Y-115767993D01*
X154360442Y-115768287D01*
X154299597Y-115781303D01*
X154243432Y-115799583D01*
X154193416Y-115822480D01*
X154151022Y-115849349D01*
X154125099Y-115871730D01*
X154094677Y-115909371D01*
X154073141Y-115951533D01*
X154060759Y-115996712D01*
X154057802Y-116043405D01*
X153416683Y-116043405D01*
X153416128Y-116025084D01*
X153420739Y-115939623D01*
X153434726Y-115859049D01*
X153458032Y-115783446D01*
X153490603Y-115712898D01*
X153532382Y-115647490D01*
X153583315Y-115587305D01*
X153643345Y-115532427D01*
X153712416Y-115482941D01*
X153790474Y-115438931D01*
X153809101Y-115429872D01*
X153874739Y-115401798D01*
X153943967Y-115378199D01*
X154017699Y-115358930D01*
X154096854Y-115343844D01*
X154182345Y-115332797D01*
X154275091Y-115325642D01*
X154376006Y-115322236D01*
X154486008Y-115322431D01*
X154486080Y-115322433D01*
X154638375Y-115325019D01*
X154638375Y-115293828D01*
X154635033Y-115250766D01*
X154625756Y-115204760D01*
X154611670Y-115160752D01*
X154604008Y-115142804D01*
X154579390Y-115100371D01*
X154548853Y-115065961D01*
X154511981Y-115039345D01*
X154468355Y-115020294D01*
X154417556Y-115008581D01*
X154359167Y-115003975D01*
X154349840Y-115003884D01*
X154262324Y-115008577D01*
X154171883Y-115022760D01*
X154079638Y-115046143D01*
X153986711Y-115078438D01*
X153894224Y-115119356D01*
X153885899Y-115123482D01*
X153866096Y-115132905D01*
X153850062Y-115139627D01*
X153839934Y-115142804D01*
X153837556Y-115142619D01*
X153833387Y-115134068D01*
X153826004Y-115117320D01*
X153815884Y-115093553D01*
X153803501Y-115063944D01*
X153789331Y-115029672D01*
X153773849Y-114991914D01*
X153757530Y-114951847D01*
X153740849Y-114910650D01*
X153724281Y-114869500D01*
X153708302Y-114829576D01*
X153693387Y-114792054D01*
X153680010Y-114758112D01*
X153668647Y-114728928D01*
X153659774Y-114705681D01*
X153653865Y-114689547D01*
X153651395Y-114681704D01*
X153651377Y-114681165D01*
X153658361Y-114677725D01*
X153671642Y-114675834D01*
X153676320Y-114675709D01*
X153691662Y-114674649D01*
X153714095Y-114671405D01*
X153744087Y-114665875D01*
X153782103Y-114657961D01*
X153828609Y-114647563D01*
X153884072Y-114634580D01*
X153948958Y-114618914D01*
X153996455Y-114607233D01*
X154039953Y-114596621D01*
X154082732Y-114586463D01*
X154123029Y-114577157D01*
X154159085Y-114569099D01*
X154189141Y-114562688D01*
X154211435Y-114558320D01*
X154218033Y-114557195D01*
X154285687Y-114548812D01*
X154360286Y-114543565D01*
X154438666Y-114541460D01*
X154517664Y-114542499D01*
X154517664Y-114542499D01*
G37*
X154517664Y-114542499D02*
X154594115Y-114546688D01*
X154664856Y-114554030D01*
X154682732Y-114556579D01*
X154776090Y-114574887D01*
X154861797Y-114600210D01*
X154939768Y-114632488D01*
X155009917Y-114671664D01*
X155072157Y-114717678D01*
X155126401Y-114770471D01*
X155172563Y-114829985D01*
X155210556Y-114896160D01*
X155223858Y-114925454D01*
X155236872Y-114959434D01*
X155250248Y-114999728D01*
X155262745Y-115042189D01*
X155273121Y-115082670D01*
X155278569Y-115108193D01*
X155281897Y-115125861D01*
X155284885Y-115142190D01*
X155287553Y-115157824D01*
X155289924Y-115173409D01*
X155292020Y-115189590D01*
X155293862Y-115207012D01*
X155295473Y-115226321D01*
X155296873Y-115248162D01*
X155298086Y-115273181D01*
X155299133Y-115302023D01*
X155300035Y-115335333D01*
X155300814Y-115373757D01*
X155301493Y-115417940D01*
X155302094Y-115468528D01*
X155302637Y-115526165D01*
X155303145Y-115591498D01*
X155303640Y-115665171D01*
X155304143Y-115747830D01*
X155304677Y-115840121D01*
X155304948Y-115887500D01*
X155305510Y-115983993D01*
X155306041Y-116070475D01*
X155306553Y-116147517D01*
X155307056Y-116215691D01*
X155307561Y-116275568D01*
X155308078Y-116327720D01*
X155308617Y-116372719D01*
X155309189Y-116411137D01*
X155309806Y-116443546D01*
X155310476Y-116470516D01*
X155311211Y-116492620D01*
X155312022Y-116510429D01*
X155312918Y-116524515D01*
X155313911Y-116535451D01*
X155315011Y-116543806D01*
X155316229Y-116550154D01*
X155317246Y-116554010D01*
X155329430Y-116587636D01*
X155345386Y-116621674D01*
X155363120Y-116652209D01*
X155376770Y-116670915D01*
X155386940Y-116683451D01*
X155393589Y-116692346D01*
X155395083Y-116694980D01*
X155389934Y-116695340D01*
X155375058Y-116695682D01*
X155351310Y-116695999D01*
X155319547Y-116696287D01*
X155280625Y-116696541D01*
X155235399Y-116696756D01*
X155184725Y-116696926D01*
X155129461Y-116697047D01*
X155070461Y-116697113D01*
X155032604Y-116697125D01*
X154670125Y-116697125D01*
X154670125Y-116537313D01*
X154640804Y-116564110D01*
X154584558Y-116609067D01*
X154520657Y-116648694D01*
X154451081Y-116682046D01*
X154377808Y-116708178D01*
X154302817Y-116726144D01*
X154301078Y-116726456D01*
X154280610Y-116729247D01*
X154253086Y-116731816D01*
X154220903Y-116734062D01*
X154186459Y-116735882D01*
X154152153Y-116737174D01*
X154120381Y-116737835D01*
X154093542Y-116737763D01*
X154074034Y-116736855D01*
X154069521Y-116736341D01*
X154004633Y-116725882D01*
X153948216Y-116714326D01*
X153898167Y-116701079D01*
X153852384Y-116685549D01*
X153808767Y-116667139D01*
X153786417Y-116656319D01*
X153731707Y-116626418D01*
X153684207Y-116595045D01*
X153640582Y-116559826D01*
X153609378Y-116530438D01*
X153555883Y-116469828D01*
X153510861Y-116403026D01*
X153474427Y-116330330D01*
X153446693Y-116252038D01*
X153427775Y-116168449D01*
X153417787Y-116079863D01*
X153416683Y-116043405D01*
X154057802Y-116043405D01*
X154064538Y-116090110D01*
X154078755Y-116130148D01*
X154098357Y-116161516D01*
X154126342Y-116191286D01*
X154160508Y-116217785D01*
X154198655Y-116239344D01*
X154238583Y-116254291D01*
X154244146Y-116255750D01*
X154268078Y-116259669D01*
X154299045Y-116261875D01*
X154333640Y-116262378D01*
X154368455Y-116261187D01*
X154400084Y-116258312D01*
X154418771Y-116255248D01*
X154467341Y-116240261D01*
X154514365Y-116216746D01*
X154557529Y-116186275D01*
X154594517Y-116150422D01*
X154617173Y-116120388D01*
X154633083Y-116095594D01*
X154633083Y-115772370D01*
X154593180Y-115766435D01*
X154560875Y-115763076D01*
X154521527Y-115761200D01*
X154478564Y-115760781D01*
X154435417Y-115761792D01*
X154395516Y-115764205D01*
X154362292Y-115767993D01*
X154360442Y-115768287D01*
X154299597Y-115781303D01*
X154243432Y-115799583D01*
X154193416Y-115822480D01*
X154151022Y-115849349D01*
X154125099Y-115871730D01*
X154094677Y-115909371D01*
X154073141Y-115951533D01*
X154060759Y-115996712D01*
X154057802Y-116043405D01*
X153416683Y-116043405D01*
X153416128Y-116025084D01*
X153420739Y-115939623D01*
X153434726Y-115859049D01*
X153458032Y-115783446D01*
X153490603Y-115712898D01*
X153532382Y-115647490D01*
X153583315Y-115587305D01*
X153643345Y-115532427D01*
X153712416Y-115482941D01*
X153790474Y-115438931D01*
X153809101Y-115429872D01*
X153874739Y-115401798D01*
X153943967Y-115378199D01*
X154017699Y-115358930D01*
X154096854Y-115343844D01*
X154182345Y-115332797D01*
X154275091Y-115325642D01*
X154376006Y-115322236D01*
X154486008Y-115322431D01*
X154486080Y-115322433D01*
X154638375Y-115325019D01*
X154638375Y-115293828D01*
X154635033Y-115250766D01*
X154625756Y-115204760D01*
X154611670Y-115160752D01*
X154604008Y-115142804D01*
X154579390Y-115100371D01*
X154548853Y-115065961D01*
X154511981Y-115039345D01*
X154468355Y-115020294D01*
X154417556Y-115008581D01*
X154359167Y-115003975D01*
X154349840Y-115003884D01*
X154262324Y-115008577D01*
X154171883Y-115022760D01*
X154079638Y-115046143D01*
X153986711Y-115078438D01*
X153894224Y-115119356D01*
X153885899Y-115123482D01*
X153866096Y-115132905D01*
X153850062Y-115139627D01*
X153839934Y-115142804D01*
X153837556Y-115142619D01*
X153833387Y-115134068D01*
X153826004Y-115117320D01*
X153815884Y-115093553D01*
X153803501Y-115063944D01*
X153789331Y-115029672D01*
X153773849Y-114991914D01*
X153757530Y-114951847D01*
X153740849Y-114910650D01*
X153724281Y-114869500D01*
X153708302Y-114829576D01*
X153693387Y-114792054D01*
X153680010Y-114758112D01*
X153668647Y-114728928D01*
X153659774Y-114705681D01*
X153653865Y-114689547D01*
X153651395Y-114681704D01*
X153651377Y-114681165D01*
X153658361Y-114677725D01*
X153671642Y-114675834D01*
X153676320Y-114675709D01*
X153691662Y-114674649D01*
X153714095Y-114671405D01*
X153744087Y-114665875D01*
X153782103Y-114657961D01*
X153828609Y-114647563D01*
X153884072Y-114634580D01*
X153948958Y-114618914D01*
X153996455Y-114607233D01*
X154039953Y-114596621D01*
X154082732Y-114586463D01*
X154123029Y-114577157D01*
X154159085Y-114569099D01*
X154189141Y-114562688D01*
X154211435Y-114558320D01*
X154218033Y-114557195D01*
X154285687Y-114548812D01*
X154360286Y-114543565D01*
X154438666Y-114541460D01*
X154517664Y-114542499D01*
G36*
X157755167Y-115038831D02*
X157755171Y-115184031D01*
X157755188Y-115319030D01*
X157755217Y-115444214D01*
X157755262Y-115559966D01*
X157755326Y-115666670D01*
X157755409Y-115764709D01*
X157755514Y-115854468D01*
X157755644Y-115936331D01*
X157755800Y-116010680D01*
X157755986Y-116077900D01*
X157756202Y-116138375D01*
X157756451Y-116192488D01*
X157756736Y-116240624D01*
X157757059Y-116283165D01*
X157757421Y-116320496D01*
X157757825Y-116353001D01*
X157758274Y-116381064D01*
X157758769Y-116405068D01*
X157759312Y-116425396D01*
X157759906Y-116442434D01*
X157760554Y-116456564D01*
X157761256Y-116468171D01*
X157762016Y-116477638D01*
X157762835Y-116485349D01*
X157763470Y-116490071D01*
X157776096Y-116553980D01*
X157793853Y-116609013D01*
X157816893Y-116655638D01*
X157818998Y-116659066D01*
X157829047Y-116675457D01*
X157836437Y-116688068D01*
X157839770Y-116694501D01*
X157839833Y-116694785D01*
X157834684Y-116695178D01*
X157819808Y-116695550D01*
X157796060Y-116695896D01*
X157764297Y-116696211D01*
X157725375Y-116696488D01*
X157680149Y-116696722D01*
X157629475Y-116696908D01*
X157574211Y-116697040D01*
X157515211Y-116697112D01*
X157477354Y-116697125D01*
X157114875Y-116697125D01*
X157114875Y-116537313D01*
X157086752Y-116562980D01*
X157028431Y-116609345D01*
X156962402Y-116649388D01*
X156889770Y-116682643D01*
X156811642Y-116708646D01*
X156729123Y-116726934D01*
X156679844Y-116733805D01*
X156653780Y-116735998D01*
X156622877Y-116737560D01*
X156589974Y-116738455D01*
X156557908Y-116738650D01*
X156529517Y-116738108D01*
X156507640Y-116736795D01*
X156501042Y-116736000D01*
X156458055Y-116729242D01*
X156423472Y-116723277D01*
X156395185Y-116717663D01*
X156371087Y-116711961D01*
X156349070Y-116705730D01*
X156335539Y-116701407D01*
X156257624Y-116670236D01*
X156182677Y-116629764D01*
X156112377Y-116581124D01*
X156048403Y-116525448D01*
X156003847Y-116477714D01*
X155944419Y-116399648D01*
X155893351Y-116315499D01*
X155850611Y-116225164D01*
X155816166Y-116128544D01*
X155789984Y-116025538D01*
X155772034Y-115916044D01*
X155762282Y-115799963D01*
X155760317Y-115715521D01*
X155761671Y-115660776D01*
X156461721Y-115660776D01*
X156462036Y-115710312D01*
X156463115Y-115758465D01*
X156464942Y-115803014D01*
X156467499Y-115841736D01*
X156470772Y-115872407D01*
X156471247Y-115875672D01*
X156483684Y-115943147D01*
X156499373Y-116001442D01*
X156518736Y-116051575D01*
X156542193Y-116094564D01*
X156570167Y-116131427D01*
X156582533Y-116144504D01*
X156610664Y-116170215D01*
X156637302Y-116188881D01*
X156666118Y-116202696D01*
X156696833Y-116212759D01*
X156722665Y-116217309D01*
X156755476Y-116219115D01*
X156792060Y-116218310D01*
X156829210Y-116215025D01*
X156863720Y-116209393D01*
X156881037Y-116205167D01*
X156917934Y-116192335D01*
X156958599Y-116174254D01*
X156999067Y-116152901D01*
X157035372Y-116130251D01*
X157044760Y-116123572D01*
X157077833Y-116099189D01*
X157077833Y-115141910D01*
X157044291Y-115117974D01*
X156987220Y-115082834D01*
X156928323Y-115057836D01*
X156866422Y-115042562D01*
X156818542Y-115037303D01*
X156765265Y-115037728D01*
X156718202Y-115045923D01*
X156675803Y-115062466D01*
X156636518Y-115087936D01*
X156604229Y-115117227D01*
X156572600Y-115155155D01*
X156545137Y-115199987D01*
X156521623Y-115252328D01*
X156501839Y-115312780D01*
X156485568Y-115381945D01*
X156472593Y-115460426D01*
X156468428Y-115493271D01*
X156465523Y-115526106D01*
X156463448Y-115566451D01*
X156462186Y-115612082D01*
X156461721Y-115660776D01*
X155761671Y-115660776D01*
X155763626Y-115581732D01*
X155773533Y-115455455D01*
X155789991Y-115336791D01*
X155812953Y-115225839D01*
X155842372Y-115122698D01*
X155878200Y-115027468D01*
X155920390Y-114940248D01*
X155968895Y-114861138D01*
X156023668Y-114790237D01*
X156084661Y-114727645D01*
X156151827Y-114673461D01*
X156225120Y-114627785D01*
X156292114Y-114595758D01*
X156362666Y-114571305D01*
X156438650Y-114554095D01*
X156518267Y-114544073D01*
X156599716Y-114541187D01*
X156681199Y-114545383D01*
X156760915Y-114556605D01*
X156837064Y-114574800D01*
X156907846Y-114599913D01*
X156941067Y-114615251D01*
X156980348Y-114636831D01*
X157018156Y-114660925D01*
X157050784Y-114685115D01*
X157059795Y-114692717D01*
X157078441Y-114709089D01*
X157076342Y-114265097D01*
X157075904Y-114180625D01*
X157075431Y-114106183D01*
X157074913Y-114041221D01*
X157074338Y-113985184D01*
X157073697Y-113937521D01*
X157072979Y-113897679D01*
X157072174Y-113865106D01*
X157071271Y-113839250D01*
X157070260Y-113819557D01*
X157069130Y-113805477D01*
X157067872Y-113796455D01*
X157067466Y-113794646D01*
X157055240Y-113757768D01*
X157038034Y-113720343D01*
X157018181Y-113687257D01*
X157012519Y-113679506D01*
X157002180Y-113665237D01*
X156995158Y-113653982D01*
X156993167Y-113649079D01*
X156998431Y-113647961D01*
X157014120Y-113646972D01*
X157040075Y-113646114D01*
X157076138Y-113645389D01*
X157122149Y-113644800D01*
X157177951Y-113644348D01*
X157243386Y-113644036D01*
X157318294Y-113643867D01*
X157374167Y-113643834D01*
X157755167Y-113643834D01*
X157755167Y-115038831D01*
X157755167Y-115038831D01*
G37*
X157755167Y-115038831D02*
X157755171Y-115184031D01*
X157755188Y-115319030D01*
X157755217Y-115444214D01*
X157755262Y-115559966D01*
X157755326Y-115666670D01*
X157755409Y-115764709D01*
X157755514Y-115854468D01*
X157755644Y-115936331D01*
X157755800Y-116010680D01*
X157755986Y-116077900D01*
X157756202Y-116138375D01*
X157756451Y-116192488D01*
X157756736Y-116240624D01*
X157757059Y-116283165D01*
X157757421Y-116320496D01*
X157757825Y-116353001D01*
X157758274Y-116381064D01*
X157758769Y-116405068D01*
X157759312Y-116425396D01*
X157759906Y-116442434D01*
X157760554Y-116456564D01*
X157761256Y-116468171D01*
X157762016Y-116477638D01*
X157762835Y-116485349D01*
X157763470Y-116490071D01*
X157776096Y-116553980D01*
X157793853Y-116609013D01*
X157816893Y-116655638D01*
X157818998Y-116659066D01*
X157829047Y-116675457D01*
X157836437Y-116688068D01*
X157839770Y-116694501D01*
X157839833Y-116694785D01*
X157834684Y-116695178D01*
X157819808Y-116695550D01*
X157796060Y-116695896D01*
X157764297Y-116696211D01*
X157725375Y-116696488D01*
X157680149Y-116696722D01*
X157629475Y-116696908D01*
X157574211Y-116697040D01*
X157515211Y-116697112D01*
X157477354Y-116697125D01*
X157114875Y-116697125D01*
X157114875Y-116537313D01*
X157086752Y-116562980D01*
X157028431Y-116609345D01*
X156962402Y-116649388D01*
X156889770Y-116682643D01*
X156811642Y-116708646D01*
X156729123Y-116726934D01*
X156679844Y-116733805D01*
X156653780Y-116735998D01*
X156622877Y-116737560D01*
X156589974Y-116738455D01*
X156557908Y-116738650D01*
X156529517Y-116738108D01*
X156507640Y-116736795D01*
X156501042Y-116736000D01*
X156458055Y-116729242D01*
X156423472Y-116723277D01*
X156395185Y-116717663D01*
X156371087Y-116711961D01*
X156349070Y-116705730D01*
X156335539Y-116701407D01*
X156257624Y-116670236D01*
X156182677Y-116629764D01*
X156112377Y-116581124D01*
X156048403Y-116525448D01*
X156003847Y-116477714D01*
X155944419Y-116399648D01*
X155893351Y-116315499D01*
X155850611Y-116225164D01*
X155816166Y-116128544D01*
X155789984Y-116025538D01*
X155772034Y-115916044D01*
X155762282Y-115799963D01*
X155760317Y-115715521D01*
X155761671Y-115660776D01*
X156461721Y-115660776D01*
X156462036Y-115710312D01*
X156463115Y-115758465D01*
X156464942Y-115803014D01*
X156467499Y-115841736D01*
X156470772Y-115872407D01*
X156471247Y-115875672D01*
X156483684Y-115943147D01*
X156499373Y-116001442D01*
X156518736Y-116051575D01*
X156542193Y-116094564D01*
X156570167Y-116131427D01*
X156582533Y-116144504D01*
X156610664Y-116170215D01*
X156637302Y-116188881D01*
X156666118Y-116202696D01*
X156696833Y-116212759D01*
X156722665Y-116217309D01*
X156755476Y-116219115D01*
X156792060Y-116218310D01*
X156829210Y-116215025D01*
X156863720Y-116209393D01*
X156881037Y-116205167D01*
X156917934Y-116192335D01*
X156958599Y-116174254D01*
X156999067Y-116152901D01*
X157035372Y-116130251D01*
X157044760Y-116123572D01*
X157077833Y-116099189D01*
X157077833Y-115141910D01*
X157044291Y-115117974D01*
X156987220Y-115082834D01*
X156928323Y-115057836D01*
X156866422Y-115042562D01*
X156818542Y-115037303D01*
X156765265Y-115037728D01*
X156718202Y-115045923D01*
X156675803Y-115062466D01*
X156636518Y-115087936D01*
X156604229Y-115117227D01*
X156572600Y-115155155D01*
X156545137Y-115199987D01*
X156521623Y-115252328D01*
X156501839Y-115312780D01*
X156485568Y-115381945D01*
X156472593Y-115460426D01*
X156468428Y-115493271D01*
X156465523Y-115526106D01*
X156463448Y-115566451D01*
X156462186Y-115612082D01*
X156461721Y-115660776D01*
X155761671Y-115660776D01*
X155763626Y-115581732D01*
X155773533Y-115455455D01*
X155789991Y-115336791D01*
X155812953Y-115225839D01*
X155842372Y-115122698D01*
X155878200Y-115027468D01*
X155920390Y-114940248D01*
X155968895Y-114861138D01*
X156023668Y-114790237D01*
X156084661Y-114727645D01*
X156151827Y-114673461D01*
X156225120Y-114627785D01*
X156292114Y-114595758D01*
X156362666Y-114571305D01*
X156438650Y-114554095D01*
X156518267Y-114544073D01*
X156599716Y-114541187D01*
X156681199Y-114545383D01*
X156760915Y-114556605D01*
X156837064Y-114574800D01*
X156907846Y-114599913D01*
X156941067Y-114615251D01*
X156980348Y-114636831D01*
X157018156Y-114660925D01*
X157050784Y-114685115D01*
X157059795Y-114692717D01*
X157078441Y-114709089D01*
X157076342Y-114265097D01*
X157075904Y-114180625D01*
X157075431Y-114106183D01*
X157074913Y-114041221D01*
X157074338Y-113985184D01*
X157073697Y-113937521D01*
X157072979Y-113897679D01*
X157072174Y-113865106D01*
X157071271Y-113839250D01*
X157070260Y-113819557D01*
X157069130Y-113805477D01*
X157067872Y-113796455D01*
X157067466Y-113794646D01*
X157055240Y-113757768D01*
X157038034Y-113720343D01*
X157018181Y-113687257D01*
X157012519Y-113679506D01*
X157002180Y-113665237D01*
X156995158Y-113653982D01*
X156993167Y-113649079D01*
X156998431Y-113647961D01*
X157014120Y-113646972D01*
X157040075Y-113646114D01*
X157076138Y-113645389D01*
X157122149Y-113644800D01*
X157177951Y-113644348D01*
X157243386Y-113644036D01*
X157318294Y-113643867D01*
X157374167Y-113643834D01*
X157755167Y-113643834D01*
X157755167Y-115038831D01*
G36*
X164293176Y-75819000D02*
X166489529Y-75819000D01*
X166489529Y-72995118D01*
X170807529Y-72995118D01*
X170807529Y-76401706D01*
X169993344Y-76401706D01*
X168476706Y-74885286D01*
X168476706Y-77313118D01*
X163710471Y-77313118D01*
X163710471Y-76730412D01*
X167894000Y-76730412D01*
X167894000Y-73906530D01*
X168181618Y-73906301D01*
X168469235Y-73906072D01*
X169346238Y-74791566D01*
X170223240Y-75677059D01*
X170224032Y-74619971D01*
X170224823Y-73562883D01*
X167072235Y-73562883D01*
X167072235Y-76401706D01*
X163710471Y-76401706D01*
X163710471Y-72457235D01*
X164293176Y-72457235D01*
X164293176Y-75819000D01*
X164293176Y-75819000D01*
G37*
X164293176Y-75819000D02*
X166489529Y-75819000D01*
X166489529Y-72995118D01*
X170807529Y-72995118D01*
X170807529Y-76401706D01*
X169993344Y-76401706D01*
X168476706Y-74885286D01*
X168476706Y-77313118D01*
X163710471Y-77313118D01*
X163710471Y-76730412D01*
X167894000Y-76730412D01*
X167894000Y-73906530D01*
X168181618Y-73906301D01*
X168469235Y-73906072D01*
X169346238Y-74791566D01*
X170223240Y-75677059D01*
X170224032Y-74619971D01*
X170224823Y-73562883D01*
X167072235Y-73562883D01*
X167072235Y-76401706D01*
X163710471Y-76401706D01*
X163710471Y-72457235D01*
X164293176Y-72457235D01*
X164293176Y-75819000D01*
G36*
X172107412Y-77313118D02*
X169940941Y-77313118D01*
X169940941Y-76730412D01*
X172107412Y-76730412D01*
X172107412Y-77313118D01*
X172107412Y-77313118D01*
G37*
X172107412Y-77313118D02*
X169940941Y-77313118D01*
X169940941Y-76730412D01*
X172107412Y-76730412D01*
X172107412Y-77313118D01*
G36*
X175775471Y-76737883D02*
X175779528Y-77025500D01*
X175783586Y-77313118D01*
X172884353Y-77313118D01*
X172884353Y-76730263D01*
X175775471Y-76737883D01*
X175775471Y-76737883D01*
G37*
X175775471Y-76737883D02*
X175779528Y-77025500D01*
X175783586Y-77313118D01*
X172884353Y-77313118D01*
X172884353Y-76730263D01*
X175775471Y-76737883D01*
G36*
X179413647Y-77313118D02*
X176574823Y-77313118D01*
X176574823Y-76730412D01*
X179413647Y-76730412D01*
X179413647Y-77313118D01*
X179413647Y-77313118D01*
G37*
X179413647Y-77313118D02*
X176574823Y-77313118D01*
X176574823Y-76730412D01*
X179413647Y-76730412D01*
X179413647Y-77313118D01*
G36*
X180833059Y-77313118D02*
X180250353Y-77313118D01*
X180250353Y-76700530D01*
X180833059Y-76700530D01*
X180833059Y-77313118D01*
X180833059Y-77313118D01*
G37*
X180833059Y-77313118D02*
X180250353Y-77313118D01*
X180250353Y-76700530D01*
X180833059Y-76700530D01*
X180833059Y-77313118D01*
G36*
X183089176Y-75385706D02*
X181873888Y-75385706D01*
X182522620Y-76041474D01*
X183171353Y-76697243D01*
X184990441Y-76698886D01*
X186809529Y-76700530D01*
X186809529Y-77313118D01*
X184818618Y-77312801D01*
X182827706Y-77312484D01*
X181865828Y-76349095D01*
X181691562Y-76174740D01*
X181537220Y-76020736D01*
X181401796Y-75886109D01*
X181284281Y-75769885D01*
X181183666Y-75671091D01*
X181098943Y-75588752D01*
X181029106Y-75521895D01*
X180973144Y-75469546D01*
X180930050Y-75430731D01*
X180898816Y-75404476D01*
X180878434Y-75389807D01*
X180868505Y-75385706D01*
X180833059Y-75385706D01*
X180833059Y-76401706D01*
X180250353Y-76401706D01*
X180250353Y-74489235D01*
X180833059Y-74489235D01*
X180833059Y-74803000D01*
X182506471Y-74803000D01*
X182506471Y-74489235D01*
X180833059Y-74489235D01*
X180250353Y-74489235D01*
X180250353Y-73906530D01*
X183089176Y-73906530D01*
X183089176Y-75385706D01*
X183089176Y-75385706D01*
G37*
X183089176Y-75385706D02*
X181873888Y-75385706D01*
X182522620Y-76041474D01*
X183171353Y-76697243D01*
X184990441Y-76698886D01*
X186809529Y-76700530D01*
X186809529Y-77313118D01*
X184818618Y-77312801D01*
X182827706Y-77312484D01*
X181865828Y-76349095D01*
X181691562Y-76174740D01*
X181537220Y-76020736D01*
X181401796Y-75886109D01*
X181284281Y-75769885D01*
X181183666Y-75671091D01*
X181098943Y-75588752D01*
X181029106Y-75521895D01*
X180973144Y-75469546D01*
X180930050Y-75430731D01*
X180898816Y-75404476D01*
X180878434Y-75389807D01*
X180868505Y-75385706D01*
X180833059Y-75385706D01*
X180833059Y-76401706D01*
X180250353Y-76401706D01*
X180250353Y-74489235D01*
X180833059Y-74489235D01*
X180833059Y-74803000D01*
X182506471Y-74803000D01*
X182506471Y-74489235D01*
X180833059Y-74489235D01*
X180250353Y-74489235D01*
X180250353Y-73906530D01*
X183089176Y-73906530D01*
X183089176Y-75385706D01*
G36*
X172107412Y-76401706D02*
X171539647Y-76401706D01*
X171539647Y-73906530D01*
X172107412Y-73906530D01*
X172107412Y-76401706D01*
X172107412Y-76401706D01*
G37*
X172107412Y-76401706D02*
X171539647Y-76401706D01*
X171539647Y-73906530D01*
X172107412Y-73906530D01*
X172107412Y-76401706D01*
G36*
X175364588Y-74489235D02*
X173467059Y-74489235D01*
X173467059Y-75819000D01*
X175782941Y-75819000D01*
X175782941Y-76401706D01*
X172884353Y-76401706D01*
X172884353Y-73906530D01*
X175364588Y-73906530D01*
X175364588Y-74489235D01*
X175364588Y-74489235D01*
G37*
X175364588Y-74489235D02*
X173467059Y-74489235D01*
X173467059Y-75819000D01*
X175782941Y-75819000D01*
X175782941Y-76401706D01*
X172884353Y-76401706D01*
X172884353Y-73906530D01*
X175364588Y-73906530D01*
X175364588Y-74489235D01*
G36*
X179413647Y-76401706D02*
X176574823Y-76401706D01*
X176574823Y-74489235D01*
X177157529Y-74489235D01*
X177157529Y-75819000D01*
X178830941Y-75819000D01*
X178830941Y-74489235D01*
X177157529Y-74489235D01*
X176574823Y-74489235D01*
X176574823Y-73906530D01*
X179413647Y-73906530D01*
X179413647Y-76401706D01*
X179413647Y-76401706D01*
G37*
X179413647Y-76401706D02*
X176574823Y-76401706D01*
X176574823Y-74489235D01*
X177157529Y-74489235D01*
X177157529Y-75819000D01*
X178830941Y-75819000D01*
X178830941Y-74489235D01*
X177157529Y-74489235D01*
X176574823Y-74489235D01*
X176574823Y-73906530D01*
X179413647Y-73906530D01*
X179413647Y-76401706D01*
G36*
X186809529Y-76401706D02*
X186040166Y-76401706D01*
X184508588Y-74870344D01*
X184508588Y-76401706D01*
X183925882Y-76401706D01*
X183925882Y-73906530D01*
X184220971Y-73905958D01*
X184516059Y-73905386D01*
X185370916Y-74768811D01*
X186225774Y-75632235D01*
X186226299Y-74014853D01*
X186226823Y-72397471D01*
X186809529Y-72397471D01*
X186809529Y-76401706D01*
X186809529Y-76401706D01*
G37*
X186809529Y-76401706D02*
X186040166Y-76401706D01*
X184508588Y-74870344D01*
X184508588Y-76401706D01*
X183925882Y-76401706D01*
X183925882Y-73906530D01*
X184220971Y-73905958D01*
X184516059Y-73905386D01*
X185370916Y-74768811D01*
X186225774Y-75632235D01*
X186226299Y-74014853D01*
X186226823Y-72397471D01*
X186809529Y-72397471D01*
X186809529Y-76401706D01*
G36*
X174393412Y-75445471D02*
X173855529Y-75445471D01*
X173855529Y-74862765D01*
X174393412Y-74862765D01*
X174393412Y-75445471D01*
X174393412Y-75445471D01*
G37*
X174393412Y-75445471D02*
X173855529Y-75445471D01*
X173855529Y-74862765D01*
X174393412Y-74862765D01*
X174393412Y-75445471D01*
G36*
X172107412Y-73607706D02*
X171539647Y-73607706D01*
X171539647Y-72995118D01*
X172107412Y-72995118D01*
X172107412Y-73607706D01*
X172107412Y-73607706D01*
G37*
X172107412Y-73607706D02*
X171539647Y-73607706D01*
X171539647Y-72995118D01*
X172107412Y-72995118D01*
X172107412Y-73607706D01*
G36*
X177157529Y-73607706D02*
X176574823Y-73607706D01*
X176574823Y-72995118D01*
X177157529Y-72995118D01*
X177157529Y-73607706D01*
X177157529Y-73607706D01*
G37*
X177157529Y-73607706D02*
X176574823Y-73607706D01*
X176574823Y-72995118D01*
X177157529Y-72995118D01*
X177157529Y-73607706D01*
G36*
X179413647Y-73607706D02*
X178830941Y-73607706D01*
X178830941Y-72995118D01*
X179413647Y-72995118D01*
X179413647Y-73607706D01*
X179413647Y-73607706D01*
G37*
X179413647Y-73607706D02*
X178830941Y-73607706D01*
X178830941Y-72995118D01*
X179413647Y-72995118D01*
X179413647Y-73607706D01*
G36*
X184508588Y-73607706D02*
X180250353Y-73607706D01*
X180250353Y-72995118D01*
X184508588Y-72995118D01*
X184508588Y-73607706D01*
X184508588Y-73607706D01*
G37*
X184508588Y-73607706D02*
X180250353Y-73607706D01*
X180250353Y-72995118D01*
X184508588Y-72995118D01*
X184508588Y-73607706D01*
G36*
X166713647Y-70245941D02*
X165772353Y-70245941D01*
X165772353Y-70529824D01*
X166713647Y-70529824D01*
X166713647Y-71994059D01*
X163710471Y-71994059D01*
X163710471Y-71560765D01*
X166295294Y-71560765D01*
X166295294Y-70963118D01*
X165354000Y-70963118D01*
X165354000Y-69827588D01*
X166713647Y-69827588D01*
X166713647Y-70245941D01*
X166713647Y-70245941D01*
G37*
X166713647Y-70245941D02*
X165772353Y-70245941D01*
X165772353Y-70529824D01*
X166713647Y-70529824D01*
X166713647Y-71994059D01*
X163710471Y-71994059D01*
X163710471Y-71560765D01*
X166295294Y-71560765D01*
X166295294Y-70963118D01*
X165354000Y-70963118D01*
X165354000Y-69827588D01*
X166713647Y-69827588D01*
X166713647Y-70245941D01*
G36*
X167400941Y-70529824D02*
X168387059Y-70529824D01*
X168387059Y-71994059D01*
X167968706Y-71994059D01*
X167968706Y-70963118D01*
X167401333Y-70963118D01*
X167393471Y-71986588D01*
X167180559Y-71990734D01*
X166967647Y-71994879D01*
X166967647Y-68736883D01*
X167400941Y-68736883D01*
X167400941Y-70529824D01*
X167400941Y-70529824D01*
G37*
X167400941Y-70529824D02*
X168387059Y-70529824D01*
X168387059Y-71994059D01*
X167968706Y-71994059D01*
X167968706Y-70963118D01*
X167401333Y-70963118D01*
X167393471Y-71986588D01*
X167180559Y-71990734D01*
X166967647Y-71994879D01*
X166967647Y-68736883D01*
X167400941Y-68736883D01*
X167400941Y-70529824D01*
G36*
X170075412Y-71994059D02*
X168700823Y-71994059D01*
X168700823Y-71202177D01*
X169642118Y-71202177D01*
X169642118Y-70963118D01*
X168700823Y-70963118D01*
X168700823Y-70529824D01*
X170075412Y-70529824D01*
X170075412Y-71994059D01*
X170075412Y-71994059D01*
G37*
X170075412Y-71994059D02*
X168700823Y-71994059D01*
X168700823Y-71202177D01*
X169642118Y-71202177D01*
X169642118Y-70963118D01*
X168700823Y-70963118D01*
X168700823Y-70529824D01*
X170075412Y-70529824D01*
X170075412Y-71994059D01*
G36*
X171853412Y-71994059D02*
X170404118Y-71994059D01*
X170404118Y-70963118D01*
X170822471Y-70963118D01*
X170822471Y-71560765D01*
X171420118Y-71560765D01*
X171420118Y-70963118D01*
X170822471Y-70963118D01*
X170404118Y-70963118D01*
X170404118Y-70529824D01*
X171420118Y-70529824D01*
X171420118Y-68736883D01*
X171853412Y-68736883D01*
X171853412Y-71994059D01*
X171853412Y-71994059D01*
G37*
X171853412Y-71994059D02*
X170404118Y-71994059D01*
X170404118Y-70963118D01*
X170822471Y-70963118D01*
X170822471Y-71560765D01*
X171420118Y-71560765D01*
X171420118Y-70963118D01*
X170822471Y-70963118D01*
X170404118Y-70963118D01*
X170404118Y-70529824D01*
X171420118Y-70529824D01*
X171420118Y-68736883D01*
X171853412Y-68736883D01*
X171853412Y-71994059D01*
G36*
X173526823Y-71994059D02*
X172846531Y-71994059D01*
X172678711Y-71993887D01*
X172538665Y-71993334D01*
X172424285Y-71992342D01*
X172333463Y-71990854D01*
X172264093Y-71988813D01*
X172214067Y-71986161D01*
X172181278Y-71982841D01*
X172163618Y-71978797D01*
X172159081Y-71975383D01*
X172157720Y-71957083D01*
X172156604Y-71911907D01*
X172155748Y-71842860D01*
X172155165Y-71752946D01*
X172154868Y-71645170D01*
X172154870Y-71522538D01*
X172155185Y-71388054D01*
X172155814Y-71247000D01*
X172157370Y-70963118D01*
X172585529Y-70963118D01*
X172585529Y-71560765D01*
X173108471Y-71560765D01*
X173108471Y-70963118D01*
X172585529Y-70963118D01*
X172157370Y-70963118D01*
X172159706Y-70537294D01*
X172843265Y-70533408D01*
X173526823Y-70529522D01*
X173526823Y-71994059D01*
X173526823Y-71994059D01*
G37*
X173526823Y-71994059D02*
X172846531Y-71994059D01*
X172678711Y-71993887D01*
X172538665Y-71993334D01*
X172424285Y-71992342D01*
X172333463Y-71990854D01*
X172264093Y-71988813D01*
X172214067Y-71986161D01*
X172181278Y-71982841D01*
X172163618Y-71978797D01*
X172159081Y-71975383D01*
X172157720Y-71957083D01*
X172156604Y-71911907D01*
X172155748Y-71842860D01*
X172155165Y-71752946D01*
X172154868Y-71645170D01*
X172154870Y-71522538D01*
X172155185Y-71388054D01*
X172155814Y-71247000D01*
X172157370Y-70963118D01*
X172585529Y-70963118D01*
X172585529Y-71560765D01*
X173108471Y-71560765D01*
X173108471Y-70963118D01*
X172585529Y-70963118D01*
X172157370Y-70963118D01*
X172159706Y-70537294D01*
X172843265Y-70533408D01*
X173526823Y-70529522D01*
X173526823Y-71994059D01*
G36*
X175633529Y-71994059D02*
X175428088Y-71993452D01*
X175363043Y-71993820D01*
X175312571Y-71993875D01*
X175272391Y-71991388D01*
X175238220Y-71984129D01*
X175205777Y-71969871D01*
X175170779Y-71946385D01*
X175128947Y-71911440D01*
X175075996Y-71862810D01*
X175007647Y-71798264D01*
X174951484Y-71745359D01*
X174773885Y-71578836D01*
X174550031Y-71786158D01*
X174326176Y-71993480D01*
X174120266Y-71993770D01*
X174030643Y-71993066D01*
X173967736Y-71990482D01*
X173928420Y-71985750D01*
X173909573Y-71978599D01*
X173907198Y-71975383D01*
X173905837Y-71957083D01*
X173904722Y-71911907D01*
X173903866Y-71842860D01*
X173903283Y-71752946D01*
X173902985Y-71645170D01*
X173902987Y-71522538D01*
X173903303Y-71388054D01*
X173903932Y-71247000D01*
X173907823Y-70537294D01*
X174333141Y-70529006D01*
X174337129Y-70910627D01*
X174341118Y-71292248D01*
X174550294Y-71098477D01*
X174616200Y-71038002D01*
X174674974Y-70985165D01*
X174723003Y-70943124D01*
X174756673Y-70915041D01*
X174772372Y-70904073D01*
X174772645Y-70904029D01*
X174787477Y-70913486D01*
X174820123Y-70940082D01*
X174866667Y-70980442D01*
X174923193Y-71031195D01*
X174966974Y-71071441D01*
X175030337Y-71130077D01*
X175088314Y-71183438D01*
X175136365Y-71227368D01*
X175169951Y-71257712D01*
X175181652Y-71267992D01*
X175215176Y-71296455D01*
X175215176Y-70245941D01*
X172152235Y-70245941D01*
X172152235Y-69827588D01*
X175633529Y-69827588D01*
X175633529Y-71994059D01*
X175633529Y-71994059D01*
G37*
X175633529Y-71994059D02*
X175428088Y-71993452D01*
X175363043Y-71993820D01*
X175312571Y-71993875D01*
X175272391Y-71991388D01*
X175238220Y-71984129D01*
X175205777Y-71969871D01*
X175170779Y-71946385D01*
X175128947Y-71911440D01*
X175075996Y-71862810D01*
X175007647Y-71798264D01*
X174951484Y-71745359D01*
X174773885Y-71578836D01*
X174550031Y-71786158D01*
X174326176Y-71993480D01*
X174120266Y-71993770D01*
X174030643Y-71993066D01*
X173967736Y-71990482D01*
X173928420Y-71985750D01*
X173909573Y-71978599D01*
X173907198Y-71975383D01*
X173905837Y-71957083D01*
X173904722Y-71911907D01*
X173903866Y-71842860D01*
X173903283Y-71752946D01*
X173902985Y-71645170D01*
X173902987Y-71522538D01*
X173903303Y-71388054D01*
X173903932Y-71247000D01*
X173907823Y-70537294D01*
X174333141Y-70529006D01*
X174337129Y-70910627D01*
X174341118Y-71292248D01*
X174550294Y-71098477D01*
X174616200Y-71038002D01*
X174674974Y-70985165D01*
X174723003Y-70943124D01*
X174756673Y-70915041D01*
X174772372Y-70904073D01*
X174772645Y-70904029D01*
X174787477Y-70913486D01*
X174820123Y-70940082D01*
X174866667Y-70980442D01*
X174923193Y-71031195D01*
X174966974Y-71071441D01*
X175030337Y-71130077D01*
X175088314Y-71183438D01*
X175136365Y-71227368D01*
X175169951Y-71257712D01*
X175181652Y-71267992D01*
X175215176Y-71296455D01*
X175215176Y-70245941D01*
X172152235Y-70245941D01*
X172152235Y-69827588D01*
X175633529Y-69827588D01*
X175633529Y-71994059D01*
G36*
X177706618Y-70533408D02*
X178390176Y-70537294D01*
X178390176Y-71986588D01*
X177706618Y-71990474D01*
X177023059Y-71994360D01*
X177023059Y-70963118D01*
X177441412Y-70963118D01*
X177441412Y-71560765D01*
X177964353Y-71560765D01*
X177964353Y-70963118D01*
X177441412Y-70963118D01*
X177023059Y-70963118D01*
X177023059Y-70529522D01*
X177706618Y-70533408D01*
X177706618Y-70533408D01*
G37*
X177706618Y-70533408D02*
X178390176Y-70537294D01*
X178390176Y-71986588D01*
X177706618Y-71990474D01*
X177023059Y-71994360D01*
X177023059Y-70963118D01*
X177441412Y-70963118D01*
X177441412Y-71560765D01*
X177964353Y-71560765D01*
X177964353Y-70963118D01*
X177441412Y-70963118D01*
X177023059Y-70963118D01*
X177023059Y-70529522D01*
X177706618Y-70533408D01*
G36*
X179802118Y-69155235D02*
X179070000Y-69155235D01*
X179070000Y-69827588D01*
X179802118Y-69827588D01*
X179802118Y-70245941D01*
X179070000Y-70245941D01*
X179070000Y-71994059D01*
X178863314Y-71994059D01*
X178787557Y-71993375D01*
X178722785Y-71991499D01*
X178674728Y-71988694D01*
X178649112Y-71985224D01*
X178646667Y-71984098D01*
X178644848Y-71967740D01*
X178643136Y-71924170D01*
X178641562Y-71856060D01*
X178640156Y-71766080D01*
X178638948Y-71656902D01*
X178637969Y-71531196D01*
X178637250Y-71391634D01*
X178636820Y-71240885D01*
X178636706Y-71110039D01*
X178636706Y-70245941D01*
X177023059Y-70245941D01*
X177023059Y-69827588D01*
X178636706Y-69827588D01*
X178636706Y-68736883D01*
X179802118Y-68736883D01*
X179802118Y-69155235D01*
X179802118Y-69155235D01*
G37*
X179802118Y-69155235D02*
X179070000Y-69155235D01*
X179070000Y-69827588D01*
X179802118Y-69827588D01*
X179802118Y-70245941D01*
X179070000Y-70245941D01*
X179070000Y-71994059D01*
X178863314Y-71994059D01*
X178787557Y-71993375D01*
X178722785Y-71991499D01*
X178674728Y-71988694D01*
X178649112Y-71985224D01*
X178646667Y-71984098D01*
X178644848Y-71967740D01*
X178643136Y-71924170D01*
X178641562Y-71856060D01*
X178640156Y-71766080D01*
X178638948Y-71656902D01*
X178637969Y-71531196D01*
X178637250Y-71391634D01*
X178636820Y-71240885D01*
X178636706Y-71110039D01*
X178636706Y-70245941D01*
X177023059Y-70245941D01*
X177023059Y-69827588D01*
X178636706Y-69827588D01*
X178636706Y-68736883D01*
X179802118Y-68736883D01*
X179802118Y-69155235D01*
G36*
X181475529Y-69827588D02*
X182088118Y-69827588D01*
X182088118Y-68736883D01*
X182521412Y-68736883D01*
X182521412Y-69827588D01*
X183612118Y-69827588D01*
X183612118Y-70245941D01*
X182521412Y-70245941D01*
X182521412Y-70529824D01*
X183567294Y-70529824D01*
X183567294Y-71994059D01*
X183148941Y-71994059D01*
X183148941Y-70963118D01*
X182521412Y-70963118D01*
X182521412Y-71994879D01*
X182308500Y-71990734D01*
X182095588Y-71986588D01*
X182091732Y-71116265D01*
X182087877Y-70245941D01*
X181475529Y-70245941D01*
X181475529Y-71994059D01*
X181268843Y-71994059D01*
X181193086Y-71993375D01*
X181128315Y-71991499D01*
X181080257Y-71988694D01*
X181054642Y-71985224D01*
X181052196Y-71984098D01*
X181050377Y-71967740D01*
X181048665Y-71924170D01*
X181047091Y-71856060D01*
X181045685Y-71766080D01*
X181044477Y-71656902D01*
X181043499Y-71531196D01*
X181042779Y-71391634D01*
X181042350Y-71240885D01*
X181042235Y-71110039D01*
X181042235Y-70245941D01*
X180384823Y-70245941D01*
X180384823Y-69827588D01*
X181042235Y-69827588D01*
X181042235Y-68736883D01*
X181475529Y-68736883D01*
X181475529Y-69827588D01*
X181475529Y-69827588D01*
G37*
X181475529Y-69827588D02*
X182088118Y-69827588D01*
X182088118Y-68736883D01*
X182521412Y-68736883D01*
X182521412Y-69827588D01*
X183612118Y-69827588D01*
X183612118Y-70245941D01*
X182521412Y-70245941D01*
X182521412Y-70529824D01*
X183567294Y-70529824D01*
X183567294Y-71994059D01*
X183148941Y-71994059D01*
X183148941Y-70963118D01*
X182521412Y-70963118D01*
X182521412Y-71994879D01*
X182308500Y-71990734D01*
X182095588Y-71986588D01*
X182091732Y-71116265D01*
X182087877Y-70245941D01*
X181475529Y-70245941D01*
X181475529Y-71994059D01*
X181268843Y-71994059D01*
X181193086Y-71993375D01*
X181128315Y-71991499D01*
X181080257Y-71988694D01*
X181054642Y-71985224D01*
X181052196Y-71984098D01*
X181050377Y-71967740D01*
X181048665Y-71924170D01*
X181047091Y-71856060D01*
X181045685Y-71766080D01*
X181044477Y-71656902D01*
X181043499Y-71531196D01*
X181042779Y-71391634D01*
X181042350Y-71240885D01*
X181042235Y-71110039D01*
X181042235Y-70245941D01*
X180384823Y-70245941D01*
X180384823Y-69827588D01*
X181042235Y-69827588D01*
X181042235Y-68736883D01*
X181475529Y-68736883D01*
X181475529Y-69827588D01*
G36*
X185300471Y-70245941D02*
X184284471Y-70245941D01*
X184284471Y-70529824D01*
X185300471Y-70529824D01*
X185300471Y-70963118D01*
X184284471Y-70963118D01*
X184284471Y-71560765D01*
X186824471Y-71560765D01*
X186824471Y-71994059D01*
X183866118Y-71994059D01*
X183866118Y-69827588D01*
X185300471Y-69827588D01*
X185300471Y-70245941D01*
X185300471Y-70245941D01*
G37*
X185300471Y-70245941D02*
X184284471Y-70245941D01*
X184284471Y-70529824D01*
X185300471Y-70529824D01*
X185300471Y-70963118D01*
X184284471Y-70963118D01*
X184284471Y-71560765D01*
X186824471Y-71560765D01*
X186824471Y-71994059D01*
X183866118Y-71994059D01*
X183866118Y-69827588D01*
X185300471Y-69827588D01*
X185300471Y-70245941D01*
G36*
X170075412Y-70245941D02*
X168700823Y-70245941D01*
X168700823Y-69827588D01*
X170075412Y-69827588D01*
X170075412Y-70245941D01*
X170075412Y-70245941D01*
G37*
X170075412Y-70245941D02*
X168700823Y-70245941D01*
X168700823Y-69827588D01*
X170075412Y-69827588D01*
X170075412Y-70245941D01*
G36*
X178532118Y-75445471D02*
X177516118Y-75445471D01*
X177516118Y-74862765D01*
X178532118Y-74862765D01*
X178532118Y-75445471D01*
X178532118Y-75445471D01*
G37*
X178532118Y-75445471D02*
X177516118Y-75445471D01*
X177516118Y-74862765D01*
X178532118Y-74862765D01*
X178532118Y-75445471D01*
D17*
X155392381Y-87098095D02*
X154392381Y-87098095D01*
X154392381Y-86860000D01*
X154440000Y-86717142D01*
X154535238Y-86621904D01*
X154630476Y-86574285D01*
X154820952Y-86526666D01*
X154963810Y-86526666D01*
X155154286Y-86574285D01*
X155249524Y-86621904D01*
X155344762Y-86717142D01*
X155392381Y-86860000D01*
X155392381Y-87098095D01*
X155392381Y-85574285D02*
X155392381Y-86145714D01*
X155392381Y-85860000D02*
X154392381Y-85860000D01*
X154535238Y-85955238D01*
X154630476Y-86050476D01*
X154678095Y-86145714D01*
X155541657Y-83794571D02*
X155541657Y-83337428D01*
X155541657Y-89103171D02*
X155541657Y-88646028D01*
X155770229Y-88874599D02*
X155313086Y-88874599D01*
D18*
X154658190Y-83696952D02*
X154158190Y-83696952D01*
X154658190Y-83411238D02*
X154372476Y-83625524D01*
X154158190Y-83411238D02*
X154443905Y-83696952D01*
X154515333Y-89019047D02*
X154515333Y-88780952D01*
X154658190Y-89066666D02*
X154158190Y-88899999D01*
X154658190Y-88733333D01*
D17*
X152852381Y-87098095D02*
X151852381Y-87098095D01*
X151852381Y-86860000D01*
X151900000Y-86717142D01*
X151995238Y-86621904D01*
X152090476Y-86574285D01*
X152280952Y-86526666D01*
X152423810Y-86526666D01*
X152614286Y-86574285D01*
X152709524Y-86621904D01*
X152804762Y-86717142D01*
X152852381Y-86860000D01*
X152852381Y-87098095D01*
X151947619Y-86145714D02*
X151900000Y-86098095D01*
X151852381Y-86002857D01*
X151852381Y-85764761D01*
X151900000Y-85669523D01*
X151947619Y-85621904D01*
X152042857Y-85574285D01*
X152138095Y-85574285D01*
X152280952Y-85621904D01*
X152852381Y-86193333D01*
X152852381Y-85574285D01*
X153001657Y-83794571D02*
X153001657Y-83337428D01*
X153001657Y-89103171D02*
X153001657Y-88646028D01*
X153230229Y-88874599D02*
X152773086Y-88874599D01*
D18*
X152118190Y-83696952D02*
X151618190Y-83696952D01*
X152118190Y-83411238D02*
X151832476Y-83625524D01*
X151618190Y-83411238D02*
X151903905Y-83696952D01*
X151975333Y-89019047D02*
X151975333Y-88780952D01*
X152118190Y-89066666D02*
X151618190Y-88899999D01*
X152118190Y-88733333D01*
D17*
X150312381Y-87098095D02*
X149312381Y-87098095D01*
X149312381Y-86860000D01*
X149360000Y-86717142D01*
X149455238Y-86621904D01*
X149550476Y-86574285D01*
X149740952Y-86526666D01*
X149883810Y-86526666D01*
X150074286Y-86574285D01*
X150169524Y-86621904D01*
X150264762Y-86717142D01*
X150312381Y-86860000D01*
X150312381Y-87098095D01*
X149312381Y-86193333D02*
X149312381Y-85574285D01*
X149693333Y-85907619D01*
X149693333Y-85764761D01*
X149740952Y-85669523D01*
X149788571Y-85621904D01*
X149883810Y-85574285D01*
X150121905Y-85574285D01*
X150217143Y-85621904D01*
X150264762Y-85669523D01*
X150312381Y-85764761D01*
X150312381Y-86050476D01*
X150264762Y-86145714D01*
X150217143Y-86193333D01*
X150461657Y-83794571D02*
X150461657Y-83337428D01*
X150461657Y-89103171D02*
X150461657Y-88646028D01*
X150690229Y-88874599D02*
X150233086Y-88874599D01*
D18*
X149578190Y-83696952D02*
X149078190Y-83696952D01*
X149578190Y-83411238D02*
X149292476Y-83625524D01*
X149078190Y-83411238D02*
X149363905Y-83696952D01*
X149435333Y-89019047D02*
X149435333Y-88780952D01*
X149578190Y-89066666D02*
X149078190Y-88899999D01*
X149578190Y-88733333D01*
D17*
X147772381Y-87098095D02*
X146772381Y-87098095D01*
X146772381Y-86860000D01*
X146820000Y-86717142D01*
X146915238Y-86621904D01*
X147010476Y-86574285D01*
X147200952Y-86526666D01*
X147343810Y-86526666D01*
X147534286Y-86574285D01*
X147629524Y-86621904D01*
X147724762Y-86717142D01*
X147772381Y-86860000D01*
X147772381Y-87098095D01*
X147105714Y-85669523D02*
X147772381Y-85669523D01*
X146724762Y-85907619D02*
X147439048Y-86145714D01*
X147439048Y-85526666D01*
X147921657Y-83794571D02*
X147921657Y-83337428D01*
X147921657Y-89103171D02*
X147921657Y-88646028D01*
X148150229Y-88874599D02*
X147693086Y-88874599D01*
D18*
X147038190Y-83696952D02*
X146538190Y-83696952D01*
X147038190Y-83411238D02*
X146752476Y-83625524D01*
X146538190Y-83411238D02*
X146823905Y-83696952D01*
X146895333Y-89019047D02*
X146895333Y-88780952D01*
X147038190Y-89066666D02*
X146538190Y-88899999D01*
X147038190Y-88733333D01*
D17*
X145232381Y-87098095D02*
X144232381Y-87098095D01*
X144232381Y-86860000D01*
X144280000Y-86717142D01*
X144375238Y-86621904D01*
X144470476Y-86574285D01*
X144660952Y-86526666D01*
X144803810Y-86526666D01*
X144994286Y-86574285D01*
X145089524Y-86621904D01*
X145184762Y-86717142D01*
X145232381Y-86860000D01*
X145232381Y-87098095D01*
X144232381Y-85621904D02*
X144232381Y-86098095D01*
X144708571Y-86145714D01*
X144660952Y-86098095D01*
X144613333Y-86002857D01*
X144613333Y-85764761D01*
X144660952Y-85669523D01*
X144708571Y-85621904D01*
X144803810Y-85574285D01*
X145041905Y-85574285D01*
X145137143Y-85621904D01*
X145184762Y-85669523D01*
X145232381Y-85764761D01*
X145232381Y-86002857D01*
X145184762Y-86098095D01*
X145137143Y-86145714D01*
X145381657Y-83794571D02*
X145381657Y-83337428D01*
X145381657Y-89103171D02*
X145381657Y-88646028D01*
X145610229Y-88874599D02*
X145153086Y-88874599D01*
D18*
X144498190Y-83696952D02*
X143998190Y-83696952D01*
X144498190Y-83411238D02*
X144212476Y-83625524D01*
X143998190Y-83411238D02*
X144283905Y-83696952D01*
X144355333Y-89019047D02*
X144355333Y-88780952D01*
X144498190Y-89066666D02*
X143998190Y-88899999D01*
X144498190Y-88733333D01*
D19*
X141906667Y-68032381D02*
X141906667Y-68746667D01*
X141859047Y-68889524D01*
X141763809Y-68984762D01*
X141620952Y-69032381D01*
X141525714Y-69032381D01*
X142906667Y-69032381D02*
X142335238Y-69032381D01*
X142620952Y-69032381D02*
X142620952Y-68032381D01*
X142525714Y-68175238D01*
X142430476Y-68270476D01*
X142335238Y-68318095D01*
D18*
X192385238Y-125321190D02*
X192385238Y-124821190D01*
X192670952Y-125321190D01*
X192670952Y-124821190D01*
X193266190Y-124797381D02*
X192837619Y-125440238D01*
X193718572Y-125273571D02*
X193694762Y-125297381D01*
X193623334Y-125321190D01*
X193575715Y-125321190D01*
X193504286Y-125297381D01*
X193456667Y-125249762D01*
X193432858Y-125202143D01*
X193409048Y-125106905D01*
X193409048Y-125035476D01*
X193432858Y-124940238D01*
X193456667Y-124892619D01*
X193504286Y-124845000D01*
X193575715Y-124821190D01*
X193623334Y-124821190D01*
X193694762Y-124845000D01*
X193718572Y-124868810D01*
X189904763Y-125178333D02*
X190142858Y-125178333D01*
X189857144Y-125321190D02*
X190023811Y-124821190D01*
X190190477Y-125321190D01*
X190619048Y-125321190D02*
X190333334Y-125321190D01*
X190476191Y-125321190D02*
X190476191Y-124821190D01*
X190428572Y-124892619D01*
X190380953Y-124940238D01*
X190333334Y-124964048D01*
X190928572Y-124821190D02*
X190976191Y-124821190D01*
X191023810Y-124845000D01*
X191047619Y-124868810D01*
X191071429Y-124916429D01*
X191095238Y-125011667D01*
X191095238Y-125130714D01*
X191071429Y-125225952D01*
X191047619Y-125273571D01*
X191023810Y-125297381D01*
X190976191Y-125321190D01*
X190928572Y-125321190D01*
X190880953Y-125297381D01*
X190857143Y-125273571D01*
X190833334Y-125225952D01*
X190809524Y-125130714D01*
X190809524Y-125011667D01*
X190833334Y-124916429D01*
X190857143Y-124868810D01*
X190880953Y-124845000D01*
X190928572Y-124821190D01*
X192444763Y-134068333D02*
X192682858Y-134068333D01*
X192397144Y-134211190D02*
X192563811Y-133711190D01*
X192730477Y-134211190D01*
X193159048Y-134211190D02*
X192873334Y-134211190D01*
X193016191Y-134211190D02*
X193016191Y-133711190D01*
X192968572Y-133782619D01*
X192920953Y-133830238D01*
X192873334Y-133854048D01*
X193635238Y-134211190D02*
X193349524Y-134211190D01*
X193492381Y-134211190D02*
X193492381Y-133711190D01*
X193444762Y-133782619D01*
X193397143Y-133830238D01*
X193349524Y-133854048D01*
X190142858Y-134068333D02*
X190380953Y-134068333D01*
X190095239Y-134211190D02*
X190261906Y-133711190D01*
X190428572Y-134211190D01*
X190619048Y-134211190D02*
X190714286Y-134211190D01*
X190761905Y-134187381D01*
X190785715Y-134163571D01*
X190833334Y-134092143D01*
X190857143Y-133996905D01*
X190857143Y-133806429D01*
X190833334Y-133758810D01*
X190809524Y-133735000D01*
X190761905Y-133711190D01*
X190666667Y-133711190D01*
X190619048Y-133735000D01*
X190595239Y-133758810D01*
X190571429Y-133806429D01*
X190571429Y-133925476D01*
X190595239Y-133973095D01*
X190619048Y-133996905D01*
X190666667Y-134020714D01*
X190761905Y-134020714D01*
X190809524Y-133996905D01*
X190833334Y-133973095D01*
X190857143Y-133925476D01*
X187602858Y-125178333D02*
X187840953Y-125178333D01*
X187555239Y-125321190D02*
X187721906Y-124821190D01*
X187888572Y-125321190D01*
X188126667Y-125035476D02*
X188079048Y-125011667D01*
X188055239Y-124987857D01*
X188031429Y-124940238D01*
X188031429Y-124916429D01*
X188055239Y-124868810D01*
X188079048Y-124845000D01*
X188126667Y-124821190D01*
X188221905Y-124821190D01*
X188269524Y-124845000D01*
X188293334Y-124868810D01*
X188317143Y-124916429D01*
X188317143Y-124940238D01*
X188293334Y-124987857D01*
X188269524Y-125011667D01*
X188221905Y-125035476D01*
X188126667Y-125035476D01*
X188079048Y-125059286D01*
X188055239Y-125083095D01*
X188031429Y-125130714D01*
X188031429Y-125225952D01*
X188055239Y-125273571D01*
X188079048Y-125297381D01*
X188126667Y-125321190D01*
X188221905Y-125321190D01*
X188269524Y-125297381D01*
X188293334Y-125273571D01*
X188317143Y-125225952D01*
X188317143Y-125130714D01*
X188293334Y-125083095D01*
X188269524Y-125059286D01*
X188221905Y-125035476D01*
X184860477Y-125321190D02*
X184693810Y-125083095D01*
X184574763Y-125321190D02*
X184574763Y-124821190D01*
X184765239Y-124821190D01*
X184812858Y-124845000D01*
X184836667Y-124868810D01*
X184860477Y-124916429D01*
X184860477Y-124987857D01*
X184836667Y-125035476D01*
X184812858Y-125059286D01*
X184765239Y-125083095D01*
X184574763Y-125083095D01*
X185241429Y-125059286D02*
X185074763Y-125059286D01*
X185074763Y-125321190D02*
X185074763Y-124821190D01*
X185312858Y-124821190D01*
X185479524Y-125297381D02*
X185550953Y-125321190D01*
X185670000Y-125321190D01*
X185717619Y-125297381D01*
X185741429Y-125273571D01*
X185765238Y-125225952D01*
X185765238Y-125178333D01*
X185741429Y-125130714D01*
X185717619Y-125106905D01*
X185670000Y-125083095D01*
X185574762Y-125059286D01*
X185527143Y-125035476D01*
X185503334Y-125011667D01*
X185479524Y-124964048D01*
X185479524Y-124916429D01*
X185503334Y-124868810D01*
X185527143Y-124845000D01*
X185574762Y-124821190D01*
X185693810Y-124821190D01*
X185765238Y-124845000D01*
X185979524Y-125321190D02*
X185979524Y-124821190D01*
X185979524Y-125059286D02*
X186265238Y-125059286D01*
X186265238Y-125321190D02*
X186265238Y-124821190D01*
X184455715Y-124735000D02*
X186384286Y-124735000D01*
X182475239Y-125321190D02*
X182475239Y-124821190D01*
X182641905Y-125178333D01*
X182808572Y-124821190D01*
X182808572Y-125321190D01*
X183308572Y-125321190D02*
X183022858Y-125321190D01*
X183165715Y-125321190D02*
X183165715Y-124821190D01*
X183118096Y-124892619D01*
X183070477Y-124940238D01*
X183022858Y-124964048D01*
X182356191Y-124735000D02*
X183403810Y-124735000D01*
X179220953Y-125130714D02*
X179601905Y-125130714D01*
X179411429Y-125321190D02*
X179411429Y-124940238D01*
X180101905Y-125321190D02*
X179816191Y-125321190D01*
X179959048Y-125321190D02*
X179959048Y-124821190D01*
X179911429Y-124892619D01*
X179863810Y-124940238D01*
X179816191Y-124964048D01*
X180292381Y-124868810D02*
X180316191Y-124845000D01*
X180363810Y-124821190D01*
X180482857Y-124821190D01*
X180530476Y-124845000D01*
X180554286Y-124868810D01*
X180578095Y-124916429D01*
X180578095Y-124964048D01*
X180554286Y-125035476D01*
X180268572Y-125321190D01*
X180578095Y-125321190D01*
X180744762Y-124987857D02*
X180863809Y-125321190D01*
X180982857Y-124987857D01*
X181173333Y-124821190D02*
X181173333Y-125225952D01*
X181197142Y-125273571D01*
X181220952Y-125297381D01*
X181268571Y-125321190D01*
X181363809Y-125321190D01*
X181411428Y-125297381D01*
X181435237Y-125273571D01*
X181459047Y-125225952D01*
X181459047Y-124821190D01*
D10*
X187017143Y-133956429D02*
X187074286Y-133975476D01*
X187093334Y-133994524D01*
X187112382Y-134032619D01*
X187112382Y-134089762D01*
X187093334Y-134127857D01*
X187074286Y-134146905D01*
X187036191Y-134165952D01*
X186883810Y-134165952D01*
X186883810Y-133765952D01*
X187017143Y-133765952D01*
X187055239Y-133785000D01*
X187074286Y-133804048D01*
X187093334Y-133842143D01*
X187093334Y-133880238D01*
X187074286Y-133918333D01*
X187055239Y-133937381D01*
X187017143Y-133956429D01*
X186883810Y-133956429D01*
X187283810Y-133765952D02*
X187283810Y-134089762D01*
X187302858Y-134127857D01*
X187321905Y-134146905D01*
X187360001Y-134165952D01*
X187436191Y-134165952D01*
X187474286Y-134146905D01*
X187493334Y-134127857D01*
X187512382Y-134089762D01*
X187512382Y-133765952D01*
X187683810Y-134146905D02*
X187740953Y-134165952D01*
X187836191Y-134165952D01*
X187874287Y-134146905D01*
X187893334Y-134127857D01*
X187912382Y-134089762D01*
X187912382Y-134051667D01*
X187893334Y-134013571D01*
X187874287Y-133994524D01*
X187836191Y-133975476D01*
X187760001Y-133956429D01*
X187721906Y-133937381D01*
X187702858Y-133918333D01*
X187683810Y-133880238D01*
X187683810Y-133842143D01*
X187702858Y-133804048D01*
X187721906Y-133785000D01*
X187760001Y-133765952D01*
X187855239Y-133765952D01*
X187912382Y-133785000D01*
X188064762Y-134051667D02*
X188255239Y-134051667D01*
X188026667Y-134165952D02*
X188160001Y-133765952D01*
X188293334Y-134165952D01*
X188655239Y-134127857D02*
X188636191Y-134146905D01*
X188579048Y-134165952D01*
X188540953Y-134165952D01*
X188483810Y-134146905D01*
X188445715Y-134108810D01*
X188426667Y-134070714D01*
X188407619Y-133994524D01*
X188407619Y-133937381D01*
X188426667Y-133861190D01*
X188445715Y-133823095D01*
X188483810Y-133785000D01*
X188540953Y-133765952D01*
X188579048Y-133765952D01*
X188636191Y-133785000D01*
X188655239Y-133804048D01*
X188826667Y-134165952D02*
X188826667Y-133765952D01*
X189055239Y-134165952D02*
X188883810Y-133937381D01*
X189055239Y-133765952D02*
X188826667Y-133994524D01*
X186788572Y-133697000D02*
X189131429Y-133697000D01*
X184715239Y-134165952D02*
X184581905Y-133975476D01*
X184486667Y-134165952D02*
X184486667Y-133765952D01*
X184639048Y-133765952D01*
X184677143Y-133785000D01*
X184696191Y-133804048D01*
X184715239Y-133842143D01*
X184715239Y-133899286D01*
X184696191Y-133937381D01*
X184677143Y-133956429D01*
X184639048Y-133975476D01*
X184486667Y-133975476D01*
X184962858Y-133765952D02*
X185039048Y-133765952D01*
X185077143Y-133785000D01*
X185115239Y-133823095D01*
X185134286Y-133899286D01*
X185134286Y-134032619D01*
X185115239Y-134108810D01*
X185077143Y-134146905D01*
X185039048Y-134165952D01*
X184962858Y-134165952D01*
X184924762Y-134146905D01*
X184886667Y-134108810D01*
X184867619Y-134032619D01*
X184867619Y-133899286D01*
X184886667Y-133823095D01*
X184924762Y-133785000D01*
X184962858Y-133765952D01*
X185305715Y-134165952D02*
X185305715Y-133765952D01*
X185439048Y-134051667D01*
X185572382Y-133765952D01*
X185572382Y-134165952D01*
X185991430Y-134127857D02*
X185972382Y-134146905D01*
X185915239Y-134165952D01*
X185877144Y-134165952D01*
X185820001Y-134146905D01*
X185781906Y-134108810D01*
X185762858Y-134070714D01*
X185743810Y-133994524D01*
X185743810Y-133937381D01*
X185762858Y-133861190D01*
X185781906Y-133823095D01*
X185820001Y-133785000D01*
X185877144Y-133765952D01*
X185915239Y-133765952D01*
X185972382Y-133785000D01*
X185991430Y-133804048D01*
X186143810Y-134146905D02*
X186200953Y-134165952D01*
X186296191Y-134165952D01*
X186334287Y-134146905D01*
X186353334Y-134127857D01*
X186372382Y-134089762D01*
X186372382Y-134051667D01*
X186353334Y-134013571D01*
X186334287Y-133994524D01*
X186296191Y-133975476D01*
X186220001Y-133956429D01*
X186181906Y-133937381D01*
X186162858Y-133918333D01*
X186143810Y-133880238D01*
X186143810Y-133842143D01*
X186162858Y-133804048D01*
X186181906Y-133785000D01*
X186220001Y-133765952D01*
X186315239Y-133765952D01*
X186372382Y-133785000D01*
X184391429Y-133697000D02*
X186448572Y-133697000D01*
D18*
X182522858Y-134068333D02*
X182760953Y-134068333D01*
X182475239Y-134211190D02*
X182641906Y-133711190D01*
X182808572Y-134211190D01*
X183189524Y-133877857D02*
X183189524Y-134211190D01*
X183070477Y-133687381D02*
X182951429Y-134044524D01*
X183260953Y-134044524D01*
X179982858Y-134068333D02*
X180220953Y-134068333D01*
X179935239Y-134211190D02*
X180101906Y-133711190D01*
X180268572Y-134211190D01*
X180673334Y-133711190D02*
X180435239Y-133711190D01*
X180411429Y-133949286D01*
X180435239Y-133925476D01*
X180482858Y-133901667D01*
X180601905Y-133901667D01*
X180649524Y-133925476D01*
X180673334Y-133949286D01*
X180697143Y-133996905D01*
X180697143Y-134115952D01*
X180673334Y-134163571D01*
X180649524Y-134187381D01*
X180601905Y-134211190D01*
X180482858Y-134211190D01*
X180435239Y-134187381D01*
X180411429Y-134163571D01*
X176942858Y-125130714D02*
X177323810Y-125130714D01*
X177133334Y-125321190D02*
X177133334Y-124940238D01*
X177823810Y-125321190D02*
X177538096Y-125321190D01*
X177680953Y-125321190D02*
X177680953Y-124821190D01*
X177633334Y-124892619D01*
X177585715Y-124940238D01*
X177538096Y-124964048D01*
X178014286Y-124868810D02*
X178038096Y-124845000D01*
X178085715Y-124821190D01*
X178204762Y-124821190D01*
X178252381Y-124845000D01*
X178276191Y-124868810D01*
X178300000Y-124916429D01*
X178300000Y-124964048D01*
X178276191Y-125035476D01*
X177990477Y-125321190D01*
X178300000Y-125321190D01*
X178466667Y-124987857D02*
X178585714Y-125321190D01*
X178704762Y-124987857D01*
X174521906Y-124821190D02*
X174640953Y-125321190D01*
X174736191Y-124964048D01*
X174831429Y-125321190D01*
X174950477Y-124821190D01*
X175117144Y-125178333D02*
X175355239Y-125178333D01*
X175069525Y-125321190D02*
X175236192Y-124821190D01*
X175402858Y-125321190D01*
X175569525Y-125321190D02*
X175569525Y-124821190D01*
X175736191Y-124821190D02*
X176021905Y-124821190D01*
X175879048Y-125321190D02*
X175879048Y-124821190D01*
X174450477Y-124735000D02*
X176069524Y-124735000D01*
X172100953Y-125130714D02*
X172481905Y-125130714D01*
X172958096Y-124821190D02*
X172720001Y-124821190D01*
X172696191Y-125059286D01*
X172720001Y-125035476D01*
X172767620Y-125011667D01*
X172886667Y-125011667D01*
X172934286Y-125035476D01*
X172958096Y-125059286D01*
X172981905Y-125106905D01*
X172981905Y-125225952D01*
X172958096Y-125273571D01*
X172934286Y-125297381D01*
X172886667Y-125321190D01*
X172767620Y-125321190D01*
X172720001Y-125297381D01*
X172696191Y-125273571D01*
X173148572Y-124987857D02*
X173267619Y-125321190D01*
X173386667Y-124987857D01*
X169715715Y-124821190D02*
X169834762Y-125321190D01*
X169930000Y-124964048D01*
X170025238Y-125321190D01*
X170144286Y-124821190D01*
X170620477Y-125321190D02*
X170453810Y-125083095D01*
X170334763Y-125321190D02*
X170334763Y-124821190D01*
X170525239Y-124821190D01*
X170572858Y-124845000D01*
X170596667Y-124868810D01*
X170620477Y-124916429D01*
X170620477Y-124987857D01*
X170596667Y-125035476D01*
X170572858Y-125059286D01*
X170525239Y-125083095D01*
X170334763Y-125083095D01*
X169644286Y-124735000D02*
X170715715Y-124735000D01*
X177442858Y-134068333D02*
X177680953Y-134068333D01*
X177395239Y-134211190D02*
X177561906Y-133711190D01*
X177728572Y-134211190D01*
X178109524Y-133711190D02*
X178014286Y-133711190D01*
X177966667Y-133735000D01*
X177942858Y-133758810D01*
X177895239Y-133830238D01*
X177871429Y-133925476D01*
X177871429Y-134115952D01*
X177895239Y-134163571D01*
X177919048Y-134187381D01*
X177966667Y-134211190D01*
X178061905Y-134211190D01*
X178109524Y-134187381D01*
X178133334Y-134163571D01*
X178157143Y-134115952D01*
X178157143Y-133996905D01*
X178133334Y-133949286D01*
X178109524Y-133925476D01*
X178061905Y-133901667D01*
X177966667Y-133901667D01*
X177919048Y-133925476D01*
X177895239Y-133949286D01*
X177871429Y-133996905D01*
X174902858Y-134068333D02*
X175140953Y-134068333D01*
X174855239Y-134211190D02*
X175021906Y-133711190D01*
X175188572Y-134211190D01*
X175307620Y-133711190D02*
X175640953Y-133711190D01*
X175426667Y-134211190D01*
X171993810Y-134211190D02*
X171827143Y-133973095D01*
X171708096Y-134211190D02*
X171708096Y-133711190D01*
X171898572Y-133711190D01*
X171946191Y-133735000D01*
X171970000Y-133758810D01*
X171993810Y-133806429D01*
X171993810Y-133877857D01*
X171970000Y-133925476D01*
X171946191Y-133949286D01*
X171898572Y-133973095D01*
X171708096Y-133973095D01*
X172208096Y-133949286D02*
X172374762Y-133949286D01*
X172446191Y-134211190D02*
X172208096Y-134211190D01*
X172208096Y-133711190D01*
X172446191Y-133711190D01*
X172636667Y-134187381D02*
X172708096Y-134211190D01*
X172827143Y-134211190D01*
X172874762Y-134187381D01*
X172898572Y-134163571D01*
X172922381Y-134115952D01*
X172922381Y-134068333D01*
X172898572Y-134020714D01*
X172874762Y-133996905D01*
X172827143Y-133973095D01*
X172731905Y-133949286D01*
X172684286Y-133925476D01*
X172660477Y-133901667D01*
X172636667Y-133854048D01*
X172636667Y-133806429D01*
X172660477Y-133758810D01*
X172684286Y-133735000D01*
X172731905Y-133711190D01*
X172850953Y-133711190D01*
X172922381Y-133735000D01*
X173136667Y-133949286D02*
X173303333Y-133949286D01*
X173374762Y-134211190D02*
X173136667Y-134211190D01*
X173136667Y-133711190D01*
X173374762Y-133711190D01*
X173517619Y-133711190D02*
X173803333Y-133711190D01*
X173660476Y-134211190D02*
X173660476Y-133711190D01*
X171589048Y-133625000D02*
X173850952Y-133625000D01*
X169203809Y-133949286D02*
X169275238Y-133973095D01*
X169299047Y-133996905D01*
X169322857Y-134044524D01*
X169322857Y-134115952D01*
X169299047Y-134163571D01*
X169275238Y-134187381D01*
X169227619Y-134211190D01*
X169037143Y-134211190D01*
X169037143Y-133711190D01*
X169203809Y-133711190D01*
X169251428Y-133735000D01*
X169275238Y-133758810D01*
X169299047Y-133806429D01*
X169299047Y-133854048D01*
X169275238Y-133901667D01*
X169251428Y-133925476D01*
X169203809Y-133949286D01*
X169037143Y-133949286D01*
X169537143Y-133711190D02*
X169537143Y-134115952D01*
X169560952Y-134163571D01*
X169584762Y-134187381D01*
X169632381Y-134211190D01*
X169727619Y-134211190D01*
X169775238Y-134187381D01*
X169799047Y-134163571D01*
X169822857Y-134115952D01*
X169822857Y-133711190D01*
X170037143Y-134187381D02*
X170108572Y-134211190D01*
X170227619Y-134211190D01*
X170275238Y-134187381D01*
X170299048Y-134163571D01*
X170322857Y-134115952D01*
X170322857Y-134068333D01*
X170299048Y-134020714D01*
X170275238Y-133996905D01*
X170227619Y-133973095D01*
X170132381Y-133949286D01*
X170084762Y-133925476D01*
X170060953Y-133901667D01*
X170037143Y-133854048D01*
X170037143Y-133806429D01*
X170060953Y-133758810D01*
X170084762Y-133735000D01*
X170132381Y-133711190D01*
X170251429Y-133711190D01*
X170322857Y-133735000D01*
X170822857Y-134211190D02*
X170656190Y-133973095D01*
X170537143Y-134211190D02*
X170537143Y-133711190D01*
X170727619Y-133711190D01*
X170775238Y-133735000D01*
X170799047Y-133758810D01*
X170822857Y-133806429D01*
X170822857Y-133877857D01*
X170799047Y-133925476D01*
X170775238Y-133949286D01*
X170727619Y-133973095D01*
X170537143Y-133973095D01*
X171370476Y-134258810D02*
X171322857Y-134235000D01*
X171275238Y-134187381D01*
X171203809Y-134115952D01*
X171156190Y-134092143D01*
X171108571Y-134092143D01*
X171132381Y-134211190D02*
X171084762Y-134187381D01*
X171037143Y-134139762D01*
X171013333Y-134044524D01*
X171013333Y-133877857D01*
X171037143Y-133782619D01*
X171084762Y-133735000D01*
X171132381Y-133711190D01*
X171227619Y-133711190D01*
X171275238Y-133735000D01*
X171322857Y-133782619D01*
X171346666Y-133877857D01*
X171346666Y-134044524D01*
X171322857Y-134139762D01*
X171275238Y-134187381D01*
X171227619Y-134211190D01*
X171132381Y-134211190D01*
X168918095Y-133625000D02*
X171441905Y-133625000D01*
X167544762Y-125321190D02*
X167378095Y-125083095D01*
X167259048Y-125321190D02*
X167259048Y-124821190D01*
X167449524Y-124821190D01*
X167497143Y-124845000D01*
X167520952Y-124868810D01*
X167544762Y-124916429D01*
X167544762Y-124987857D01*
X167520952Y-125035476D01*
X167497143Y-125059286D01*
X167449524Y-125083095D01*
X167259048Y-125083095D01*
X167759048Y-125321190D02*
X167759048Y-124821190D01*
X167878095Y-124821190D01*
X167949524Y-124845000D01*
X167997143Y-124892619D01*
X168020952Y-124940238D01*
X168044762Y-125035476D01*
X168044762Y-125106905D01*
X168020952Y-125202143D01*
X167997143Y-125249762D01*
X167949524Y-125297381D01*
X167878095Y-125321190D01*
X167759048Y-125321190D01*
X167140000Y-124735000D02*
X168140000Y-124735000D01*
X164326191Y-125321190D02*
X164326191Y-124821190D01*
X164659524Y-124821190D02*
X164754762Y-124821190D01*
X164802381Y-124845000D01*
X164850000Y-124892619D01*
X164873809Y-124987857D01*
X164873809Y-125154524D01*
X164850000Y-125249762D01*
X164802381Y-125297381D01*
X164754762Y-125321190D01*
X164659524Y-125321190D01*
X164611905Y-125297381D01*
X164564286Y-125249762D01*
X164540476Y-125154524D01*
X164540476Y-124987857D01*
X164564286Y-124892619D01*
X164611905Y-124845000D01*
X164659524Y-124821190D01*
X165373810Y-125321190D02*
X165207143Y-125083095D01*
X165088096Y-125321190D02*
X165088096Y-124821190D01*
X165278572Y-124821190D01*
X165326191Y-124845000D01*
X165350000Y-124868810D01*
X165373810Y-124916429D01*
X165373810Y-124987857D01*
X165350000Y-125035476D01*
X165326191Y-125059286D01*
X165278572Y-125083095D01*
X165088096Y-125083095D01*
X165921429Y-125368810D02*
X165873810Y-125345000D01*
X165826191Y-125297381D01*
X165754762Y-125225952D01*
X165707143Y-125202143D01*
X165659524Y-125202143D01*
X165683334Y-125321190D02*
X165635715Y-125297381D01*
X165588096Y-125249762D01*
X165564286Y-125154524D01*
X165564286Y-124987857D01*
X165588096Y-124892619D01*
X165635715Y-124845000D01*
X165683334Y-124821190D01*
X165778572Y-124821190D01*
X165826191Y-124845000D01*
X165873810Y-124892619D01*
X165897619Y-124987857D01*
X165897619Y-125154524D01*
X165873810Y-125249762D01*
X165826191Y-125297381D01*
X165778572Y-125321190D01*
X165683334Y-125321190D01*
X164207143Y-124735000D02*
X165992858Y-124735000D01*
X161655238Y-125321190D02*
X161655238Y-124821190D01*
X161821904Y-125178333D01*
X161988571Y-124821190D01*
X161988571Y-125321190D01*
X162512381Y-125321190D02*
X162345714Y-125083095D01*
X162226667Y-125321190D02*
X162226667Y-124821190D01*
X162417143Y-124821190D01*
X162464762Y-124845000D01*
X162488571Y-124868810D01*
X162512381Y-124916429D01*
X162512381Y-124987857D01*
X162488571Y-125035476D01*
X162464762Y-125059286D01*
X162417143Y-125083095D01*
X162226667Y-125083095D01*
X162726667Y-125059286D02*
X162893333Y-125059286D01*
X162964762Y-125321190D02*
X162726667Y-125321190D01*
X162726667Y-124821190D01*
X162964762Y-124821190D01*
X163512381Y-125368810D02*
X163464762Y-125345000D01*
X163417143Y-125297381D01*
X163345714Y-125225952D01*
X163298095Y-125202143D01*
X163250476Y-125202143D01*
X163274286Y-125321190D02*
X163226667Y-125297381D01*
X163179048Y-125249762D01*
X163155238Y-125154524D01*
X163155238Y-124987857D01*
X163179048Y-124892619D01*
X163226667Y-124845000D01*
X163274286Y-124821190D01*
X163369524Y-124821190D01*
X163417143Y-124845000D01*
X163464762Y-124892619D01*
X163488571Y-124987857D01*
X163488571Y-125154524D01*
X163464762Y-125249762D01*
X163417143Y-125297381D01*
X163369524Y-125321190D01*
X163274286Y-125321190D01*
X161536190Y-124735000D02*
X163583810Y-124735000D01*
X159270001Y-125321190D02*
X159270001Y-124821190D01*
X159270001Y-125059286D02*
X159555715Y-125059286D01*
X159555715Y-125321190D02*
X159555715Y-124821190D01*
X159770001Y-125178333D02*
X160008096Y-125178333D01*
X159722382Y-125321190D02*
X159889049Y-124821190D01*
X160055715Y-125321190D01*
X160460477Y-125321190D02*
X160222382Y-125321190D01*
X160222382Y-124821190D01*
X160555715Y-124821190D02*
X160841429Y-124821190D01*
X160698572Y-125321190D02*
X160698572Y-124821190D01*
X159150953Y-124735000D02*
X160889048Y-124735000D01*
X167497143Y-133711190D02*
X167497143Y-134115952D01*
X167520952Y-134163571D01*
X167544762Y-134187381D01*
X167592381Y-134211190D01*
X167687619Y-134211190D01*
X167735238Y-134187381D01*
X167759047Y-134163571D01*
X167782857Y-134115952D01*
X167782857Y-133711190D01*
X164933334Y-133711190D02*
X165100001Y-134211190D01*
X165266667Y-133711190D01*
X162560001Y-133973095D02*
X162560001Y-134211190D01*
X162393334Y-133711190D02*
X162560001Y-133973095D01*
X162726667Y-133711190D01*
X158996191Y-133711190D02*
X159162858Y-134211190D01*
X159329524Y-133711190D01*
X159496191Y-134211190D02*
X159496191Y-133711190D01*
X159734286Y-134211190D02*
X159734286Y-133711190D01*
X159853333Y-133711190D01*
X159924762Y-133735000D01*
X159972381Y-133782619D01*
X159996190Y-133830238D01*
X160020000Y-133925476D01*
X160020000Y-133996905D01*
X159996190Y-134092143D01*
X159972381Y-134139762D01*
X159924762Y-134187381D01*
X159853333Y-134211190D01*
X159734286Y-134211190D01*
X160234286Y-133949286D02*
X160400952Y-133949286D01*
X160472381Y-134211190D02*
X160234286Y-134211190D01*
X160234286Y-133711190D01*
X160472381Y-133711190D01*
X160781905Y-133711190D02*
X160877143Y-133711190D01*
X160924762Y-133735000D01*
X160972381Y-133782619D01*
X160996190Y-133877857D01*
X160996190Y-134044524D01*
X160972381Y-134139762D01*
X160924762Y-134187381D01*
X160877143Y-134211190D01*
X160781905Y-134211190D01*
X160734286Y-134187381D01*
X160686667Y-134139762D01*
X160662857Y-134044524D01*
X160662857Y-133877857D01*
X160686667Y-133782619D01*
X160734286Y-133735000D01*
X160781905Y-133711190D01*
X157099047Y-133735000D02*
X157051428Y-133711190D01*
X156980000Y-133711190D01*
X156908571Y-133735000D01*
X156860952Y-133782619D01*
X156837143Y-133830238D01*
X156813333Y-133925476D01*
X156813333Y-133996905D01*
X156837143Y-134092143D01*
X156860952Y-134139762D01*
X156908571Y-134187381D01*
X156980000Y-134211190D01*
X157027619Y-134211190D01*
X157099047Y-134187381D01*
X157122857Y-134163571D01*
X157122857Y-133996905D01*
X157027619Y-133996905D01*
X157337143Y-134211190D02*
X157337143Y-133711190D01*
X157622857Y-134211190D01*
X157622857Y-133711190D01*
X157860953Y-134211190D02*
X157860953Y-133711190D01*
X157980000Y-133711190D01*
X158051429Y-133735000D01*
X158099048Y-133782619D01*
X158122857Y-133830238D01*
X158146667Y-133925476D01*
X158146667Y-133996905D01*
X158122857Y-134092143D01*
X158099048Y-134139762D01*
X158051429Y-134187381D01*
X157980000Y-134211190D01*
X157860953Y-134211190D01*
X153690000Y-134211190D02*
X153690000Y-133711190D01*
X154023333Y-133711190D02*
X154118571Y-133711190D01*
X154166190Y-133735000D01*
X154213809Y-133782619D01*
X154237618Y-133877857D01*
X154237618Y-134044524D01*
X154213809Y-134139762D01*
X154166190Y-134187381D01*
X154118571Y-134211190D01*
X154023333Y-134211190D01*
X153975714Y-134187381D01*
X153928095Y-134139762D01*
X153904285Y-134044524D01*
X153904285Y-133877857D01*
X153928095Y-133782619D01*
X153975714Y-133735000D01*
X154023333Y-133711190D01*
X154737619Y-134211190D02*
X154570952Y-133973095D01*
X154451905Y-134211190D02*
X154451905Y-133711190D01*
X154642381Y-133711190D01*
X154690000Y-133735000D01*
X154713809Y-133758810D01*
X154737619Y-133806429D01*
X154737619Y-133877857D01*
X154713809Y-133925476D01*
X154690000Y-133949286D01*
X154642381Y-133973095D01*
X154451905Y-133973095D01*
X155285238Y-134258810D02*
X155237619Y-134235000D01*
X155190000Y-134187381D01*
X155118571Y-134115952D01*
X155070952Y-134092143D01*
X155023333Y-134092143D01*
X155047143Y-134211190D02*
X154999524Y-134187381D01*
X154951905Y-134139762D01*
X154928095Y-134044524D01*
X154928095Y-133877857D01*
X154951905Y-133782619D01*
X154999524Y-133735000D01*
X155047143Y-133711190D01*
X155142381Y-133711190D01*
X155190000Y-133735000D01*
X155237619Y-133782619D01*
X155261428Y-133877857D01*
X155261428Y-134044524D01*
X155237619Y-134139762D01*
X155190000Y-134187381D01*
X155142381Y-134211190D01*
X155047143Y-134211190D01*
X155737619Y-133735000D02*
X155690000Y-133711190D01*
X155618572Y-133711190D01*
X155547143Y-133735000D01*
X155499524Y-133782619D01*
X155475715Y-133830238D01*
X155451905Y-133925476D01*
X155451905Y-133996905D01*
X155475715Y-134092143D01*
X155499524Y-134139762D01*
X155547143Y-134187381D01*
X155618572Y-134211190D01*
X155666191Y-134211190D01*
X155737619Y-134187381D01*
X155761429Y-134163571D01*
X155761429Y-133996905D01*
X155666191Y-133996905D01*
X155975715Y-133949286D02*
X156142381Y-133949286D01*
X156213810Y-134211190D02*
X155975715Y-134211190D01*
X155975715Y-133711190D01*
X156213810Y-133711190D01*
X153570952Y-133625000D02*
X156309048Y-133625000D01*
X152042858Y-134068333D02*
X152280953Y-134068333D01*
X151995239Y-134211190D02*
X152161906Y-133711190D01*
X152328572Y-134211190D01*
X152447620Y-133711190D02*
X152757143Y-133711190D01*
X152590477Y-133901667D01*
X152661905Y-133901667D01*
X152709524Y-133925476D01*
X152733334Y-133949286D01*
X152757143Y-133996905D01*
X152757143Y-134115952D01*
X152733334Y-134163571D01*
X152709524Y-134187381D01*
X152661905Y-134211190D01*
X152519048Y-134211190D01*
X152471429Y-134187381D01*
X152447620Y-134163571D01*
X156932381Y-125321190D02*
X156932381Y-124821190D01*
X157218095Y-125321190D01*
X157218095Y-124821190D01*
X157456191Y-125321190D02*
X157456191Y-124821190D01*
X157622857Y-125178333D01*
X157789524Y-124821190D01*
X157789524Y-125321190D01*
X158027620Y-125321190D02*
X158027620Y-124821190D01*
X156813333Y-124735000D02*
X158146667Y-124735000D01*
X154487620Y-125321190D02*
X154487620Y-124821190D01*
X154725715Y-125321190D02*
X154725715Y-124821190D01*
X155011429Y-125321190D01*
X155011429Y-124821190D01*
X155178096Y-124821190D02*
X155463810Y-124821190D01*
X155320953Y-125321190D02*
X155320953Y-124821190D01*
X154368572Y-124735000D02*
X155511429Y-124735000D01*
X152030953Y-125321190D02*
X152030953Y-124821190D01*
X152150000Y-124821190D01*
X152221429Y-124845000D01*
X152269048Y-124892619D01*
X152292857Y-124940238D01*
X152316667Y-125035476D01*
X152316667Y-125106905D01*
X152292857Y-125202143D01*
X152269048Y-125249762D01*
X152221429Y-125297381D01*
X152150000Y-125321190D01*
X152030953Y-125321190D01*
X152745238Y-124987857D02*
X152745238Y-125321190D01*
X152626191Y-124797381D02*
X152507143Y-125154524D01*
X152816667Y-125154524D01*
X149490953Y-125321190D02*
X149490953Y-124821190D01*
X149610000Y-124821190D01*
X149681429Y-124845000D01*
X149729048Y-124892619D01*
X149752857Y-124940238D01*
X149776667Y-125035476D01*
X149776667Y-125106905D01*
X149752857Y-125202143D01*
X149729048Y-125249762D01*
X149681429Y-125297381D01*
X149610000Y-125321190D01*
X149490953Y-125321190D01*
X149943334Y-124821190D02*
X150252857Y-124821190D01*
X150086191Y-125011667D01*
X150157619Y-125011667D01*
X150205238Y-125035476D01*
X150229048Y-125059286D01*
X150252857Y-125106905D01*
X150252857Y-125225952D01*
X150229048Y-125273571D01*
X150205238Y-125297381D01*
X150157619Y-125321190D01*
X150014762Y-125321190D01*
X149967143Y-125297381D01*
X149943334Y-125273571D01*
X149502858Y-134068333D02*
X149740953Y-134068333D01*
X149455239Y-134211190D02*
X149621906Y-133711190D01*
X149788572Y-134211190D01*
X149931429Y-133758810D02*
X149955239Y-133735000D01*
X150002858Y-133711190D01*
X150121905Y-133711190D01*
X150169524Y-133735000D01*
X150193334Y-133758810D01*
X150217143Y-133806429D01*
X150217143Y-133854048D01*
X150193334Y-133925476D01*
X149907620Y-134211190D01*
X150217143Y-134211190D01*
X146950953Y-125321190D02*
X146950953Y-124821190D01*
X147070000Y-124821190D01*
X147141429Y-124845000D01*
X147189048Y-124892619D01*
X147212857Y-124940238D01*
X147236667Y-125035476D01*
X147236667Y-125106905D01*
X147212857Y-125202143D01*
X147189048Y-125249762D01*
X147141429Y-125297381D01*
X147070000Y-125321190D01*
X146950953Y-125321190D01*
X147689048Y-124821190D02*
X147450953Y-124821190D01*
X147427143Y-125059286D01*
X147450953Y-125035476D01*
X147498572Y-125011667D01*
X147617619Y-125011667D01*
X147665238Y-125035476D01*
X147689048Y-125059286D01*
X147712857Y-125106905D01*
X147712857Y-125225952D01*
X147689048Y-125273571D01*
X147665238Y-125297381D01*
X147617619Y-125321190D01*
X147498572Y-125321190D01*
X147450953Y-125297381D01*
X147427143Y-125273571D01*
X144410953Y-125321190D02*
X144410953Y-124821190D01*
X144530000Y-124821190D01*
X144601429Y-124845000D01*
X144649048Y-124892619D01*
X144672857Y-124940238D01*
X144696667Y-125035476D01*
X144696667Y-125106905D01*
X144672857Y-125202143D01*
X144649048Y-125249762D01*
X144601429Y-125297381D01*
X144530000Y-125321190D01*
X144410953Y-125321190D01*
X145125238Y-124821190D02*
X145030000Y-124821190D01*
X144982381Y-124845000D01*
X144958572Y-124868810D01*
X144910953Y-124940238D01*
X144887143Y-125035476D01*
X144887143Y-125225952D01*
X144910953Y-125273571D01*
X144934762Y-125297381D01*
X144982381Y-125321190D01*
X145077619Y-125321190D01*
X145125238Y-125297381D01*
X145149048Y-125273571D01*
X145172857Y-125225952D01*
X145172857Y-125106905D01*
X145149048Y-125059286D01*
X145125238Y-125035476D01*
X145077619Y-125011667D01*
X144982381Y-125011667D01*
X144934762Y-125035476D01*
X144910953Y-125059286D01*
X144887143Y-125106905D01*
X141870953Y-125321190D02*
X141870953Y-124821190D01*
X141990000Y-124821190D01*
X142061429Y-124845000D01*
X142109048Y-124892619D01*
X142132857Y-124940238D01*
X142156667Y-125035476D01*
X142156667Y-125106905D01*
X142132857Y-125202143D01*
X142109048Y-125249762D01*
X142061429Y-125297381D01*
X141990000Y-125321190D01*
X141870953Y-125321190D01*
X142347143Y-124868810D02*
X142370953Y-124845000D01*
X142418572Y-124821190D01*
X142537619Y-124821190D01*
X142585238Y-124845000D01*
X142609048Y-124868810D01*
X142632857Y-124916429D01*
X142632857Y-124964048D01*
X142609048Y-125035476D01*
X142323334Y-125321190D01*
X142632857Y-125321190D01*
X146962858Y-134068333D02*
X147200953Y-134068333D01*
X146915239Y-134211190D02*
X147081906Y-133711190D01*
X147248572Y-134211190D01*
X147677143Y-134211190D02*
X147391429Y-134211190D01*
X147534286Y-134211190D02*
X147534286Y-133711190D01*
X147486667Y-133782619D01*
X147439048Y-133830238D01*
X147391429Y-133854048D01*
X144422858Y-134068333D02*
X144660953Y-134068333D01*
X144375239Y-134211190D02*
X144541906Y-133711190D01*
X144708572Y-134211190D01*
X144970477Y-133711190D02*
X145018096Y-133711190D01*
X145065715Y-133735000D01*
X145089524Y-133758810D01*
X145113334Y-133806429D01*
X145137143Y-133901667D01*
X145137143Y-134020714D01*
X145113334Y-134115952D01*
X145089524Y-134163571D01*
X145065715Y-134187381D01*
X145018096Y-134211190D01*
X144970477Y-134211190D01*
X144922858Y-134187381D01*
X144899048Y-134163571D01*
X144875239Y-134115952D01*
X144851429Y-134020714D01*
X144851429Y-133901667D01*
X144875239Y-133806429D01*
X144899048Y-133758810D01*
X144922858Y-133735000D01*
X144970477Y-133711190D01*
X141942381Y-134163571D02*
X141918571Y-134187381D01*
X141847143Y-134211190D01*
X141799524Y-134211190D01*
X141728095Y-134187381D01*
X141680476Y-134139762D01*
X141656667Y-134092143D01*
X141632857Y-133996905D01*
X141632857Y-133925476D01*
X141656667Y-133830238D01*
X141680476Y-133782619D01*
X141728095Y-133735000D01*
X141799524Y-133711190D01*
X141847143Y-133711190D01*
X141918571Y-133735000D01*
X141942381Y-133758810D01*
X142394762Y-134211190D02*
X142156667Y-134211190D01*
X142156667Y-133711190D01*
X142561429Y-134211190D02*
X142561429Y-133711190D01*
X142847143Y-134211190D02*
X142632857Y-133925476D01*
X142847143Y-133711190D02*
X142561429Y-133996905D01*
X139319047Y-133735000D02*
X139271428Y-133711190D01*
X139200000Y-133711190D01*
X139128571Y-133735000D01*
X139080952Y-133782619D01*
X139057143Y-133830238D01*
X139033333Y-133925476D01*
X139033333Y-133996905D01*
X139057143Y-134092143D01*
X139080952Y-134139762D01*
X139128571Y-134187381D01*
X139200000Y-134211190D01*
X139247619Y-134211190D01*
X139319047Y-134187381D01*
X139342857Y-134163571D01*
X139342857Y-133996905D01*
X139247619Y-133996905D01*
X139557143Y-134211190D02*
X139557143Y-133711190D01*
X139842857Y-134211190D01*
X139842857Y-133711190D01*
X140080953Y-134211190D02*
X140080953Y-133711190D01*
X140200000Y-133711190D01*
X140271429Y-133735000D01*
X140319048Y-133782619D01*
X140342857Y-133830238D01*
X140366667Y-133925476D01*
X140366667Y-133996905D01*
X140342857Y-134092143D01*
X140319048Y-134139762D01*
X140271429Y-134187381D01*
X140200000Y-134211190D01*
X140080953Y-134211190D01*
X136779047Y-133735000D02*
X136731428Y-133711190D01*
X136660000Y-133711190D01*
X136588571Y-133735000D01*
X136540952Y-133782619D01*
X136517143Y-133830238D01*
X136493333Y-133925476D01*
X136493333Y-133996905D01*
X136517143Y-134092143D01*
X136540952Y-134139762D01*
X136588571Y-134187381D01*
X136660000Y-134211190D01*
X136707619Y-134211190D01*
X136779047Y-134187381D01*
X136802857Y-134163571D01*
X136802857Y-133996905D01*
X136707619Y-133996905D01*
X137017143Y-134211190D02*
X137017143Y-133711190D01*
X137302857Y-134211190D01*
X137302857Y-133711190D01*
X137540953Y-134211190D02*
X137540953Y-133711190D01*
X137660000Y-133711190D01*
X137731429Y-133735000D01*
X137779048Y-133782619D01*
X137802857Y-133830238D01*
X137826667Y-133925476D01*
X137826667Y-133996905D01*
X137802857Y-134092143D01*
X137779048Y-134139762D01*
X137731429Y-134187381D01*
X137660000Y-134211190D01*
X137540953Y-134211190D01*
X131460953Y-134020714D02*
X131841905Y-134020714D01*
X131651429Y-134211190D02*
X131651429Y-133830238D01*
X132103810Y-134211190D02*
X132199048Y-134211190D01*
X132246667Y-134187381D01*
X132270477Y-134163571D01*
X132318096Y-134092143D01*
X132341905Y-133996905D01*
X132341905Y-133806429D01*
X132318096Y-133758810D01*
X132294286Y-133735000D01*
X132246667Y-133711190D01*
X132151429Y-133711190D01*
X132103810Y-133735000D01*
X132080001Y-133758810D01*
X132056191Y-133806429D01*
X132056191Y-133925476D01*
X132080001Y-133973095D01*
X132103810Y-133996905D01*
X132151429Y-134020714D01*
X132246667Y-134020714D01*
X132294286Y-133996905D01*
X132318096Y-133973095D01*
X132341905Y-133925476D01*
X132508572Y-133877857D02*
X132627619Y-134211190D01*
X132746667Y-133877857D01*
X128920953Y-134020714D02*
X129301905Y-134020714D01*
X129111429Y-134211190D02*
X129111429Y-133830238D01*
X129778096Y-133711190D02*
X129540001Y-133711190D01*
X129516191Y-133949286D01*
X129540001Y-133925476D01*
X129587620Y-133901667D01*
X129706667Y-133901667D01*
X129754286Y-133925476D01*
X129778096Y-133949286D01*
X129801905Y-133996905D01*
X129801905Y-134115952D01*
X129778096Y-134163571D01*
X129754286Y-134187381D01*
X129706667Y-134211190D01*
X129587620Y-134211190D01*
X129540001Y-134187381D01*
X129516191Y-134163571D01*
X129968572Y-133877857D02*
X130087619Y-134211190D01*
X130206667Y-133877857D01*
X126404763Y-134068333D02*
X126642858Y-134068333D01*
X126357144Y-134211190D02*
X126523811Y-133711190D01*
X126690477Y-134211190D01*
X127119048Y-134211190D02*
X126833334Y-134211190D01*
X126976191Y-134211190D02*
X126976191Y-133711190D01*
X126928572Y-133782619D01*
X126880953Y-133830238D01*
X126833334Y-133854048D01*
X127309524Y-133758810D02*
X127333334Y-133735000D01*
X127380953Y-133711190D01*
X127500000Y-133711190D01*
X127547619Y-133735000D01*
X127571429Y-133758810D01*
X127595238Y-133806429D01*
X127595238Y-133854048D01*
X127571429Y-133925476D01*
X127285715Y-134211190D01*
X127595238Y-134211190D01*
X123864763Y-134068333D02*
X124102858Y-134068333D01*
X123817144Y-134211190D02*
X123983811Y-133711190D01*
X124150477Y-134211190D01*
X124579048Y-134211190D02*
X124293334Y-134211190D01*
X124436191Y-134211190D02*
X124436191Y-133711190D01*
X124388572Y-133782619D01*
X124340953Y-133830238D01*
X124293334Y-133854048D01*
X125007619Y-133877857D02*
X125007619Y-134211190D01*
X124888572Y-133687381D02*
X124769524Y-134044524D01*
X125079048Y-134044524D01*
X139330953Y-125321190D02*
X139330953Y-124821190D01*
X139450000Y-124821190D01*
X139521429Y-124845000D01*
X139569048Y-124892619D01*
X139592857Y-124940238D01*
X139616667Y-125035476D01*
X139616667Y-125106905D01*
X139592857Y-125202143D01*
X139569048Y-125249762D01*
X139521429Y-125297381D01*
X139450000Y-125321190D01*
X139330953Y-125321190D01*
X140092857Y-125321190D02*
X139807143Y-125321190D01*
X139950000Y-125321190D02*
X139950000Y-124821190D01*
X139902381Y-124892619D01*
X139854762Y-124940238D01*
X139807143Y-124964048D01*
X136790953Y-125321190D02*
X136790953Y-124821190D01*
X136910000Y-124821190D01*
X136981429Y-124845000D01*
X137029048Y-124892619D01*
X137052857Y-124940238D01*
X137076667Y-125035476D01*
X137076667Y-125106905D01*
X137052857Y-125202143D01*
X137029048Y-125249762D01*
X136981429Y-125297381D01*
X136910000Y-125321190D01*
X136790953Y-125321190D01*
X137386191Y-124821190D02*
X137433810Y-124821190D01*
X137481429Y-124845000D01*
X137505238Y-124868810D01*
X137529048Y-124916429D01*
X137552857Y-125011667D01*
X137552857Y-125130714D01*
X137529048Y-125225952D01*
X137505238Y-125273571D01*
X137481429Y-125297381D01*
X137433810Y-125321190D01*
X137386191Y-125321190D01*
X137338572Y-125297381D01*
X137314762Y-125273571D01*
X137290953Y-125225952D01*
X137267143Y-125130714D01*
X137267143Y-125011667D01*
X137290953Y-124916429D01*
X137314762Y-124868810D01*
X137338572Y-124845000D01*
X137386191Y-124821190D01*
X131425238Y-125321190D02*
X131425238Y-124821190D01*
X131710952Y-125321190D01*
X131710952Y-124821190D01*
X132306190Y-124797381D02*
X131877619Y-125440238D01*
X132758572Y-125273571D02*
X132734762Y-125297381D01*
X132663334Y-125321190D01*
X132615715Y-125321190D01*
X132544286Y-125297381D01*
X132496667Y-125249762D01*
X132472858Y-125202143D01*
X132449048Y-125106905D01*
X132449048Y-125035476D01*
X132472858Y-124940238D01*
X132496667Y-124892619D01*
X132544286Y-124845000D01*
X132615715Y-124821190D01*
X132663334Y-124821190D01*
X132734762Y-124845000D01*
X132758572Y-124868810D01*
X129170953Y-125321190D02*
X129170953Y-124821190D01*
X129290000Y-124821190D01*
X129361429Y-124845000D01*
X129409048Y-124892619D01*
X129432857Y-124940238D01*
X129456667Y-125035476D01*
X129456667Y-125106905D01*
X129432857Y-125202143D01*
X129409048Y-125249762D01*
X129361429Y-125297381D01*
X129290000Y-125321190D01*
X129170953Y-125321190D01*
X129623334Y-124821190D02*
X129956667Y-124821190D01*
X129742381Y-125321190D01*
X126404763Y-125178333D02*
X126642858Y-125178333D01*
X126357144Y-125321190D02*
X126523811Y-124821190D01*
X126690477Y-125321190D01*
X127119048Y-125321190D02*
X126833334Y-125321190D01*
X126976191Y-125321190D02*
X126976191Y-124821190D01*
X126928572Y-124892619D01*
X126880953Y-124940238D01*
X126833334Y-124964048D01*
X127285715Y-124821190D02*
X127595238Y-124821190D01*
X127428572Y-125011667D01*
X127500000Y-125011667D01*
X127547619Y-125035476D01*
X127571429Y-125059286D01*
X127595238Y-125106905D01*
X127595238Y-125225952D01*
X127571429Y-125273571D01*
X127547619Y-125297381D01*
X127500000Y-125321190D01*
X127357143Y-125321190D01*
X127309524Y-125297381D01*
X127285715Y-125273571D01*
X123864763Y-125178333D02*
X124102858Y-125178333D01*
X123817144Y-125321190D02*
X123983811Y-124821190D01*
X124150477Y-125321190D01*
X124579048Y-125321190D02*
X124293334Y-125321190D01*
X124436191Y-125321190D02*
X124436191Y-124821190D01*
X124388572Y-124892619D01*
X124340953Y-124940238D01*
X124293334Y-124964048D01*
X125031429Y-124821190D02*
X124793334Y-124821190D01*
X124769524Y-125059286D01*
X124793334Y-125035476D01*
X124840953Y-125011667D01*
X124960000Y-125011667D01*
X125007619Y-125035476D01*
X125031429Y-125059286D01*
X125055238Y-125106905D01*
X125055238Y-125225952D01*
X125031429Y-125273571D01*
X125007619Y-125297381D01*
X124960000Y-125321190D01*
X124840953Y-125321190D01*
X124793334Y-125297381D01*
X124769524Y-125273571D01*
D17*
X132588095Y-106132381D02*
X132588095Y-106941905D01*
X132635714Y-107037143D01*
X132683333Y-107084762D01*
X132778571Y-107132381D01*
X132969048Y-107132381D01*
X133064286Y-107084762D01*
X133111905Y-107037143D01*
X133159524Y-106941905D01*
X133159524Y-106132381D01*
X134159524Y-107132381D02*
X133588095Y-107132381D01*
X133873809Y-107132381D02*
X133873809Y-106132381D01*
X133778571Y-106275238D01*
X133683333Y-106370476D01*
X133588095Y-106418095D01*
X174498095Y-97242381D02*
X174498095Y-98051905D01*
X174545714Y-98147143D01*
X174593333Y-98194762D01*
X174688571Y-98242381D01*
X174879048Y-98242381D01*
X174974286Y-98194762D01*
X175021905Y-98147143D01*
X175069524Y-98051905D01*
X175069524Y-97242381D01*
X175498095Y-97337619D02*
X175545714Y-97290000D01*
X175640952Y-97242381D01*
X175879048Y-97242381D01*
X175974286Y-97290000D01*
X176021905Y-97337619D01*
X176069524Y-97432857D01*
X176069524Y-97528095D01*
X176021905Y-97670952D01*
X175450476Y-98242381D01*
X176069524Y-98242381D01*
D18*
X147065000Y-117761190D02*
X147065000Y-117261190D01*
X147295953Y-117261190D01*
X147434524Y-117285000D01*
X147526905Y-117332619D01*
X147573096Y-117380238D01*
X147619286Y-117475476D01*
X147619286Y-117546905D01*
X147573096Y-117642143D01*
X147526905Y-117689762D01*
X147434524Y-117737381D01*
X147295953Y-117761190D01*
X147065000Y-117761190D01*
X148035000Y-117499286D02*
X148358334Y-117499286D01*
X148496905Y-117761190D02*
X148035000Y-117761190D01*
X148035000Y-117261190D01*
X148496905Y-117261190D01*
X148866429Y-117737381D02*
X149005000Y-117761190D01*
X149235953Y-117761190D01*
X149328334Y-117737381D01*
X149374524Y-117713571D01*
X149420715Y-117665952D01*
X149420715Y-117618333D01*
X149374524Y-117570714D01*
X149328334Y-117546905D01*
X149235953Y-117523095D01*
X149051191Y-117499286D01*
X148958810Y-117475476D01*
X148912619Y-117451667D01*
X148866429Y-117404048D01*
X148866429Y-117356429D01*
X148912619Y-117308810D01*
X148958810Y-117285000D01*
X149051191Y-117261190D01*
X149282143Y-117261190D01*
X149420715Y-117285000D01*
X149836429Y-117761190D02*
X149836429Y-117261190D01*
X150806430Y-117285000D02*
X150714049Y-117261190D01*
X150575477Y-117261190D01*
X150436906Y-117285000D01*
X150344525Y-117332619D01*
X150298334Y-117380238D01*
X150252144Y-117475476D01*
X150252144Y-117546905D01*
X150298334Y-117642143D01*
X150344525Y-117689762D01*
X150436906Y-117737381D01*
X150575477Y-117761190D01*
X150667858Y-117761190D01*
X150806430Y-117737381D01*
X150852620Y-117713571D01*
X150852620Y-117546905D01*
X150667858Y-117546905D01*
X151268334Y-117761190D02*
X151268334Y-117261190D01*
X151822620Y-117761190D01*
X151822620Y-117261190D01*
X152284524Y-117499286D02*
X152607858Y-117499286D01*
X152746429Y-117761190D02*
X152284524Y-117761190D01*
X152284524Y-117261190D01*
X152746429Y-117261190D01*
X153162143Y-117761190D02*
X153162143Y-117261190D01*
X153393096Y-117261190D01*
X153531667Y-117285000D01*
X153624048Y-117332619D01*
X153670239Y-117380238D01*
X153716429Y-117475476D01*
X153716429Y-117546905D01*
X153670239Y-117642143D01*
X153624048Y-117689762D01*
X153531667Y-117737381D01*
X153393096Y-117761190D01*
X153162143Y-117761190D01*
X154778810Y-117261190D02*
X155009763Y-117761190D01*
X155194525Y-117404048D01*
X155379287Y-117761190D01*
X155610239Y-117261190D01*
X155979762Y-117761190D02*
X155979762Y-117261190D01*
X156303096Y-117261190D02*
X156857382Y-117261190D01*
X156580239Y-117761190D02*
X156580239Y-117261190D01*
X157180715Y-117761190D02*
X157180715Y-117261190D01*
X157180715Y-117499286D02*
X157735001Y-117499286D01*
X157735001Y-117761190D02*
X157735001Y-117261190D01*
M02*
